<svg width="43" height="31" viewBox="0 0 43 31" fill="none" xmlns="http://www.w3.org/2000/svg">
<path  fill="url(#paint0_linear_652_8254)" d="M38.375 0.382812H4.625C2.49031 0.385625 0.760625 2.11531 0.757812 4.25V26.75C0.760625 28.8847 2.49031 30.6144 4.625 30.6172H38.375C40.5097 30.6144 42.2394 28.8847 42.2422 26.75V4.25C42.2394 2.11531 40.5097 0.385625 38.375 0.382812ZM40.1328 26.75C40.1314 27.7203 39.3453 28.5064 38.375 28.5078H4.625C3.65469 28.5064 2.86859 27.7203 2.86719 26.75V4.25C2.86859 3.27969 3.65469 2.49359 4.625 2.49219H38.375C39.3453 2.49359 40.1314 3.27969 40.1328 4.25V26.75ZM13.0625 22.8828H7.4375C6.85531 22.8828 6.38281 23.3553 6.38281 23.9375C6.38281 24.5197 6.85531 24.9922 7.4375 24.9922H13.0625C13.6447 24.9922 14.1172 24.5197 14.1172 23.9375C14.1172 23.3553 13.6447 22.8828 13.0625 22.8828ZM27.125 22.8828H18.6875C18.1053 22.8828 17.6328 23.3553 17.6328 23.9375C17.6328 24.5197 18.1053 24.9922 18.6875 24.9922H27.125C27.7072 24.9922 28.1797 24.5197 28.1797 23.9375C28.1797 23.3553 27.7072 22.8828 27.125 22.8828ZM32.75 17.2578H7.4375C6.85531 17.2578 6.38281 17.7303 6.38281 18.3125C6.38281 18.8947 6.85531 19.3672 7.4375 19.3672H32.75C33.3322 19.3672 33.8047 18.8947 33.8047 18.3125C33.8047 17.7303 33.3322 17.2578 32.75 17.2578ZM35.5625 6.00781H27.125C26.5428 6.00781 26.0703 6.48031 26.0703 7.0625V12.6875C26.0703 13.2697 26.5428 13.7422 27.125 13.7422H35.5625C36.1447 13.7422 36.6172 13.2697 36.6172 12.6875V7.0625C36.6172 6.48031 36.1447 6.00781 35.5625 6.00781ZM34.5078 11.6328H28.1797V8.11719H34.5078V11.6328Z"/>
<defs>
<linearGradient id="paint0_linear_652_8254" x1="0.75" y1="18" x2="33.2502" y2="18" gradientUnits="userSpaceOnUse">
<stop stop-color="#4CC326"/>
<stop offset="1" stop-color="#FFEA2A"/>
</linearGradient>
</defs>
</svg>
