<svg width="206" height="170" viewBox="0 0 206 170" fill="none" xmlns="http://www.w3.org/2000/svg">
<g opacity="0.4">
<g filter="url(#filter0_d_2_8118)">
<path fill-rule="evenodd" clip-rule="evenodd" d="M72.7891 35.9901L153.909 21.4173L210.251 93.1044L203.299 170.158L109.659 183.082L109.653 183.083L109.647 183.083L47.1274 181.341L30.8711 151.956L72.7891 35.9901ZM72.8932 36.1133L31.0241 151.944L47.2111 181.203L109.646 182.943L203.17 170.034L210.107 93.1472L153.851 21.5696L72.8932 36.1133Z" fill="url(#paint0_linear_2_8118)"/>
</g>
<g filter="url(#filter1_d_2_8118)">
<path fill-rule="evenodd" clip-rule="evenodd" d="M100.3 37.2275L191.544 54.2117L200.283 139.636L137.417 169.078L95.1536 174.748L28.4434 125.116L34.204 76.0827L100.3 37.2275ZM34.3352 76.1675L28.592 125.052L95.1919 174.602L137.377 168.942L200.133 139.552L191.415 54.3298L100.325 37.3743L34.3352 76.1675Z" fill="url(#paint1_linear_2_8118)"/>
</g>
<g filter="url(#filter2_d_2_8118)">
<path fill-rule="evenodd" clip-rule="evenodd" d="M80.2015 52.1041L150.501 31.6718L189.778 83.1538L187.704 150.943L108.885 199.124L47.0551 160.543L46.8119 93.8412L80.2015 52.1041ZM80.2834 52.2265L46.9526 93.8903L47.1952 160.465L108.886 198.958L187.566 150.863L189.636 83.1994L150.448 31.8335L80.2834 52.2265Z" fill="url(#paint2_linear_2_8118)"/>
</g>
<path d="M28.9093 125.767C28.2194 125.979 27.4292 125.618 27.1965 124.859C26.9849 124.17 27.3464 123.379 28.1052 123.147C28.7951 122.935 29.5853 123.296 29.8181 124.055C30.0297 124.745 29.5992 125.556 28.9093 125.767Z" fill="white" fill-opacity="0.4"/>
<path d="M28.1893 123.422C28.8102 123.232 29.3723 123.588 29.5416 124.139C29.732 124.76 29.376 125.322 28.8241 125.491C28.2032 125.682 27.6411 125.326 27.4719 124.774C27.2124 124.175 27.5684 123.613 28.1893 123.422ZM28.0412 122.94C27.2133 123.194 26.735 124.095 26.9889 124.923C27.2428 125.75 28.1443 126.228 28.9722 125.974C29.8001 125.72 30.2784 124.819 30.0245 123.991C29.7706 123.164 28.8691 122.686 28.0412 122.94Z" fill="#141414"/>
<path d="M47.6236 140.019C46.9337 140.231 46.1436 139.87 45.9108 139.111C45.6992 138.421 46.0607 137.631 46.8196 137.399C47.5095 137.187 48.2997 137.548 48.5324 138.307C48.744 138.996 48.3135 139.808 47.6236 140.019Z" fill="white" fill-opacity="0.4"/>
<path d="M46.8827 137.607C47.5036 137.416 48.0657 137.772 48.2349 138.324C48.4042 138.876 48.0694 139.507 47.5175 139.676C46.9655 139.845 46.3345 139.511 46.1652 138.959C45.996 138.407 46.3308 137.776 46.8827 137.607ZM46.7346 137.124C45.9067 137.378 45.4284 138.279 45.6823 139.107C45.9362 139.935 46.8377 140.413 47.6656 140.159C48.4934 139.905 48.9718 139.003 48.7179 138.176C48.464 137.348 47.5625 136.87 46.7346 137.124Z" fill="#141414"/>
<path d="M38.6051 133.507C37.9152 133.718 37.125 133.357 36.8923 132.598C36.6807 131.909 37.0422 131.119 37.801 130.886C38.4909 130.674 39.2811 131.035 39.5139 131.794C39.6565 132.505 39.295 133.295 38.6051 133.507Z" fill="white" fill-opacity="0.4"/>
<path d="M37.865 131.093C38.4859 130.902 39.0479 131.258 39.2172 131.81C39.3865 132.361 39.0516 132.992 38.4997 133.162C37.8788 133.352 37.3167 132.996 37.1475 132.445C36.9782 131.893 37.244 131.283 37.865 131.093ZM37.738 130.679C36.9101 130.933 36.4318 131.834 36.6857 132.662C36.9396 133.489 37.8411 133.967 38.669 133.713C39.4969 133.459 39.9752 132.558 39.7213 131.73C39.4674 130.903 38.5659 130.425 37.738 130.679Z" fill="#141414"/>
<path d="M31.4996 153.645C30.8097 153.857 30.0195 153.496 29.7868 152.737C29.5752 152.047 29.9367 151.257 30.6956 151.025C31.3855 150.813 32.1757 151.174 32.4084 151.933C32.6412 152.691 32.2585 153.412 31.4996 153.645Z" fill="white" fill-opacity="0.4"/>
<path d="M30.7802 151.3C31.4011 151.11 31.9631 151.466 32.1324 152.017C32.3017 152.569 31.9668 153.2 31.4149 153.369C30.794 153.56 30.232 153.204 30.0627 152.652C29.8934 152.101 30.2282 151.47 30.7802 151.3ZM30.632 150.818C29.8042 151.072 29.3258 151.973 29.5798 152.8C29.8337 153.628 30.7351 154.106 31.563 153.852C32.3909 153.598 32.8692 152.697 32.6153 151.869C32.3614 151.042 31.5289 150.542 30.632 150.818Z" fill="#141414"/>
<path d="M47.6207 161.904C46.9308 162.116 46.1406 161.755 45.9079 160.996C45.6963 160.306 46.0578 159.516 46.8167 159.283C47.5066 159.072 48.2968 159.433 48.5295 160.192C48.7411 160.881 48.3796 161.671 47.6207 161.904Z" fill="white" fill-opacity="0.4"/>
<path d="M46.8796 159.49C47.5005 159.3 48.0626 159.655 48.2318 160.207C48.4223 160.828 48.0663 161.39 47.5144 161.559C46.8935 161.75 46.3314 161.394 46.1621 160.842C45.9929 160.29 46.3277 159.659 46.8796 159.49ZM46.7526 159.076C45.9248 159.33 45.4465 160.232 45.7004 161.059C45.9543 161.887 46.8558 162.365 47.6836 162.111C48.5115 161.857 48.9898 160.956 48.7359 160.128C48.482 159.3 47.5805 158.822 46.7526 159.076Z" fill="#141414"/>
<path d="M138.155 170.121C137.465 170.333 136.675 169.971 136.443 169.213C136.231 168.523 136.592 167.733 137.351 167.5C138.041 167.289 138.831 167.65 139.064 168.408C139.228 169.188 138.845 169.909 138.155 170.121Z" fill="white" fill-opacity="0.4"/>
<path d="M137.435 167.776C138.056 167.585 138.618 167.941 138.788 168.493C138.978 169.114 138.622 169.676 138.07 169.845C137.449 170.035 136.887 169.68 136.718 169.128C136.48 168.597 136.815 167.966 137.435 167.776ZM137.287 167.293C136.459 167.547 135.981 168.448 136.235 169.276C136.489 170.104 137.39 170.582 138.218 170.328C139.046 170.074 139.524 169.172 139.271 168.345C139.017 167.517 138.115 167.039 137.287 167.293Z" fill="#141414"/>
<path d="M187.422 152.816C186.733 153.028 185.942 152.667 185.71 151.908C185.498 151.218 185.86 150.428 186.618 150.195C187.308 149.984 188.099 150.345 188.331 151.104C188.474 151.815 188.112 152.605 187.422 152.816Z" fill="white" fill-opacity="0.4"/>
<path d="M186.682 150.404C187.302 150.213 187.864 150.569 188.034 151.121C188.224 151.741 187.868 152.303 187.316 152.473C186.695 152.663 186.133 152.308 185.964 151.756C185.726 151.225 186.061 150.594 186.682 150.404ZM186.533 149.921C185.706 150.175 185.227 151.076 185.481 151.904C185.735 152.732 186.637 153.21 187.464 152.956C188.292 152.702 188.771 151.8 188.517 150.973C188.263 150.145 187.361 149.667 186.533 149.921Z" fill="#141414"/>
<path d="M187.883 146.941C187.193 147.153 186.403 146.792 186.17 146.033C185.958 145.343 186.32 144.553 187.079 144.32C187.769 144.109 188.559 144.47 188.792 145.229C189.003 145.918 188.642 146.708 187.883 146.941Z" fill="white" fill-opacity="0.4"/>
<path d="M187.163 144.596C187.784 144.406 188.346 144.761 188.516 145.313C188.685 145.865 188.35 146.496 187.798 146.665C187.177 146.856 186.615 146.5 186.446 145.948C186.277 145.396 186.612 144.766 187.163 144.596ZM187.015 144.113C186.187 144.367 185.709 145.269 185.963 146.096C186.217 146.924 187.118 147.402 187.946 147.148C188.774 146.894 189.253 145.993 188.999 145.165C188.745 144.337 187.843 143.859 187.015 144.113Z" fill="#141414"/>
<path d="M200.378 140.918C199.688 141.129 198.897 140.768 198.665 140.01C198.453 139.32 198.815 138.53 199.574 138.297C200.263 138.085 201.054 138.447 201.286 139.205C201.498 139.895 201.067 140.706 200.378 140.918Z" fill="white" fill-opacity="0.4"/>
<path d="M199.637 138.505C200.258 138.315 200.82 138.671 200.989 139.222C201.159 139.774 200.824 140.405 200.272 140.574C199.651 140.765 199.089 140.409 198.92 139.857C198.75 139.306 199.016 138.696 199.637 138.505ZM199.489 138.023C198.661 138.277 198.183 139.178 198.437 140.006C198.691 140.833 199.592 141.311 200.42 141.057C201.248 140.803 201.726 139.902 201.472 139.074C201.218 138.247 200.317 137.769 199.489 138.023Z" fill="#141414"/>
<path d="M193.501 72.2517C192.811 72.4634 192.021 72.1022 191.788 71.3436C191.577 70.6539 191.938 69.8639 192.697 69.631C193.387 69.4194 194.177 69.7806 194.41 70.5392C194.621 71.2289 194.191 72.0401 193.501 72.2517Z" fill="white" fill-opacity="0.4"/>
<path d="M192.76 69.8378C193.381 69.6473 193.943 70.0031 194.112 70.5548C194.281 71.1065 193.947 71.7374 193.395 71.9068C192.843 72.0761 192.212 71.7415 192.042 71.1898C191.873 70.638 192.139 70.0283 192.76 69.8378ZM192.633 69.424C191.805 69.678 191.327 70.5793 191.581 71.4069C191.835 72.2345 192.736 72.7125 193.564 72.4585C194.392 72.2045 194.87 71.3032 194.616 70.4756C194.362 69.648 193.461 69.17 192.633 69.424Z" fill="#141414"/>
<path d="M189.622 85.4373C188.932 85.649 188.142 85.2877 187.909 84.5291C187.697 83.8394 188.059 83.0494 188.818 82.8166C189.508 82.6049 190.298 82.9662 190.53 83.7248C190.763 84.4834 190.312 85.2256 189.622 85.4373Z" fill="white" fill-opacity="0.4"/>
<path d="M188.902 83.0923C189.523 82.9018 190.085 83.2576 190.254 83.8093C190.444 84.43 190.088 84.9919 189.536 85.1613C188.916 85.3518 188.354 84.996 188.184 84.4443C187.946 83.9137 188.281 83.2828 188.902 83.0923ZM188.754 82.6095C187.926 82.8635 187.447 83.7649 187.701 84.5924C187.955 85.42 188.857 85.898 189.685 85.644C190.512 85.39 190.991 84.4887 190.737 83.6611C190.483 82.8335 189.582 82.3555 188.754 82.6095Z" fill="#141414"/>
<path d="M191.74 55.4363C191.05 55.648 190.26 55.2867 190.027 54.5281C189.815 53.8385 190.177 53.0484 190.936 52.8156C191.626 52.604 192.416 52.9652 192.649 53.7238C192.86 54.4135 192.43 55.2246 191.74 55.4363Z" fill="white" fill-opacity="0.4"/>
<path d="M190.999 53.0224C191.62 52.8319 192.182 53.1876 192.351 53.7393C192.52 54.2911 192.185 54.922 191.634 55.0913C191.013 55.2818 190.451 54.9261 190.281 54.3743C190.112 53.8226 190.378 53.2129 190.999 53.0224ZM190.872 52.6086C190.044 52.8626 189.566 53.7639 189.819 54.5915C190.073 55.4191 190.975 55.897 191.803 55.6431C192.631 55.3891 193.109 54.4877 192.855 53.6601C192.601 52.8326 191.7 52.3546 190.872 52.6086Z" fill="#141414"/>
<path d="M154.684 22.739C153.994 22.9507 153.204 22.5895 152.971 21.8309C152.759 21.1412 153.121 20.3512 153.88 20.1183C154.57 19.9067 155.36 20.2679 155.592 21.0265C155.825 21.7852 155.443 22.5062 154.684 22.739Z" fill="white" fill-opacity="0.4"/>
<path d="M153.965 20.3941C154.586 20.2036 155.148 20.5593 155.317 21.111C155.507 21.7317 155.151 22.2937 154.599 22.463C153.979 22.6535 153.417 22.2978 153.247 21.746C153.078 21.1943 153.413 20.5634 153.965 20.3941ZM153.817 19.9113C152.989 20.1653 152.51 21.0666 152.764 21.8942C153.018 22.7218 153.92 23.1998 154.748 22.9458C155.575 22.6918 156.054 21.7905 155.8 20.9629C155.615 20.1141 154.713 19.6361 153.817 19.9113Z" fill="#141414"/>
<path d="M100.368 38.3435C99.6779 38.5552 98.8877 38.194 98.6549 37.4353C98.4434 36.7457 98.8049 35.9557 99.5637 35.7228C100.254 35.5112 101.044 35.8724 101.277 36.631C101.488 37.3207 101.127 38.1107 100.368 38.3435Z" fill="white" fill-opacity="0.4"/>
<path d="M99.6273 35.9312C100.248 35.7407 100.81 36.0964 100.98 36.6482C101.17 37.2688 100.814 37.8308 100.262 38.0001C99.6412 38.1906 99.0791 37.8349 98.9098 37.2831C98.7406 36.7314 99.0754 36.1005 99.6273 35.9312ZM99.4792 35.4484C98.6513 35.7024 98.173 36.6037 98.4269 37.4313C98.6808 38.2589 99.5823 38.7369 100.41 38.4829C101.238 38.2289 101.716 37.3276 101.462 36.5C101.209 35.6724 100.307 35.1944 99.4792 35.4484Z" fill="#141414"/>
<path d="M121.867 42.24C121.177 42.4517 120.387 42.0905 120.154 41.3318C119.943 40.6422 120.304 39.8522 121.063 39.6193C121.753 39.4077 122.543 39.7689 122.776 40.5275C122.988 41.2172 122.626 42.0072 121.867 42.24Z" fill="white" fill-opacity="0.4"/>
<path d="M121.148 39.895C121.769 39.7045 122.331 40.0603 122.5 40.612C122.69 41.2327 122.335 41.7947 121.783 41.964C121.162 42.1545 120.6 41.7987 120.43 41.247C120.24 40.6263 120.596 40.0644 121.148 39.895ZM121 39.4123C120.172 39.6663 119.694 40.5676 119.947 41.3952C120.201 42.2228 121.103 42.7008 121.931 42.4468C122.759 42.1928 123.237 41.2914 122.983 40.4639C122.798 39.6151 121.897 39.1371 121 39.4123Z" fill="#141414"/>
<path d="M80.5587 54.2322C79.8688 54.4439 79.0786 54.0826 78.8459 53.324C78.6343 52.6344 78.9958 51.8443 79.7547 51.6115C80.5136 51.3787 81.2347 51.7611 81.4675 52.5197C81.6791 53.2094 81.2486 54.0205 80.5587 54.2322Z" fill="white" fill-opacity="0.4"/>
<path d="M79.8182 51.8198C80.4391 51.6293 81.0012 51.9851 81.1705 52.5368C81.3397 53.0886 81.0049 53.7195 80.453 53.8888C79.9011 54.0581 79.2222 53.8137 79.0529 53.2619C78.8837 52.7102 79.1973 52.0103 79.8182 51.8198ZM79.6701 51.3371C78.8422 51.5911 78.3639 52.4924 78.6178 53.32C78.8717 54.1476 79.7732 54.6256 80.6011 54.3716C81.429 54.1176 81.9073 53.2163 81.6534 52.3887C81.3995 51.5611 80.498 51.0831 79.6701 51.3371Z" fill="#141414"/>
<path d="M73.5138 36.9275C72.8239 37.1392 72.0337 36.778 71.8009 36.0193C71.5894 35.3297 71.9508 34.5397 72.7097 34.3068C73.3996 34.0952 74.1898 34.4564 74.4226 35.215C74.5863 35.9948 74.2037 36.7159 73.5138 36.9275Z" fill="white" fill-opacity="0.4"/>
<path d="M72.794 34.5819C73.4149 34.3914 73.9769 34.7471 74.1462 35.2989C74.3366 35.9196 73.9807 36.4815 73.4287 36.6508C72.8078 36.8413 72.2458 36.4856 72.0765 35.9339C71.8382 35.4033 72.1731 34.7724 72.794 34.5819ZM72.6459 34.0991C71.749 34.3743 71.2707 35.2756 71.5246 36.1032C71.7785 36.9308 72.68 37.4088 73.5078 37.1548C74.3357 36.9008 74.814 35.9995 74.5601 35.1719C74.3752 34.3231 73.4737 33.8451 72.6459 34.0991Z" fill="#141414"/>
<path d="M204.202 171.588C203.512 171.799 202.722 171.438 202.489 170.679C202.278 169.99 202.639 169.2 203.398 168.967C204.088 168.755 204.878 169.117 205.111 169.875C205.323 170.565 204.892 171.376 204.202 171.588Z" fill="white" fill-opacity="0.4"/>
<path d="M203.483 169.245C204.104 169.054 204.666 169.41 204.835 169.962C205.025 170.582 204.669 171.144 204.118 171.314C203.497 171.504 202.935 171.148 202.765 170.597C202.527 170.066 202.862 169.435 203.483 169.245ZM203.335 168.762C202.507 169.016 202.028 169.917 202.282 170.745C202.536 171.572 203.438 172.05 204.266 171.796C205.094 171.542 205.572 170.641 205.318 169.813C205.064 168.986 204.163 168.508 203.335 168.762Z" fill="#141414"/>
</g>
<g filter="url(#filter3_b_2_8118)">
<path d="M107.394 113.737L105.617 106.846L100.615 101.653L84.6053 115.445L86.3651 121.521L91.3666 126.713L111.823 130.354L110.038 123.055L105.452 118.262L102.982 117.092L107.394 113.737Z" fill="white" fill-opacity="0.05"/>
</g>
<g filter="url(#filter4_b_2_8118)">
<path d="M135.227 100.1L133.042 93.2181L153.499 96.8583L158.501 102.05L160.26 108.127L144.251 121.918L139.648 116.31L137.463 109.427L141.459 105.674L139.821 105.301L135.227 100.1Z" fill="white" fill-opacity="0.05"/>
</g>
<path d="M102.754 117.552L107.538 113.903L105.657 106.882" stroke="white" stroke-opacity="0.2" stroke-width="1.06746" stroke-miterlimit="10"/>
<path d="M91.2344 126.658L111.949 130.363L110.021 123.17" stroke="white" stroke-opacity="0.2" stroke-width="1.06746" stroke-miterlimit="10"/>
<path d="M118.763 133.796L126.041 131.846L131.418 96.4016" stroke="white" stroke-opacity="0.2" stroke-width="1.06746" stroke-miterlimit="10"/>
<path d="M144.103 121.747L160.19 108.182L158.547 102.05" stroke="white" stroke-opacity="0.2" stroke-width="1.06746" stroke-miterlimit="10"/>
<path d="M139.693 105.287L142.037 105.59" stroke="white" stroke-opacity="0.2" stroke-width="1.06746" stroke-miterlimit="10"/>
<g filter="url(#filter5_b_2_8118)">
<path d="M113.838 128.318L119.203 93.1518L126.501 91.3661L131.494 96.1508L126.138 131.725L120.469 133.476L118.432 133.519L113.838 128.318Z" fill="white" fill-opacity="0.05"/>
</g>
<path d="M86.3989 121.388L91.2433 126.667" stroke="white" stroke-opacity="0.2" stroke-width="1.06746" stroke-miterlimit="10"/>
<path d="M100.823 101.576L105.656 106.899" stroke="white" stroke-opacity="0.2" stroke-width="1.06746" stroke-miterlimit="10"/>
<path d="M105.152 117.903L110.02 123.165" stroke="white" stroke-opacity="0.2" stroke-width="1.06746" stroke-miterlimit="10"/>
<path d="M102.699 108.621L107.532 113.944" stroke="white" stroke-opacity="0.2" stroke-width="1.06746" stroke-miterlimit="10"/>
<path d="M107.067 125.029L111.946 130.352" stroke="white" stroke-opacity="0.2" stroke-width="1.06746" stroke-miterlimit="10"/>
<path d="M113.903 128.503L118.758 133.78" stroke="white" stroke-opacity="0.2" stroke-width="1.06746" stroke-miterlimit="10"/>
<path d="M121.155 126.558L126.004 131.836" stroke="white" stroke-opacity="0.2" stroke-width="1.06746" stroke-miterlimit="10"/>
<path d="M126.603 91.1465L131.458 96.4234" stroke="white" stroke-opacity="0.2" stroke-width="1.06746" stroke-miterlimit="10"/>
<path d="M139.669 105.265L134.835 100.022" stroke="white" stroke-opacity="0.2" stroke-width="1.06746" stroke-miterlimit="10"/>
<path d="M144.074 121.744L139.254 116.469" stroke="white" stroke-opacity="0.2" stroke-width="1.06746" stroke-miterlimit="10"/>
<path d="M160.176 108.167L155.333 102.893" stroke="white" stroke-opacity="0.2" stroke-width="1.06746" stroke-miterlimit="10"/>
<path d="M158.537 102.054L153.693 96.7744" stroke="white" stroke-opacity="0.2" stroke-width="1.06746" stroke-miterlimit="10"/>
<path d="M86.386 121.388L107.099 125.087L105.172 117.894L92.818 116.149L102.69 108.632L100.808 101.611L84.7415 115.251L86.386 121.388Z" stroke="white" stroke-opacity="0.2" stroke-width="1.06746" stroke-miterlimit="10"/>
<path d="M113.914 128.523L121.193 126.573L126.568 91.1233L119.332 93.0622L113.914 128.523Z" stroke="white" stroke-opacity="0.2" stroke-width="1.06746" stroke-miterlimit="10"/>
<path d="M132.963 92.9951L134.844 100.017L147.152 101.59L137.326 109.279L139.253 116.472L155.342 102.912L153.697 96.7746L132.963 92.9951Z" stroke="white" stroke-opacity="0.2" stroke-width="1.06746" stroke-miterlimit="10"/>
<defs>
<filter id="filter0_d_2_8118" x="27.5698" y="18.1157" width="185.983" height="168.269" filterUnits="userSpaceOnUse" color-interpolation-filters="sRGB">
<feFlood flood-opacity="0" result="BackgroundImageFix"/>
<feColorMatrix in="SourceAlpha" type="matrix" values="0 0 0 0 0 0 0 0 0 0 0 0 0 0 0 0 0 0 127 0" result="hardAlpha"/>
<feOffset/>
<feGaussianBlur stdDeviation="1.65067"/>
<feComposite in2="hardAlpha" operator="out"/>
<feColorMatrix type="matrix" values="0 0 0 0 0.298039 0 0 0 0 0.764706 0 0 0 0 0.14902 0 0 0 1 0"/>
<feBlend mode="normal" in2="BackgroundImageFix" result="effect1_dropShadow_2_8118"/>
<feBlend mode="normal" in="SourceGraphic" in2="effect1_dropShadow_2_8118" result="shape"/>
</filter>
<filter id="filter1_d_2_8118" x="25.142" y="33.9262" width="178.442" height="144.123" filterUnits="userSpaceOnUse" color-interpolation-filters="sRGB">
<feFlood flood-opacity="0" result="BackgroundImageFix"/>
<feColorMatrix in="SourceAlpha" type="matrix" values="0 0 0 0 0 0 0 0 0 0 0 0 0 0 0 0 0 0 127 0" result="hardAlpha"/>
<feOffset/>
<feGaussianBlur stdDeviation="1.65067"/>
<feComposite in2="hardAlpha" operator="out"/>
<feColorMatrix type="matrix" values="0 0 0 0 0.298039 0 0 0 0 0.764706 0 0 0 0 0.14902 0 0 0 1 0"/>
<feBlend mode="normal" in2="BackgroundImageFix" result="effect1_dropShadow_2_8118"/>
<feBlend mode="normal" in="SourceGraphic" in2="effect1_dropShadow_2_8118" result="shape"/>
</filter>
<filter id="filter2_d_2_8118" x="43.5107" y="28.3705" width="149.568" height="174.055" filterUnits="userSpaceOnUse" color-interpolation-filters="sRGB">
<feFlood flood-opacity="0" result="BackgroundImageFix"/>
<feColorMatrix in="SourceAlpha" type="matrix" values="0 0 0 0 0 0 0 0 0 0 0 0 0 0 0 0 0 0 127 0" result="hardAlpha"/>
<feOffset/>
<feGaussianBlur stdDeviation="1.65067"/>
<feComposite in2="hardAlpha" operator="out"/>
<feColorMatrix type="matrix" values="0 0 0 0 0.298039 0 0 0 0 0.764706 0 0 0 0 0.14902 0 0 0 1 0"/>
<feBlend mode="normal" in2="BackgroundImageFix" result="effect1_dropShadow_2_8118"/>
<feBlend mode="normal" in="SourceGraphic" in2="effect1_dropShadow_2_8118" result="shape"/>
</filter>
<filter id="filter3_b_2_8118" x="80.6055" y="97.6533" width="35.2178" height="36.7002" filterUnits="userSpaceOnUse" color-interpolation-filters="sRGB">
<feFlood flood-opacity="0" result="BackgroundImageFix"/>
<feGaussianBlur in="BackgroundImageFix" stdDeviation="2"/>
<feComposite in2="SourceAlpha" operator="in" result="effect1_backgroundBlur_2_8118"/>
<feBlend mode="normal" in="SourceGraphic" in2="effect1_backgroundBlur_2_8118" result="shape"/>
</filter>
<filter id="filter4_b_2_8118" x="129.042" y="89.2178" width="35.2183" height="36.7002" filterUnits="userSpaceOnUse" color-interpolation-filters="sRGB">
<feFlood flood-opacity="0" result="BackgroundImageFix"/>
<feGaussianBlur in="BackgroundImageFix" stdDeviation="2"/>
<feComposite in2="SourceAlpha" operator="in" result="effect1_backgroundBlur_2_8118"/>
<feBlend mode="normal" in="SourceGraphic" in2="effect1_backgroundBlur_2_8118" result="shape"/>
</filter>
<filter id="filter5_b_2_8118" x="109.838" y="87.3662" width="25.6562" height="50.1533" filterUnits="userSpaceOnUse" color-interpolation-filters="sRGB">
<feFlood flood-opacity="0" result="BackgroundImageFix"/>
<feGaussianBlur in="BackgroundImageFix" stdDeviation="2"/>
<feComposite in2="SourceAlpha" operator="in" result="effect1_backgroundBlur_2_8118"/>
<feBlend mode="normal" in="SourceGraphic" in2="effect1_backgroundBlur_2_8118" result="shape"/>
</filter>
<linearGradient id="paint0_linear_2_8118" x1="26.3407" y1="137.363" x2="206.844" y2="81.9847" gradientUnits="userSpaceOnUse">
<stop stop-color="white"/>
<stop offset="1" stop-color="white"/>
</linearGradient>
<linearGradient id="paint1_linear_2_8118" x1="30.0217" y1="130.423" x2="199.023" y2="78.5735" gradientUnits="userSpaceOnUse">
<stop stop-color="white"/>
<stop offset="1" stop-color="white"/>
</linearGradient>
<linearGradient id="paint2_linear_2_8118" x1="41.3096" y1="141.963" x2="193.499" y2="95.2709" gradientUnits="userSpaceOnUse">
<stop stop-color="white"/>
<stop offset="1" stop-color="white"/>
</linearGradient>
</defs>
</svg>
