<svg width="206" height="170" viewBox="0 0 206 170" fill="none" xmlns="http://www.w3.org/2000/svg">
<g opacity="0.4">
<g filter="url(#filter0_d_2_7885)">
<path fill-rule="evenodd" clip-rule="evenodd" d="M72.7891 35.9901L153.909 21.4173L210.251 93.1044L203.299 170.158L109.659 183.082L109.653 183.083L109.647 183.083L47.1274 181.341L30.8711 151.956L72.7891 35.9901ZM72.8932 36.1133L31.0241 151.944L47.2111 181.203L109.646 182.943L203.17 170.034L210.107 93.1472L153.851 21.5696L72.8932 36.1133Z" fill="url(#paint0_linear_2_7885)"/>
</g>
<g filter="url(#filter1_d_2_7885)">
<path fill-rule="evenodd" clip-rule="evenodd" d="M100.3 37.2275L191.544 54.2117L200.283 139.636L137.417 169.078L95.1536 174.748L28.4434 125.116L34.204 76.0827L100.3 37.2275ZM34.3352 76.1675L28.592 125.052L95.1919 174.602L137.377 168.942L200.133 139.552L191.415 54.3298L100.325 37.3743L34.3352 76.1675Z" fill="url(#paint1_linear_2_7885)"/>
</g>
<g filter="url(#filter2_d_2_7885)">
<path fill-rule="evenodd" clip-rule="evenodd" d="M80.2015 52.1041L150.501 31.6718L189.778 83.1538L187.704 150.943L108.885 199.124L47.0551 160.543L46.8119 93.8412L80.2015 52.1041ZM80.2834 52.2265L46.9526 93.8903L47.1952 160.465L108.886 198.958L187.566 150.863L189.636 83.1994L150.448 31.8335L80.2834 52.2265Z" fill="url(#paint2_linear_2_7885)"/>
</g>
<path d="M28.9093 125.767C28.2194 125.979 27.4292 125.618 27.1965 124.859C26.9849 124.17 27.3464 123.379 28.1052 123.147C28.7951 122.935 29.5853 123.296 29.8181 124.055C30.0297 124.745 29.5992 125.556 28.9093 125.767Z" fill="#4CC326"/>
<path d="M28.1893 123.422C28.8102 123.232 29.3723 123.588 29.5416 124.139C29.732 124.76 29.376 125.322 28.8241 125.491C28.2032 125.682 27.6411 125.326 27.4719 124.774C27.2124 124.175 27.5684 123.613 28.1893 123.422ZM28.0412 122.94C27.2133 123.194 26.735 124.095 26.9889 124.923C27.2428 125.75 28.1443 126.228 28.9722 125.974C29.8001 125.72 30.2784 124.819 30.0245 123.991C29.7706 123.164 28.8691 122.686 28.0412 122.94Z" fill="#141414"/>
<path d="M47.6236 140.019C46.9337 140.231 46.1436 139.87 45.9108 139.111C45.6992 138.421 46.0607 137.631 46.8196 137.399C47.5095 137.187 48.2997 137.548 48.5324 138.307C48.744 138.996 48.3135 139.808 47.6236 140.019Z" fill="#4CC326"/>
<path d="M46.8827 137.607C47.5036 137.416 48.0657 137.772 48.2349 138.324C48.4042 138.876 48.0694 139.507 47.5175 139.676C46.9655 139.845 46.3345 139.511 46.1652 138.959C45.996 138.407 46.3308 137.776 46.8827 137.607ZM46.7346 137.124C45.9067 137.378 45.4284 138.279 45.6823 139.107C45.9362 139.935 46.8377 140.413 47.6656 140.159C48.4934 139.905 48.9718 139.003 48.7179 138.176C48.464 137.348 47.5625 136.87 46.7346 137.124Z" fill="#141414"/>
<path d="M38.6051 133.507C37.9152 133.718 37.125 133.357 36.8923 132.598C36.6807 131.909 37.0422 131.119 37.801 130.886C38.4909 130.674 39.2811 131.035 39.5139 131.794C39.6565 132.505 39.295 133.295 38.6051 133.507Z" fill="#4CC326"/>
<path d="M37.865 131.093C38.4859 130.902 39.0479 131.258 39.2172 131.81C39.3865 132.361 39.0516 132.992 38.4997 133.162C37.8788 133.352 37.3167 132.996 37.1475 132.445C36.9782 131.893 37.244 131.283 37.865 131.093ZM37.738 130.679C36.9101 130.933 36.4318 131.834 36.6857 132.662C36.9396 133.489 37.8411 133.967 38.669 133.713C39.4969 133.459 39.9752 132.558 39.7213 131.73C39.4674 130.903 38.5659 130.425 37.738 130.679Z" fill="#141414"/>
<path d="M31.4996 153.645C30.8097 153.857 30.0195 153.496 29.7868 152.737C29.5752 152.047 29.9367 151.257 30.6956 151.025C31.3855 150.813 32.1757 151.174 32.4084 151.933C32.6412 152.691 32.2585 153.412 31.4996 153.645Z" fill="#4CC326"/>
<path d="M30.7802 151.3C31.4011 151.11 31.9631 151.466 32.1324 152.017C32.3017 152.569 31.9668 153.2 31.4149 153.369C30.794 153.56 30.232 153.204 30.0627 152.652C29.8934 152.101 30.2282 151.47 30.7802 151.3ZM30.632 150.818C29.8042 151.072 29.3258 151.973 29.5798 152.8C29.8337 153.628 30.7351 154.106 31.563 153.852C32.3909 153.598 32.8692 152.697 32.6153 151.869C32.3614 151.042 31.5289 150.542 30.632 150.818Z" fill="#141414"/>
<path d="M47.6207 161.904C46.9308 162.116 46.1406 161.755 45.9079 160.996C45.6963 160.306 46.0578 159.516 46.8167 159.283C47.5066 159.072 48.2968 159.433 48.5295 160.192C48.7411 160.881 48.3796 161.671 47.6207 161.904Z" fill="#4CC326"/>
<path d="M46.8796 159.49C47.5005 159.3 48.0626 159.655 48.2318 160.207C48.4223 160.828 48.0663 161.39 47.5144 161.559C46.8935 161.75 46.3314 161.394 46.1621 160.842C45.9929 160.29 46.3277 159.659 46.8796 159.49ZM46.7526 159.076C45.9248 159.33 45.4465 160.232 45.7004 161.059C45.9543 161.887 46.8558 162.365 47.6836 162.111C48.5115 161.857 48.9898 160.956 48.7359 160.128C48.482 159.3 47.5805 158.822 46.7526 159.076Z" fill="#141414"/>
<path d="M138.155 170.121C137.465 170.333 136.675 169.971 136.443 169.213C136.231 168.523 136.592 167.733 137.351 167.5C138.041 167.289 138.831 167.65 139.064 168.408C139.228 169.188 138.845 169.909 138.155 170.121Z" fill="#4CC326"/>
<path d="M137.435 167.776C138.056 167.585 138.618 167.941 138.788 168.493C138.978 169.114 138.622 169.676 138.07 169.845C137.449 170.035 136.887 169.68 136.718 169.128C136.48 168.597 136.815 167.966 137.435 167.776ZM137.287 167.293C136.459 167.547 135.981 168.448 136.235 169.276C136.489 170.104 137.39 170.582 138.218 170.328C139.046 170.074 139.524 169.172 139.271 168.345C139.017 167.517 138.115 167.039 137.287 167.293Z" fill="#141414"/>
<path d="M187.422 152.816C186.733 153.028 185.942 152.667 185.71 151.908C185.498 151.218 185.86 150.428 186.618 150.195C187.308 149.984 188.099 150.345 188.331 151.104C188.474 151.815 188.112 152.605 187.422 152.816Z" fill="#4CC326"/>
<path d="M186.682 150.404C187.302 150.213 187.864 150.569 188.034 151.121C188.224 151.741 187.868 152.303 187.316 152.473C186.695 152.663 186.133 152.308 185.964 151.756C185.726 151.225 186.061 150.594 186.682 150.404ZM186.533 149.921C185.706 150.175 185.227 151.076 185.481 151.904C185.735 152.732 186.637 153.21 187.464 152.956C188.292 152.702 188.771 151.8 188.517 150.973C188.263 150.145 187.361 149.667 186.533 149.921Z" fill="#141414"/>
<path d="M187.883 146.941C187.193 147.153 186.403 146.792 186.17 146.033C185.958 145.343 186.32 144.553 187.079 144.32C187.769 144.109 188.559 144.47 188.792 145.229C189.003 145.918 188.642 146.708 187.883 146.941Z" fill="#4CC326"/>
<path d="M187.163 144.596C187.784 144.406 188.346 144.761 188.516 145.313C188.685 145.865 188.35 146.496 187.798 146.665C187.177 146.856 186.615 146.5 186.446 145.948C186.277 145.396 186.612 144.766 187.163 144.596ZM187.015 144.113C186.187 144.367 185.709 145.269 185.963 146.096C186.217 146.924 187.118 147.402 187.946 147.148C188.774 146.894 189.253 145.993 188.999 145.165C188.745 144.337 187.843 143.859 187.015 144.113Z" fill="#141414"/>
<path d="M200.378 140.918C199.688 141.129 198.897 140.768 198.665 140.01C198.453 139.32 198.815 138.53 199.574 138.297C200.263 138.085 201.054 138.447 201.286 139.205C201.498 139.895 201.067 140.706 200.378 140.918Z" fill="#4CC326"/>
<path d="M199.637 138.505C200.258 138.315 200.82 138.671 200.989 139.222C201.159 139.774 200.824 140.405 200.272 140.574C199.651 140.765 199.089 140.409 198.92 139.857C198.75 139.306 199.016 138.696 199.637 138.505ZM199.489 138.023C198.661 138.277 198.183 139.178 198.437 140.006C198.691 140.833 199.592 141.311 200.42 141.057C201.248 140.803 201.726 139.902 201.472 139.074C201.218 138.247 200.317 137.769 199.489 138.023Z" fill="#141414"/>
<path d="M193.501 72.2517C192.811 72.4634 192.021 72.1022 191.788 71.3436C191.577 70.6539 191.938 69.8639 192.697 69.631C193.387 69.4194 194.177 69.7806 194.41 70.5392C194.621 71.2289 194.191 72.0401 193.501 72.2517Z" fill="#4CC326"/>
<path d="M192.76 69.8378C193.381 69.6473 193.943 70.0031 194.112 70.5548C194.281 71.1065 193.947 71.7374 193.395 71.9068C192.843 72.0761 192.212 71.7415 192.042 71.1898C191.873 70.638 192.139 70.0283 192.76 69.8378ZM192.633 69.424C191.805 69.678 191.327 70.5793 191.581 71.4069C191.835 72.2345 192.736 72.7125 193.564 72.4585C194.392 72.2045 194.87 71.3032 194.616 70.4756C194.362 69.648 193.461 69.17 192.633 69.424Z" fill="#141414"/>
<path d="M189.622 85.4373C188.932 85.649 188.142 85.2877 187.909 84.5291C187.697 83.8394 188.059 83.0494 188.818 82.8166C189.508 82.6049 190.298 82.9662 190.53 83.7248C190.763 84.4834 190.312 85.2256 189.622 85.4373Z" fill="#4CC326"/>
<path d="M188.902 83.0923C189.523 82.9018 190.085 83.2576 190.254 83.8093C190.444 84.43 190.088 84.9919 189.536 85.1613C188.916 85.3518 188.354 84.996 188.184 84.4443C187.946 83.9137 188.281 83.2828 188.902 83.0923ZM188.754 82.6095C187.926 82.8635 187.447 83.7649 187.701 84.5924C187.955 85.42 188.857 85.898 189.685 85.644C190.512 85.39 190.991 84.4887 190.737 83.6611C190.483 82.8335 189.582 82.3555 188.754 82.6095Z" fill="#141414"/>
<path d="M191.74 55.4363C191.05 55.648 190.26 55.2867 190.027 54.5281C189.815 53.8385 190.177 53.0484 190.936 52.8156C191.626 52.604 192.416 52.9652 192.649 53.7238C192.86 54.4135 192.43 55.2246 191.74 55.4363Z" fill="#4CC326"/>
<path d="M190.999 53.0224C191.62 52.8319 192.182 53.1876 192.351 53.7393C192.52 54.2911 192.185 54.922 191.634 55.0913C191.013 55.2818 190.451 54.9261 190.281 54.3743C190.112 53.8226 190.378 53.2129 190.999 53.0224ZM190.872 52.6086C190.044 52.8626 189.566 53.7639 189.819 54.5915C190.073 55.4191 190.975 55.897 191.803 55.6431C192.631 55.3891 193.109 54.4877 192.855 53.6601C192.601 52.8326 191.7 52.3546 190.872 52.6086Z" fill="#141414"/>
<path d="M154.684 22.739C153.994 22.9507 153.204 22.5895 152.971 21.8309C152.759 21.1412 153.121 20.3512 153.88 20.1183C154.57 19.9067 155.36 20.2679 155.592 21.0265C155.825 21.7852 155.443 22.5062 154.684 22.739Z" fill="#4CC326"/>
<path d="M153.965 20.3941C154.586 20.2036 155.148 20.5593 155.317 21.111C155.507 21.7317 155.151 22.2937 154.599 22.463C153.979 22.6535 153.417 22.2978 153.247 21.746C153.078 21.1943 153.413 20.5634 153.965 20.3941ZM153.817 19.9113C152.989 20.1653 152.51 21.0666 152.764 21.8942C153.018 22.7218 153.92 23.1998 154.748 22.9458C155.575 22.6918 156.054 21.7905 155.8 20.9629C155.615 20.1141 154.713 19.6361 153.817 19.9113Z" fill="#141414"/>
<path d="M100.368 38.3435C99.6779 38.5552 98.8877 38.194 98.6549 37.4353C98.4434 36.7457 98.8049 35.9557 99.5637 35.7228C100.254 35.5112 101.044 35.8724 101.277 36.631C101.488 37.3207 101.127 38.1107 100.368 38.3435Z" fill="#4CC326"/>
<path d="M99.6273 35.9312C100.248 35.7407 100.81 36.0964 100.98 36.6482C101.17 37.2688 100.814 37.8308 100.262 38.0001C99.6412 38.1906 99.0791 37.8349 98.9098 37.2831C98.7406 36.7314 99.0754 36.1005 99.6273 35.9312ZM99.4792 35.4484C98.6513 35.7024 98.173 36.6037 98.4269 37.4313C98.6808 38.2589 99.5823 38.7369 100.41 38.4829C101.238 38.2289 101.716 37.3276 101.462 36.5C101.209 35.6724 100.307 35.1944 99.4792 35.4484Z" fill="#141414"/>
<path d="M121.867 42.24C121.177 42.4517 120.387 42.0905 120.154 41.3318C119.943 40.6422 120.304 39.8522 121.063 39.6193C121.753 39.4077 122.543 39.7689 122.776 40.5275C122.988 41.2172 122.626 42.0072 121.867 42.24Z" fill="#4CC326"/>
<path d="M121.148 39.895C121.769 39.7045 122.331 40.0603 122.5 40.612C122.69 41.2327 122.335 41.7947 121.783 41.964C121.162 42.1545 120.6 41.7987 120.43 41.247C120.24 40.6263 120.596 40.0644 121.148 39.895ZM121 39.4123C120.172 39.6663 119.694 40.5676 119.947 41.3952C120.201 42.2228 121.103 42.7008 121.931 42.4468C122.759 42.1928 123.237 41.2914 122.983 40.4639C122.798 39.6151 121.897 39.1371 121 39.4123Z" fill="#141414"/>
<path d="M80.5587 54.2322C79.8688 54.4439 79.0786 54.0826 78.8459 53.324C78.6343 52.6344 78.9958 51.8443 79.7547 51.6115C80.5136 51.3787 81.2347 51.7611 81.4675 52.5197C81.6791 53.2094 81.2486 54.0205 80.5587 54.2322Z" fill="#4CC326"/>
<path d="M79.8182 51.8198C80.4391 51.6293 81.0012 51.9851 81.1705 52.5368C81.3397 53.0886 81.0049 53.7195 80.453 53.8888C79.9011 54.0581 79.2222 53.8137 79.0529 53.2619C78.8837 52.7102 79.1973 52.0103 79.8182 51.8198ZM79.6701 51.3371C78.8422 51.5911 78.3639 52.4924 78.6178 53.32C78.8717 54.1476 79.7732 54.6256 80.6011 54.3716C81.429 54.1176 81.9073 53.2163 81.6534 52.3887C81.3995 51.5611 80.498 51.0831 79.6701 51.3371Z" fill="#141414"/>
<path d="M73.5138 36.9275C72.8239 37.1392 72.0337 36.778 71.8009 36.0193C71.5894 35.3297 71.9508 34.5397 72.7097 34.3068C73.3996 34.0952 74.1898 34.4564 74.4226 35.215C74.5863 35.9948 74.2037 36.7159 73.5138 36.9275Z" fill="#4CC326"/>
<path d="M72.794 34.5819C73.4149 34.3914 73.9769 34.7471 74.1462 35.2989C74.3366 35.9196 73.9807 36.4815 73.4287 36.6508C72.8078 36.8413 72.2458 36.4856 72.0765 35.9339C71.8382 35.4033 72.1731 34.7724 72.794 34.5819ZM72.6459 34.0991C71.749 34.3743 71.2707 35.2756 71.5246 36.1032C71.7785 36.9308 72.68 37.4088 73.5078 37.1548C74.3357 36.9008 74.814 35.9995 74.5601 35.1719C74.3752 34.3231 73.4737 33.8451 72.6459 34.0991Z" fill="#141414"/>
<path d="M204.202 171.588C203.512 171.799 202.722 171.438 202.489 170.679C202.278 169.99 202.639 169.2 203.398 168.967C204.088 168.755 204.878 169.117 205.111 169.875C205.323 170.565 204.892 171.376 204.202 171.588Z" fill="#4CC326"/>
<path d="M203.483 169.245C204.104 169.054 204.666 169.41 204.835 169.962C205.025 170.582 204.669 171.144 204.118 171.314C203.497 171.504 202.935 171.148 202.765 170.597C202.527 170.066 202.862 169.435 203.483 169.245ZM203.335 168.762C202.507 169.016 202.028 169.917 202.282 170.745C202.536 171.572 203.438 172.05 204.266 171.796C205.094 171.542 205.572 170.641 205.318 169.813C205.064 168.986 204.163 168.508 203.335 168.762Z" fill="#141414"/>
<g clip-path="url(#clip0_2_7885)">
<g filter="url(#filter3_b_2_7885)">
<path d="M107.641 90.1514L105.463 111.994L124.646 119.037L144.089 110.327L140.667 88.9374L123.672 77.0479L107.641 90.1514Z" fill="url(#paint3_linear_2_7885)"/>
</g>
<g filter="url(#filter4_b_2_7885)">
<path d="M96.9609 69.041L81.4219 80.4489V96.2213L93.5581 106.415L107.642 90.1513L111.526 72.4325L96.9609 69.041Z" fill="url(#paint4_linear_2_7885)"/>
</g>
<g filter="url(#filter5_b_2_7885)">
<path d="M134.594 71.4692L140.667 88.9374L154.268 103.987L163.734 95.0075L162.876 78.2908L147.463 67.8271L134.594 71.4692Z" fill="url(#paint5_linear_2_7885)"/>
</g>
<g filter="url(#filter6_b_2_7885)">
<path d="M105.704 124.375L108.374 140.88L124.646 149.378L141.399 140.639L144.552 123.161L124.646 119.037L105.704 124.375Z" fill="url(#paint6_linear_2_7885)"/>
</g>
<g filter="url(#filter7_b_2_7885)">
<path d="M81.4218 96.2214L87.2441 115.154L81.4218 127.285L77.2864 125.83L72.6787 112.485V103.746L75.8309 89.4287L81.4218 96.2214Z" fill="url(#paint7_linear_2_7885)"/>
</g>
<g filter="url(#filter8_b_2_7885)">
<path d="M168.091 89.5645L163.734 95.0082L160.823 112.727L164.226 124.135L167.147 123.152L170.048 112.727V100.105L168.091 89.5645Z" fill="url(#paint8_linear_2_7885)"/>
</g>
<g filter="url(#filter9_b_2_7885)">
<path d="M82.3858 133.596L81.4219 127.285L93.7991 126.804L108.374 140.88L113.29 150.381L103.516 149.619L92.8351 144.282L82.3858 133.596Z" fill="url(#paint9_linear_2_7885)"/>
</g>
<g filter="url(#filter10_b_2_7885)">
<path d="M135.008 149.658L141.399 140.64L154.268 124.617L164.226 124.135V129.232L157.661 137.971L149.169 144.763L143.096 148.646L135.008 149.658Z" fill="url(#paint10_linear_2_7885)"/>
</g>
<g filter="url(#filter11_b_2_7885)">
<path d="M120.077 55.9668L115.652 64.4263L96.9609 69.0415L84.333 73.8975L93.5581 63.7037L107.882 57.1519L120.077 55.9668Z" fill="url(#paint11_linear_2_7885)"/>
</g>
<g filter="url(#filter12_b_2_7885)">
<path d="M120.597 55.9668L128.039 62.9714L147.463 67.8275L153.892 68.0684L146.248 62.2488L133.138 57.3928L120.597 55.9668Z" fill="url(#paint12_linear_2_7885)"/>
</g>
<path d="M124.665 119.538L124.569 119.5L105.212 112.399L105.232 112.216L107.43 90.2769L123.672 76.9902L140.908 89.0436L144.368 110.713L124.665 119.538ZM105.733 112.081L124.646 119.018L143.829 110.424L140.455 89.323L123.701 77.5876L107.892 90.5178L105.733 112.081Z" fill="#4CC326"/>
<path d="M93.6062 106.994L81.1904 96.5786V80.5652L96.9222 69.0225L111.835 72.5007L111.786 72.7319L107.892 90.5085L107.853 90.5567L93.6062 106.994ZM81.6724 96.3473L93.5484 106.32L107.439 90.2869L111.256 72.8572L97.0283 69.5428L81.6724 80.8157V96.3473Z" fill="#4CC326"/>
<path d="M154.268 104.576L140.474 89.3043L140.455 89.2561L134.305 71.5373L147.521 67.8086L147.617 67.876L163.117 78.4071L163.127 78.5227L163.995 95.3454L154.268 104.576ZM140.898 89.0538L154.297 103.882L163.503 95.1527L162.655 78.6672L147.443 68.3289L134.931 71.8649L140.898 89.0538Z" fill="#4CC326"/>
<path d="M124.655 149.889L124.539 149.831L108.162 141.285L105.443 124.443L124.645 119.028L144.84 123.21L141.621 141.035L124.655 149.889ZM108.605 140.967L124.655 149.35L141.197 140.726L144.291 123.595L124.665 119.529L105.983 124.79L108.605 140.967Z" fill="#4CC326"/>
<path d="M81.5567 127.825L77.1128 126.254L77.0743 126.149L72.4473 112.766V103.959L75.7151 89.1309L81.6434 96.3475L81.6531 96.3956L87.5043 115.415L87.4657 115.502L81.5567 127.825ZM77.4984 125.888L81.3157 127.237L87.0127 115.386L81.2289 96.5883L75.985 90.21L72.9292 104.017V112.688L77.4984 125.888Z" fill="#4CC326"/>
<path d="M164.081 124.684L160.592 112.987L160.601 112.929L163.522 95.1523L168.246 89.2461L170.308 100.355V112.996L170.299 113.025L167.368 123.576L164.081 124.684ZM161.083 112.948L164.399 124.067L166.973 123.209L169.827 112.939V100.365L167.966 90.3638L163.975 95.345L161.083 112.948Z" fill="#4CC326"/>
<path d="M113.724 150.901L103.467 150.091L103.429 150.072L92.7097 144.715L92.6808 144.686L82.1833 133.953L81.1519 127.305L93.905 126.804L93.9821 126.871L108.576 140.977L113.724 150.901ZM103.593 149.619L112.895 150.352L108.191 141.266L93.7219 127.285L81.711 127.758L82.6267 133.722L92.9893 144.32L103.593 149.619Z" fill="#4CC326"/>
<path d="M134.507 150.207L141.226 140.736L154.162 124.636L164.476 124.135V129.569L157.854 138.395L157.835 138.414L149.323 145.216L149.313 145.226L143.192 149.138L134.507 150.207ZM141.602 141.025L135.529 149.59L143.028 148.656L149.043 144.811L157.507 138.038L163.994 129.386V124.626L154.403 125.098L141.602 141.025Z" fill="#4CC326"/>
<path d="M83.4941 74.7266L93.4325 63.7427L107.844 57.1524H107.882L120.52 55.9287L115.845 64.8796L97.057 69.5141L83.4941 74.7266ZM93.7217 64.1377L85.2003 73.5511L96.8932 69.0516L115.498 64.4653L119.662 56.4972L107.969 57.6245L93.7217 64.1377Z" fill="#4CC326"/>
<path d="M154.663 68.5789L147.453 68.2995L127.933 63.4339L119.922 55.8896L133.215 57.3927L133.244 57.4023L146.393 62.268L146.422 62.2873L154.663 68.5789ZM147.52 67.8274L153.16 68.0394L146.152 62.7016L133.1 57.8648L121.31 56.5352L128.174 62.9906L147.52 67.8274Z" fill="#4CC326"/>
<path d="M77.5123 125.934L77.1094 126.198L82.2082 133.963L82.6111 133.699L77.5123 125.934Z" fill="#4CC326"/>
<path d="M122.284 154.099H122.265L113.474 153.367L113.445 153.357L103.458 150.091L103.603 149.629L113.57 152.895L122.284 153.617L132.772 152.895L143.019 148.665L143.202 149.108L132.888 153.367H132.839L122.284 154.099Z" fill="#4CC326"/>
<path d="M76.0718 89.7565L75.6284 89.5831L79.2818 79.871L84.8342 73.165L85.2102 73.4734L79.706 80.1215L76.0718 89.7565Z" fill="#4CC326"/>
<path d="M167.889 89.9018L162.896 78.6674L153.834 68.5795L154.191 68.252L163.301 78.4072L168.323 89.7091L167.889 89.9018Z" fill="#4CC326"/>
<path d="M166.94 123.295L163.763 129.743L164.196 129.956L167.372 123.508L166.94 123.295Z" fill="#4CC326"/>
<path d="M94.1366 128.365C94.7595 128.365 95.2644 127.86 95.2644 127.238C95.2644 126.615 94.7595 126.11 94.1366 126.11C93.5137 126.11 93.0088 126.615 93.0088 127.238C93.0088 127.86 93.5137 128.365 94.1366 128.365Z" fill="#4CC326"/>
<path d="M94.1365 126.12C94.7534 126.12 95.2643 126.621 95.2643 127.247C95.2643 127.873 94.763 128.374 94.1365 128.374C93.5195 128.374 93.0086 127.873 93.0086 127.247C93.0086 126.621 93.5099 126.12 94.1365 126.12ZM94.1365 125.734C93.3075 125.734 92.623 126.409 92.623 127.247C92.623 128.085 93.2978 128.76 94.1365 128.76C94.9751 128.76 95.6499 128.085 95.6499 127.247C95.6499 126.409 94.9655 125.734 94.1365 125.734Z" fill="#141414"/>
<path d="M124.569 150.824C125.192 150.824 125.697 150.319 125.697 149.697C125.697 149.074 125.192 148.569 124.569 148.569C123.946 148.569 123.441 149.074 123.441 149.697C123.441 150.319 123.946 150.824 124.569 150.824Z" fill="#4CC326"/>
<path d="M124.569 148.569C125.186 148.569 125.696 149.07 125.696 149.696C125.696 150.323 125.195 150.824 124.569 150.824C123.952 150.824 123.441 150.323 123.441 149.696C123.441 149.07 123.952 148.569 124.569 148.569ZM124.569 148.184C123.74 148.184 123.055 148.858 123.055 149.696C123.055 150.535 123.73 151.209 124.569 151.209C125.407 151.209 126.082 150.535 126.082 149.696C126.082 148.858 125.398 148.184 124.569 148.184Z" fill="#141414"/>
<path d="M87.1767 116.495C87.7995 116.495 88.3045 115.99 88.3045 115.368C88.3045 114.745 87.7995 114.24 87.1767 114.24C86.5538 114.24 86.0488 114.745 86.0488 115.368C86.0488 115.99 86.5538 116.495 87.1767 116.495Z" fill="#4CC326"/>
<path d="M87.1765 114.24C87.7934 114.24 88.3043 114.741 88.3043 115.367C88.3043 115.984 87.8031 116.494 87.1765 116.494C86.5596 116.494 86.0487 115.993 86.0487 115.367C86.0487 114.741 86.5596 114.24 87.1765 114.24ZM87.1765 113.854C86.3475 113.854 85.6631 114.529 85.6631 115.367C85.6631 116.205 86.3379 116.88 87.1765 116.88C88.0151 116.88 88.6899 116.205 88.6899 115.367C88.6899 114.529 88.0055 113.854 87.1765 113.854Z" fill="#141414"/>
<path d="M154.567 126.197C155.19 126.197 155.695 125.692 155.695 125.07C155.695 124.447 155.19 123.942 154.567 123.942C153.944 123.942 153.439 124.447 153.439 125.07C153.439 125.692 153.944 126.197 154.567 126.197Z" fill="#4CC326"/>
<path d="M154.567 123.942C155.184 123.942 155.694 124.443 155.694 125.069C155.694 125.696 155.193 126.197 154.567 126.197C153.95 126.197 153.439 125.696 153.439 125.069C153.439 124.443 153.95 123.942 154.567 123.942ZM154.567 123.557C153.738 123.557 153.053 124.231 153.053 125.069C153.053 125.908 153.728 126.582 154.567 126.582C155.405 126.582 156.08 125.908 156.08 125.069C156.08 124.231 155.396 123.557 154.567 123.557Z" fill="#141414"/>
<path d="M93.558 108.092C94.1809 108.092 94.6858 107.588 94.6858 106.965C94.6858 106.343 94.1809 105.838 93.558 105.838C92.9351 105.838 92.4302 106.343 92.4302 106.965C92.4302 107.588 92.9351 108.092 93.558 108.092Z" fill="#4CC326"/>
<path d="M93.5578 105.838C94.1748 105.838 94.6857 106.339 94.6857 106.965C94.6857 107.581 94.1844 108.092 93.5578 108.092C92.9409 108.092 92.43 107.591 92.43 106.965C92.43 106.339 92.9313 105.838 93.5578 105.838ZM93.5578 105.452C92.7288 105.452 92.0444 106.127 92.0444 106.965C92.0444 107.803 92.7192 108.478 93.5578 108.478C94.3965 108.478 95.0713 107.803 95.0713 106.965C95.0713 106.127 94.3869 105.452 93.5578 105.452Z" fill="#141414"/>
<path d="M140.946 141.989C141.569 141.989 142.074 141.484 142.074 140.862C142.074 140.239 141.569 139.734 140.946 139.734C140.323 139.734 139.818 140.239 139.818 140.862C139.818 141.484 140.323 141.989 140.946 141.989Z" fill="#4CC326"/>
<path d="M140.946 139.734C141.563 139.734 142.074 140.235 142.074 140.861C142.074 141.488 141.573 141.989 140.946 141.989C140.319 141.989 139.818 141.488 139.818 140.861C139.818 140.235 140.319 139.734 140.946 139.734ZM140.946 139.349C140.117 139.349 139.433 140.023 139.433 140.861C139.433 141.7 140.107 142.374 140.946 142.374C141.785 142.374 142.459 141.7 142.459 140.861C142.459 140.023 141.775 139.349 140.946 139.349Z" fill="#141414"/>
<path d="M108.48 142.423C109.103 142.423 109.608 141.918 109.608 141.295C109.608 140.673 109.103 140.168 108.48 140.168C107.857 140.168 107.353 140.673 107.353 141.295C107.353 141.918 107.857 142.423 108.48 142.423Z" fill="#4CC326"/>
<path d="M108.48 140.168C109.097 140.168 109.608 140.669 109.608 141.295C109.608 141.921 109.107 142.422 108.48 142.422C107.863 142.422 107.352 141.921 107.352 141.295C107.352 140.669 107.863 140.168 108.48 140.168ZM108.48 139.782C107.651 139.782 106.967 140.457 106.967 141.295C106.967 142.133 107.642 142.808 108.48 142.808C109.319 142.808 109.994 142.133 109.994 141.295C109.994 140.457 109.319 139.782 108.48 139.782Z" fill="#141414"/>
<path d="M106.022 125.763C106.645 125.763 107.15 125.259 107.15 124.636C107.15 124.013 106.645 123.509 106.022 123.509C105.399 123.509 104.894 124.013 104.894 124.636C104.894 125.259 105.399 125.763 106.022 125.763Z" fill="#4CC326"/>
<path d="M106.022 123.508C106.639 123.508 107.15 124.009 107.15 124.636C107.15 125.252 106.648 125.763 106.022 125.763C105.405 125.763 104.894 125.262 104.894 124.636C104.894 124.009 105.395 123.508 106.022 123.508ZM106.022 123.123C105.193 123.123 104.508 123.797 104.508 124.636C104.508 125.474 105.183 126.148 106.022 126.148C106.86 126.148 107.535 125.474 107.535 124.636C107.535 123.797 106.851 123.123 106.022 123.123Z" fill="#141414"/>
<path d="M163.551 97.3688C164.174 97.3688 164.679 96.8641 164.679 96.2416C164.679 95.619 164.174 95.1143 163.551 95.1143C162.928 95.1143 162.423 95.619 162.423 96.2416C162.423 96.8641 162.928 97.3688 163.551 97.3688Z" fill="#4CC326"/>
<path d="M163.551 95.1139C164.168 95.1139 164.679 95.6149 164.679 96.2412C164.679 96.8579 164.178 97.3685 163.551 97.3685C162.934 97.3685 162.423 96.8675 162.423 96.2412C162.433 95.6246 162.934 95.1139 163.551 95.1139ZM163.551 94.7285C162.722 94.7285 162.038 95.403 162.038 96.2412C162.038 97.0698 162.712 97.7539 163.551 97.7539C164.39 97.7539 165.064 97.0795 165.064 96.2412C165.064 95.4126 164.39 94.7285 163.551 94.7285Z" fill="#141414"/>
<path d="M105.733 113.305C106.356 113.305 106.861 112.801 106.861 112.178C106.861 111.555 106.356 111.051 105.733 111.051C105.11 111.051 104.605 111.555 104.605 112.178C104.605 112.801 105.11 113.305 105.733 113.305Z" fill="#4CC326"/>
<path d="M105.733 111.05C106.35 111.05 106.86 111.551 106.86 112.178C106.86 112.794 106.359 113.305 105.733 113.305C105.116 113.305 104.605 112.804 104.605 112.178C104.605 111.551 105.106 111.05 105.733 111.05ZM105.733 110.665C104.904 110.665 104.219 111.339 104.219 112.178C104.219 113.016 104.894 113.69 105.733 113.69C106.571 113.69 107.246 113.016 107.246 112.178C107.246 111.339 106.562 110.665 105.733 110.665Z" fill="#141414"/>
<path d="M72.5438 113.883C73.1667 113.883 73.6717 113.379 73.6717 112.756C73.6717 112.134 73.1667 111.629 72.5438 111.629C71.921 111.629 71.416 112.134 71.416 112.756C71.416 113.379 71.921 113.883 72.5438 113.883Z" fill="#4CC326"/>
<path d="M72.5437 111.629C73.1606 111.629 73.6715 112.13 73.6715 112.756C73.6715 113.382 73.1703 113.883 72.5437 113.883C71.9268 113.883 71.4159 113.382 71.4159 112.756C71.4159 112.13 71.9171 111.629 72.5437 111.629ZM72.5437 111.243C71.7147 111.243 71.0303 111.918 71.0303 112.756C71.0303 113.594 71.705 114.269 72.5437 114.269C73.3823 114.269 74.0571 113.594 74.0571 112.756C74.0571 111.918 73.3727 111.243 72.5437 111.243Z" fill="#141414"/>
<path d="M81.6728 128.519C82.2956 128.519 82.8006 128.015 82.8006 127.392C82.8006 126.769 82.2956 126.265 81.6728 126.265C81.0499 126.265 80.5449 126.769 80.5449 127.392C80.5449 128.015 81.0499 128.519 81.6728 128.519Z" fill="#4CC326"/>
<path d="M81.6726 126.264C82.2895 126.264 82.8004 126.765 82.8004 127.392C82.8004 128.018 82.2992 128.519 81.6726 128.519C81.0557 128.519 80.5448 128.018 80.5448 127.392C80.5448 126.765 81.046 126.264 81.6726 126.264ZM81.6726 125.879C80.8436 125.879 80.1592 126.553 80.1592 127.392C80.1592 128.23 80.834 128.904 81.6726 128.904C82.5112 128.904 83.186 128.23 83.186 127.392C83.186 126.553 82.5016 125.879 81.6726 125.879Z" fill="#141414"/>
<path d="M113.262 151.547C113.885 151.547 114.389 151.042 114.389 150.419C114.389 149.797 113.885 149.292 113.262 149.292C112.639 149.292 112.134 149.797 112.134 150.419C112.134 151.042 112.639 151.547 113.262 151.547Z" fill="#4CC326"/>
<path d="M113.261 149.292C113.878 149.292 114.389 149.793 114.389 150.419C114.389 151.045 113.888 151.546 113.261 151.546C112.645 151.546 112.134 151.045 112.134 150.419C112.134 149.793 112.645 149.292 113.261 149.292ZM113.261 148.906C112.432 148.906 111.748 149.581 111.748 150.419C111.748 151.257 112.423 151.932 113.261 151.932C114.1 151.932 114.775 151.257 114.775 150.419C114.775 149.581 114.1 148.906 113.261 148.906Z" fill="#141414"/>
<path d="M81.8173 82.0104C82.4402 82.0104 82.9451 81.5057 82.9451 80.8832C82.9451 80.2606 82.4402 79.7559 81.8173 79.7559C81.1944 79.7559 80.6895 80.2606 80.6895 80.8832C80.6895 81.5057 81.1944 82.0104 81.8173 82.0104Z" fill="#4CC326"/>
<path d="M81.8171 79.7653C82.4341 79.7653 82.945 80.2663 82.945 80.8926C82.945 81.5189 82.4437 82.0199 81.8171 82.0199C81.1906 82.0199 80.6893 81.5189 80.6893 80.8926C80.6893 80.2663 81.1906 79.7653 81.8171 79.7653ZM81.8171 79.3799C80.9881 79.3799 80.3037 80.0543 80.3037 80.8926C80.3037 81.7308 80.9785 82.4053 81.8171 82.4053C82.6558 82.4053 83.3305 81.7308 83.3305 80.8926C83.3305 80.0543 82.6461 79.3799 81.8171 79.3799Z" fill="#141414"/>
<path d="M168.621 91.1442C169.244 91.1442 169.749 90.6395 169.749 90.0169C169.749 89.3944 169.244 88.8896 168.621 88.8896C167.999 88.8896 167.494 89.3944 167.494 90.0169C167.494 90.6395 167.999 91.1442 168.621 91.1442Z" fill="#4CC326"/>
<path d="M168.621 88.8893C169.238 88.8893 169.749 89.3903 169.749 90.0166C169.749 90.6332 169.248 91.1439 168.621 91.1439C168.004 91.1439 167.493 90.6429 167.493 90.0166C167.503 89.3903 168.004 88.8893 168.621 88.8893ZM168.621 88.5039C167.792 88.5039 167.108 89.1784 167.108 90.0166C167.108 90.8452 167.783 91.5293 168.621 91.5293C169.46 91.5293 170.135 90.8548 170.135 90.0166C170.135 89.1784 169.46 88.5039 168.621 88.5039Z" fill="#141414"/>
<path d="M72.9774 103.891C73.6003 103.891 74.1053 103.387 74.1053 102.764C74.1053 102.141 73.6003 101.637 72.9774 101.637C72.3546 101.637 71.8496 102.141 71.8496 102.764C71.8496 103.387 72.3546 103.891 72.9774 103.891Z" fill="#4CC326"/>
<path d="M72.9773 101.636C73.5942 101.636 74.1051 102.137 74.1051 102.764C74.1051 103.38 73.6039 103.891 72.9773 103.891C72.3603 103.891 71.8495 103.39 71.8495 102.764C71.8495 102.137 72.3507 101.636 72.9773 101.636ZM72.9773 101.251C72.1483 101.251 71.4639 101.925 71.4639 102.764C71.4639 103.602 72.1386 104.276 72.9773 104.276C73.8159 104.276 74.4907 103.602 74.4907 102.764C74.4907 101.925 73.8063 101.251 72.9773 101.251Z" fill="#141414"/>
<path d="M81.5277 97.6579C82.1506 97.6579 82.6556 97.1532 82.6556 96.5306C82.6556 95.908 82.1506 95.4033 81.5277 95.4033C80.9048 95.4033 80.3999 95.908 80.3999 96.5306C80.3999 97.1532 80.9048 97.6579 81.5277 97.6579Z" fill="#4CC326"/>
<path d="M81.5276 95.4127C82.1445 95.4127 82.6554 95.9138 82.6554 96.54C82.6554 97.1663 82.1541 97.6673 81.5276 97.6673C80.9106 97.6673 80.3997 97.1663 80.3997 96.54C80.3997 95.9138 80.901 95.4127 81.5276 95.4127ZM81.5276 95.0273C80.6986 95.0273 80.0142 95.7018 80.0142 96.54C80.0142 97.3783 80.6889 98.0527 81.5276 98.0527C82.3662 98.0527 83.041 97.3783 83.041 96.54C83.041 95.7018 82.3566 95.0273 81.5276 95.0273Z" fill="#141414"/>
<path d="M107.034 58.694C107.657 58.694 108.162 58.1893 108.162 57.5667C108.162 56.9442 107.657 56.4395 107.034 56.4395C106.411 56.4395 105.906 56.9442 105.906 57.5667C105.906 58.1893 106.411 58.694 107.034 58.694Z" fill="#4CC326"/>
<path d="M107.034 56.4391C107.651 56.4391 108.162 56.9401 108.162 57.5664C108.162 58.1927 107.66 58.6937 107.034 58.6937C106.417 58.6937 105.906 58.1927 105.906 57.5664C105.906 56.9401 106.407 56.4391 107.034 56.4391ZM107.034 56.0537C106.205 56.0537 105.521 56.7282 105.521 57.5664C105.521 58.4047 106.195 59.0791 107.034 59.0791C107.873 59.0791 108.547 58.4047 108.547 57.5664C108.547 56.7282 107.863 56.0537 107.034 56.0537Z" fill="#141414"/>
<path d="M93.7025 65.6501C94.3254 65.6501 94.8304 65.1454 94.8304 64.5228C94.8304 63.9002 94.3254 63.3955 93.7025 63.3955C93.0797 63.3955 92.5747 63.9002 92.5747 64.5228C92.5747 65.1454 93.0797 65.6501 93.7025 65.6501Z" fill="#4CC326"/>
<path d="M93.7024 63.3952C94.3193 63.3952 94.8302 63.8962 94.8302 64.5225C94.8302 65.1487 94.329 65.6498 93.7024 65.6498C93.0854 65.6498 92.5745 65.1487 92.5745 64.5225C92.5745 63.8962 93.0758 63.3952 93.7024 63.3952ZM93.7024 63.0098C92.8734 63.0098 92.189 63.6842 92.189 64.5225C92.189 65.3607 92.8637 66.0352 93.7024 66.0352C94.541 66.0352 95.2158 65.3607 95.2158 64.5225C95.2158 63.6842 94.5314 63.0098 93.7024 63.0098Z" fill="#141414"/>
<path d="M124.858 120.261C125.481 120.261 125.986 119.757 125.986 119.134C125.986 118.512 125.481 118.007 124.858 118.007C124.235 118.007 123.73 118.512 123.73 119.134C123.73 119.757 124.235 120.261 124.858 120.261Z" fill="#4CC326"/>
<path d="M124.858 118.006C125.475 118.006 125.985 118.508 125.985 119.134C125.985 119.76 125.484 120.261 124.858 120.261C124.241 120.261 123.73 119.76 123.73 119.134C123.73 118.508 124.241 118.006 124.858 118.006ZM124.858 117.621C124.029 117.621 123.344 118.296 123.344 119.134C123.344 119.972 124.019 120.646 124.858 120.646C125.696 120.646 126.371 119.972 126.371 119.134C126.371 118.296 125.687 117.621 124.858 117.621Z" fill="#141414"/>
<path d="M144.715 124.607C145.338 124.607 145.843 124.102 145.843 123.48C145.843 122.857 145.338 122.353 144.715 122.353C144.092 122.353 143.587 122.857 143.587 123.48C143.587 124.102 144.092 124.607 144.715 124.607Z" fill="#4CC326"/>
<path d="M144.715 122.352C145.332 122.352 145.843 122.853 145.843 123.479C145.843 124.106 145.342 124.607 144.715 124.607C144.098 124.607 143.587 124.106 143.587 123.479C143.587 122.853 144.089 122.352 144.715 122.352ZM144.715 121.967C143.886 121.967 143.202 122.641 143.202 123.479C143.202 124.318 143.876 124.992 144.715 124.992C145.554 124.992 146.228 124.318 146.228 123.479C146.228 122.641 145.544 121.967 144.715 121.967Z" fill="#141414"/>
<path d="M111.526 74.197C112.149 74.197 112.654 73.6923 112.654 73.0697C112.654 72.4471 112.149 71.9424 111.526 71.9424C110.903 71.9424 110.398 72.4471 110.398 73.0697C110.398 73.6923 110.903 74.197 111.526 74.197Z" fill="#4CC326"/>
<path d="M111.526 71.942C112.143 71.942 112.654 72.4431 112.654 73.0693C112.654 73.686 112.153 74.1966 111.526 74.1966C110.9 74.1966 110.398 73.6956 110.398 73.0693C110.398 72.4431 110.9 71.942 111.526 71.942ZM111.526 71.5566C110.697 71.5566 110.013 72.2311 110.013 73.0693C110.013 73.9076 110.687 74.582 111.526 74.582C112.365 74.582 113.04 73.9076 113.04 73.0693C113.04 72.2311 112.355 71.5566 111.526 71.5566Z" fill="#141414"/>
<path d="M143.848 111.86C144.47 111.86 144.975 111.355 144.975 110.733C144.975 110.11 144.47 109.605 143.848 109.605C143.225 109.605 142.72 110.11 142.72 110.733C142.72 111.355 143.225 111.86 143.848 111.86Z" fill="#4CC326"/>
<path d="M143.847 109.605C144.464 109.605 144.975 110.106 144.975 110.732C144.975 111.359 144.474 111.86 143.847 111.86C143.23 111.86 142.72 111.359 142.72 110.732C142.72 110.106 143.221 109.605 143.847 109.605ZM143.847 109.22C143.018 109.22 142.334 109.894 142.334 110.732C142.334 111.571 143.009 112.245 143.847 112.245C144.686 112.245 145.361 111.571 145.361 110.732C145.361 109.894 144.676 109.22 143.847 109.22Z" fill="#141414"/>
<path d="M107.613 91.5778C108.236 91.5778 108.741 91.0731 108.741 90.4505C108.741 89.828 108.236 89.3232 107.613 89.3232C106.99 89.3232 106.485 89.828 106.485 90.4505C106.485 91.0731 106.99 91.5778 107.613 91.5778Z" fill="#4CC326"/>
<path d="M107.613 89.3229C108.229 89.3229 108.74 89.8239 108.74 90.4502C108.74 91.0765 108.239 91.5775 107.613 91.5775C106.996 91.5775 106.485 91.0765 106.485 90.4502C106.485 89.8239 106.996 89.3229 107.613 89.3229ZM107.613 88.9375C106.784 88.9375 106.099 89.612 106.099 90.4502C106.099 91.2884 106.774 91.9629 107.613 91.9629C108.451 91.9629 109.126 91.2884 109.126 90.4502C109.126 89.612 108.442 88.9375 107.613 88.9375Z" fill="#141414"/>
<path d="M154.278 105.192C154.901 105.192 155.406 104.687 155.406 104.065C155.406 103.442 154.901 102.938 154.278 102.938C153.655 102.938 153.15 103.442 153.15 104.065C153.15 104.687 153.655 105.192 154.278 105.192Z" fill="#4CC326"/>
<path d="M154.278 102.937C154.895 102.937 155.405 103.438 155.405 104.064C155.405 104.691 154.895 105.192 154.278 105.192C153.661 105.192 153.15 104.691 153.15 104.064C153.15 103.438 153.661 102.937 154.278 102.937ZM154.278 102.552C153.449 102.552 152.764 103.226 152.764 104.064C152.764 104.903 153.439 105.577 154.278 105.577C155.116 105.577 155.791 104.903 155.791 104.064C155.791 103.226 155.107 102.552 154.278 102.552Z" fill="#141414"/>
<path d="M128.338 64.6286C128.961 64.6286 129.466 64.1239 129.466 63.5013C129.466 62.8787 128.961 62.374 128.338 62.374C127.715 62.374 127.21 62.8787 127.21 63.5013C127.21 64.1239 127.715 64.6286 128.338 64.6286Z" fill="#4CC326"/>
<path d="M128.338 62.3834C128.955 62.3834 129.465 62.8845 129.465 63.5107C129.465 64.1274 128.964 64.638 128.338 64.638C127.711 64.638 127.21 64.137 127.21 63.5107C127.21 62.8845 127.711 62.3834 128.338 62.3834ZM128.338 61.998C127.509 61.998 126.824 62.6725 126.824 63.5107C126.824 64.349 127.499 65.0234 128.338 65.0234C129.176 65.0234 129.851 64.349 129.851 63.5107C129.851 62.6725 129.167 61.998 128.338 61.998Z" fill="#141414"/>
<path d="M140.657 90.1228C141.28 90.1228 141.785 89.618 141.785 88.9955C141.785 88.3729 141.28 87.8682 140.657 87.8682C140.034 87.8682 139.529 88.3729 139.529 88.9955C139.529 89.618 140.034 90.1228 140.657 90.1228Z" fill="#4CC326"/>
<path d="M140.657 87.8776C141.274 87.8776 141.785 88.3786 141.785 89.0049C141.785 89.6215 141.284 90.1322 140.657 90.1322C140.04 90.1322 139.529 89.6312 139.529 89.0049C139.529 88.3786 140.03 87.8776 140.657 87.8776ZM140.657 87.4922C139.828 87.4922 139.144 88.1666 139.144 89.0049C139.144 89.8431 139.818 90.5176 140.657 90.5176C141.496 90.5176 142.17 89.8431 142.17 89.0049C142.17 88.1666 141.486 87.4922 140.657 87.4922Z" fill="#141414"/>
<path d="M120.366 57.5378C120.989 57.5378 121.493 57.0331 121.493 56.4105C121.493 55.7879 120.989 55.2832 120.366 55.2832C119.743 55.2832 119.238 55.7879 119.238 56.4105C119.238 57.0331 119.743 57.5378 120.366 57.5378Z" fill="#4CC326"/>
<path d="M120.365 55.2829C120.982 55.2829 121.493 55.7839 121.493 56.4102C121.493 57.0268 120.992 57.5375 120.365 57.5375C119.749 57.5375 119.238 57.0364 119.238 56.4102C119.238 55.7839 119.749 55.2829 120.365 55.2829ZM120.365 54.8975C119.536 54.8975 118.852 55.5719 118.852 56.4102C118.852 57.2484 119.527 57.9228 120.365 57.9228C121.204 57.9228 121.879 57.2484 121.879 56.4102C121.879 55.5719 121.194 54.8975 120.365 54.8975Z" fill="#141414"/>
<path d="M97.327 70.4294C97.9499 70.4294 98.4549 69.9247 98.4549 69.3021C98.4549 68.6795 97.9499 68.1748 97.327 68.1748C96.7042 68.1748 96.1992 68.6795 96.1992 69.3021C96.1992 69.9247 96.7042 70.4294 97.327 70.4294Z" fill="#4CC326"/>
<path d="M97.3269 68.1745C97.9438 68.1745 98.4547 68.6755 98.4547 69.3018C98.4547 69.928 97.9535 70.4291 97.3269 70.4291C96.71 70.4291 96.1991 69.928 96.1991 69.3018C96.1991 68.6755 96.7003 68.1745 97.3269 68.1745ZM97.3269 67.7891C96.4979 67.7891 95.8135 68.4635 95.8135 69.3018C95.8135 70.14 96.4882 70.8145 97.3269 70.8145C98.1655 70.8145 98.8403 70.14 98.8403 69.3018C98.8403 68.4635 98.1559 67.7891 97.3269 67.7891Z" fill="#141414"/>
<path d="M147.762 69.5524C148.385 69.5524 148.889 69.0477 148.889 68.4251C148.889 67.8026 148.385 67.2979 147.762 67.2979C147.139 67.2979 146.634 67.8026 146.634 68.4251C146.634 69.0477 147.139 69.5524 147.762 69.5524Z" fill="#4CC326"/>
<path d="M147.761 67.3073C148.378 67.3073 148.889 67.8083 148.889 68.4346C148.889 69.0608 148.388 69.5619 147.761 69.5619C147.145 69.5619 146.634 69.0608 146.634 68.4346C146.634 67.8083 147.135 67.3073 147.761 67.3073ZM147.761 66.9219C146.932 66.9219 146.248 67.5963 146.248 68.4346C146.248 69.2728 146.923 69.9473 147.761 69.9473C148.6 69.9473 149.275 69.2728 149.275 68.4346C149.275 67.5963 148.59 66.9219 147.761 66.9219Z" fill="#141414"/>
<path d="M133.697 58.694C134.32 58.694 134.825 58.1893 134.825 57.5667C134.825 56.9442 134.32 56.4395 133.697 56.4395C133.074 56.4395 132.569 56.9442 132.569 57.5667C132.569 58.1893 133.074 58.694 133.697 58.694Z" fill="#4CC326"/>
<path d="M133.697 56.4391C134.314 56.4391 134.825 56.9401 134.825 57.5664C134.825 58.1927 134.324 58.6937 133.697 58.6937C133.08 58.6937 132.569 58.1927 132.569 57.5664C132.569 56.9401 133.08 56.4391 133.697 56.4391ZM133.697 56.0537C132.868 56.0537 132.184 56.7282 132.184 57.5664C132.184 58.4047 132.858 59.0791 133.697 59.0791C134.536 59.0791 135.21 58.4047 135.21 57.5664C135.21 56.7282 134.536 56.0537 133.697 56.0537Z" fill="#141414"/>
<path d="M135.153 73.031C135.776 73.031 136.281 72.5262 136.281 71.9037C136.281 71.2811 135.776 70.7764 135.153 70.7764C134.53 70.7764 134.025 71.2811 134.025 71.9037C134.025 72.5262 134.53 73.031 135.153 73.031Z" fill="#4CC326"/>
<path d="M135.153 70.7858C135.77 70.7858 136.28 71.2868 136.28 71.9131C136.28 72.5394 135.779 73.0404 135.153 73.0404C134.536 73.0404 134.025 72.5394 134.025 71.9131C134.025 71.2868 134.526 70.7858 135.153 70.7858ZM135.153 70.4004C134.324 70.4004 133.639 71.0748 133.639 71.9131C133.639 72.7513 134.314 73.4258 135.153 73.4258C135.991 73.4258 136.666 72.7513 136.666 71.9131C136.666 71.0748 135.982 70.4004 135.153 70.4004Z" fill="#141414"/>
<path d="M154.567 69.697C155.19 69.697 155.695 69.1923 155.695 68.5697C155.695 67.9471 155.19 67.4424 154.567 67.4424C153.944 67.4424 153.439 67.9471 153.439 68.5697C153.439 69.1923 153.944 69.697 154.567 69.697Z" fill="#4CC326"/>
<path d="M154.567 67.4518C155.184 67.4518 155.694 67.9528 155.694 68.5791C155.694 69.2054 155.193 69.7064 154.567 69.7064C153.95 69.7064 153.439 69.2054 153.439 68.5791C153.439 67.9528 153.95 67.4518 154.567 67.4518ZM154.567 67.0664C153.738 67.0664 153.053 67.7409 153.053 68.5791C153.053 69.4173 153.728 70.0918 154.567 70.0918C155.405 70.0918 156.08 69.4173 156.08 68.5791C156.08 67.7409 155.396 67.0664 154.567 67.0664Z" fill="#141414"/>
<path d="M163.262 79.6979C163.885 79.6979 164.39 79.1932 164.39 78.5707C164.39 77.9481 163.885 77.4434 163.262 77.4434C162.639 77.4434 162.134 77.9481 162.134 78.5707C162.134 79.1932 162.639 79.6979 163.262 79.6979Z" fill="#4CC326"/>
<path d="M163.262 77.443C163.879 77.443 164.39 77.944 164.39 78.5703C164.39 79.1966 163.889 79.6976 163.262 79.6976C162.645 79.6976 162.134 79.1966 162.134 78.5703C162.134 77.944 162.645 77.443 163.262 77.443ZM163.262 77.0576C162.433 77.0576 161.749 77.7321 161.749 78.5703C161.749 79.4086 162.423 80.083 163.262 80.083C164.101 80.083 164.775 79.4086 164.775 78.5703C164.775 77.7321 164.101 77.0576 163.262 77.0576Z" fill="#141414"/>
<path d="M163.985 130.975C164.608 130.975 165.113 130.471 165.113 129.848C165.113 129.225 164.608 128.721 163.985 128.721C163.362 128.721 162.857 129.225 162.857 129.848C162.857 130.471 163.362 130.975 163.985 130.975Z" fill="#4CC326"/>
<path d="M163.985 128.72C164.602 128.72 165.112 129.221 165.112 129.848C165.112 130.464 164.611 130.975 163.985 130.975C163.358 130.975 162.857 130.474 162.857 129.848C162.866 129.231 163.368 128.72 163.985 128.72ZM163.985 128.335C163.156 128.335 162.471 129.009 162.471 129.848C162.471 130.686 163.146 131.36 163.985 131.36C164.823 131.36 165.498 130.686 165.498 129.848C165.498 129.009 164.823 128.335 163.985 128.335Z" fill="#141414"/>
<path d="M93.2689 146.334C93.8918 146.334 94.3968 145.829 94.3968 145.206C94.3968 144.584 93.8918 144.079 93.2689 144.079C92.6461 144.079 92.1411 144.584 92.1411 145.206C92.1411 145.829 92.6461 146.334 93.2689 146.334Z" fill="#4CC326"/>
<path d="M93.2688 144.079C93.8857 144.079 94.3966 144.58 94.3966 145.206C94.3966 145.832 93.8954 146.333 93.2688 146.333C92.6519 146.333 92.141 145.832 92.141 145.206C92.141 144.58 92.6422 144.079 93.2688 144.079ZM93.2688 143.693C92.4398 143.693 91.7554 144.368 91.7554 145.206C91.7554 146.044 92.4301 146.719 93.2688 146.719C94.1074 146.719 94.7822 146.044 94.7822 145.206C94.7822 144.368 94.0978 143.693 93.2688 143.693Z" fill="#141414"/>
<path d="M116.018 65.4958C116.641 65.4958 117.146 64.9911 117.146 64.3685C117.146 63.7459 116.641 63.2412 116.018 63.2412C115.396 63.2412 114.891 63.7459 114.891 64.3685C114.891 64.9911 115.396 65.4958 116.018 65.4958Z" fill="#4CC326"/>
<path d="M116.018 63.2506C116.635 63.2506 117.146 63.7517 117.146 64.3779C117.146 65.0042 116.645 65.5052 116.018 65.5052C115.401 65.5052 114.89 65.0042 114.89 64.3779C114.89 63.7517 115.401 63.2506 116.018 63.2506ZM116.018 62.8652C115.189 62.8652 114.505 63.5397 114.505 64.3779C114.505 65.2162 115.18 65.8906 116.018 65.8906C116.857 65.8906 117.532 65.2162 117.532 64.3779C117.532 63.5397 116.847 62.8652 116.018 62.8652Z" fill="#141414"/>
<path d="M164.274 125.33C164.897 125.33 165.402 124.825 165.402 124.202C165.402 123.58 164.897 123.075 164.274 123.075C163.651 123.075 163.146 123.58 163.146 124.202C163.146 124.825 163.651 125.33 164.274 125.33Z" fill="#4CC326"/>
<path d="M164.274 123.075C164.891 123.075 165.401 123.576 165.401 124.202C165.401 124.828 164.9 125.329 164.274 125.329C163.647 125.329 163.146 124.828 163.146 124.202C163.146 123.576 163.657 123.075 164.274 123.075ZM164.274 122.689C163.445 122.689 162.76 123.364 162.76 124.202C162.76 125.04 163.435 125.715 164.274 125.715C165.112 125.715 165.787 125.04 165.787 124.202C165.787 123.364 165.112 122.689 164.274 122.689Z" fill="#141414"/>
<path d="M160.216 113.739C160.839 113.739 161.344 113.234 161.344 112.612C161.344 111.989 160.839 111.484 160.216 111.484C159.593 111.484 159.088 111.989 159.088 112.612C159.088 113.234 159.593 113.739 160.216 113.739Z" fill="#4CC326"/>
<path d="M160.216 111.484C160.832 111.484 161.343 111.985 161.343 112.611C161.343 113.238 160.842 113.739 160.216 113.739C159.599 113.739 159.088 113.238 159.088 112.611C159.088 111.985 159.599 111.484 160.216 111.484ZM160.216 111.099C159.387 111.099 158.702 111.773 158.702 112.611C158.702 113.45 159.377 114.124 160.216 114.124C161.054 114.124 161.729 113.45 161.729 112.611C161.729 111.773 161.054 111.099 160.216 111.099Z" fill="#141414"/>
<path d="M169.933 114.462C170.555 114.462 171.06 113.957 171.06 113.334C171.06 112.712 170.555 112.207 169.933 112.207C169.31 112.207 168.805 112.712 168.805 113.334C168.805 113.957 169.31 114.462 169.933 114.462Z" fill="#4CC326"/>
<path d="M169.932 112.216C170.549 112.216 171.06 112.717 171.06 113.344C171.06 113.97 170.559 114.471 169.932 114.471C169.315 114.471 168.805 113.97 168.805 113.344C168.805 112.717 169.306 112.216 169.932 112.216ZM169.932 111.831C169.103 111.831 168.419 112.505 168.419 113.344C168.419 114.182 169.094 114.856 169.932 114.856C170.771 114.856 171.446 114.182 171.446 113.344C171.446 112.505 170.761 111.831 169.932 111.831Z" fill="#141414"/>
<path d="M142.826 149.957C143.449 149.957 143.954 149.452 143.954 148.829C143.954 148.207 143.449 147.702 142.826 147.702C142.203 147.702 141.698 148.207 141.698 148.829C141.698 149.452 142.203 149.957 142.826 149.957Z" fill="#4CC326"/>
<path d="M142.826 147.702C143.443 147.702 143.954 148.203 143.954 148.829C143.954 149.446 143.452 149.956 142.826 149.956C142.209 149.956 141.698 149.455 141.698 148.829C141.708 148.203 142.209 147.702 142.826 147.702ZM142.826 147.316C141.997 147.316 141.312 147.991 141.312 148.829C141.312 149.667 141.987 150.342 142.826 150.342C143.665 150.342 144.339 149.667 144.339 148.829C144.339 147.991 143.665 147.316 142.826 147.316Z" fill="#141414"/>
</g>
</g>
<defs>
<filter id="filter0_d_2_7885" x="27.5698" y="18.1157" width="185.983" height="168.269" filterUnits="userSpaceOnUse" color-interpolation-filters="sRGB">
<feFlood flood-opacity="0" result="BackgroundImageFix"/>
<feColorMatrix in="SourceAlpha" type="matrix" values="0 0 0 0 0 0 0 0 0 0 0 0 0 0 0 0 0 0 127 0" result="hardAlpha"/>
<feOffset/>
<feGaussianBlur stdDeviation="1.65067"/>
<feComposite in2="hardAlpha" operator="out"/>
<feColorMatrix type="matrix" values="0 0 0 0 0.298039 0 0 0 0 0.764706 0 0 0 0 0.14902 0 0 0 1 0"/>
<feBlend mode="normal" in2="BackgroundImageFix" result="effect1_dropShadow_2_7885"/>
<feBlend mode="normal" in="SourceGraphic" in2="effect1_dropShadow_2_7885" result="shape"/>
</filter>
<filter id="filter1_d_2_7885" x="25.142" y="33.9262" width="178.442" height="144.123" filterUnits="userSpaceOnUse" color-interpolation-filters="sRGB">
<feFlood flood-opacity="0" result="BackgroundImageFix"/>
<feColorMatrix in="SourceAlpha" type="matrix" values="0 0 0 0 0 0 0 0 0 0 0 0 0 0 0 0 0 0 127 0" result="hardAlpha"/>
<feOffset/>
<feGaussianBlur stdDeviation="1.65067"/>
<feComposite in2="hardAlpha" operator="out"/>
<feColorMatrix type="matrix" values="0 0 0 0 0.298039 0 0 0 0 0.764706 0 0 0 0 0.14902 0 0 0 1 0"/>
<feBlend mode="normal" in2="BackgroundImageFix" result="effect1_dropShadow_2_7885"/>
<feBlend mode="normal" in="SourceGraphic" in2="effect1_dropShadow_2_7885" result="shape"/>
</filter>
<filter id="filter2_d_2_7885" x="43.5107" y="28.3705" width="149.568" height="174.055" filterUnits="userSpaceOnUse" color-interpolation-filters="sRGB">
<feFlood flood-opacity="0" result="BackgroundImageFix"/>
<feColorMatrix in="SourceAlpha" type="matrix" values="0 0 0 0 0 0 0 0 0 0 0 0 0 0 0 0 0 0 127 0" result="hardAlpha"/>
<feOffset/>
<feGaussianBlur stdDeviation="1.65067"/>
<feComposite in2="hardAlpha" operator="out"/>
<feColorMatrix type="matrix" values="0 0 0 0 0.298039 0 0 0 0 0.764706 0 0 0 0 0.14902 0 0 0 1 0"/>
<feBlend mode="normal" in2="BackgroundImageFix" result="effect1_dropShadow_2_7885"/>
<feBlend mode="normal" in="SourceGraphic" in2="effect1_dropShadow_2_7885" result="shape"/>
</filter>
<filter id="filter3_b_2_7885" x="101.463" y="73.0479" width="46.626" height="49.9893" filterUnits="userSpaceOnUse" color-interpolation-filters="sRGB">
<feFlood flood-opacity="0" result="BackgroundImageFix"/>
<feGaussianBlur in="BackgroundImageFix" stdDeviation="2"/>
<feComposite in2="SourceAlpha" operator="in" result="effect1_backgroundBlur_2_7885"/>
<feBlend mode="normal" in="SourceGraphic" in2="effect1_backgroundBlur_2_7885" result="shape"/>
</filter>
<filter id="filter4_b_2_7885" x="77.4219" y="65.041" width="38.1045" height="45.374" filterUnits="userSpaceOnUse" color-interpolation-filters="sRGB">
<feFlood flood-opacity="0" result="BackgroundImageFix"/>
<feGaussianBlur in="BackgroundImageFix" stdDeviation="2"/>
<feComposite in2="SourceAlpha" operator="in" result="effect1_backgroundBlur_2_7885"/>
<feBlend mode="normal" in="SourceGraphic" in2="effect1_backgroundBlur_2_7885" result="shape"/>
</filter>
<filter id="filter5_b_2_7885" x="130.594" y="63.8271" width="37.1406" height="44.1602" filterUnits="userSpaceOnUse" color-interpolation-filters="sRGB">
<feFlood flood-opacity="0" result="BackgroundImageFix"/>
<feGaussianBlur in="BackgroundImageFix" stdDeviation="2"/>
<feComposite in2="SourceAlpha" operator="in" result="effect1_backgroundBlur_2_7885"/>
<feBlend mode="normal" in="SourceGraphic" in2="effect1_backgroundBlur_2_7885" result="shape"/>
</filter>
<filter id="filter6_b_2_7885" x="101.704" y="115.037" width="46.8477" height="38.3408" filterUnits="userSpaceOnUse" color-interpolation-filters="sRGB">
<feFlood flood-opacity="0" result="BackgroundImageFix"/>
<feGaussianBlur in="BackgroundImageFix" stdDeviation="2"/>
<feComposite in2="SourceAlpha" operator="in" result="effect1_backgroundBlur_2_7885"/>
<feBlend mode="normal" in="SourceGraphic" in2="effect1_backgroundBlur_2_7885" result="shape"/>
</filter>
<filter id="filter7_b_2_7885" x="68.6787" y="85.4287" width="22.5654" height="45.8555" filterUnits="userSpaceOnUse" color-interpolation-filters="sRGB">
<feFlood flood-opacity="0" result="BackgroundImageFix"/>
<feGaussianBlur in="BackgroundImageFix" stdDeviation="2"/>
<feComposite in2="SourceAlpha" operator="in" result="effect1_backgroundBlur_2_7885"/>
<feBlend mode="normal" in="SourceGraphic" in2="effect1_backgroundBlur_2_7885" result="shape"/>
</filter>
<filter id="filter8_b_2_7885" x="156.823" y="85.5645" width="17.2251" height="42.5703" filterUnits="userSpaceOnUse" color-interpolation-filters="sRGB">
<feFlood flood-opacity="0" result="BackgroundImageFix"/>
<feGaussianBlur in="BackgroundImageFix" stdDeviation="2"/>
<feComposite in2="SourceAlpha" operator="in" result="effect1_backgroundBlur_2_7885"/>
<feBlend mode="normal" in="SourceGraphic" in2="effect1_backgroundBlur_2_7885" result="shape"/>
</filter>
<filter id="filter9_b_2_7885" x="77.4219" y="122.804" width="39.8687" height="31.5771" filterUnits="userSpaceOnUse" color-interpolation-filters="sRGB">
<feFlood flood-opacity="0" result="BackgroundImageFix"/>
<feGaussianBlur in="BackgroundImageFix" stdDeviation="2"/>
<feComposite in2="SourceAlpha" operator="in" result="effect1_backgroundBlur_2_7885"/>
<feBlend mode="normal" in="SourceGraphic" in2="effect1_backgroundBlur_2_7885" result="shape"/>
</filter>
<filter id="filter10_b_2_7885" x="131.008" y="120.135" width="37.2178" height="33.5234" filterUnits="userSpaceOnUse" color-interpolation-filters="sRGB">
<feFlood flood-opacity="0" result="BackgroundImageFix"/>
<feGaussianBlur in="BackgroundImageFix" stdDeviation="2"/>
<feComposite in2="SourceAlpha" operator="in" result="effect1_backgroundBlur_2_7885"/>
<feBlend mode="normal" in="SourceGraphic" in2="effect1_backgroundBlur_2_7885" result="shape"/>
</filter>
<filter id="filter11_b_2_7885" x="80.333" y="51.9668" width="43.7437" height="25.9307" filterUnits="userSpaceOnUse" color-interpolation-filters="sRGB">
<feFlood flood-opacity="0" result="BackgroundImageFix"/>
<feGaussianBlur in="BackgroundImageFix" stdDeviation="2"/>
<feComposite in2="SourceAlpha" operator="in" result="effect1_backgroundBlur_2_7885"/>
<feBlend mode="normal" in="SourceGraphic" in2="effect1_backgroundBlur_2_7885" result="shape"/>
</filter>
<filter id="filter12_b_2_7885" x="116.597" y="51.9668" width="41.2949" height="20.1016" filterUnits="userSpaceOnUse" color-interpolation-filters="sRGB">
<feFlood flood-opacity="0" result="BackgroundImageFix"/>
<feGaussianBlur in="BackgroundImageFix" stdDeviation="2"/>
<feComposite in2="SourceAlpha" operator="in" result="effect1_backgroundBlur_2_7885"/>
<feBlend mode="normal" in="SourceGraphic" in2="effect1_backgroundBlur_2_7885" result="shape"/>
</filter>
<linearGradient id="paint0_linear_2_7885" x1="26.3407" y1="137.363" x2="206.844" y2="81.9847" gradientUnits="userSpaceOnUse">
<stop stop-color="#4CC326"/>
<stop offset="0.525" stop-color="white"/>
</linearGradient>
<linearGradient id="paint1_linear_2_7885" x1="30.0217" y1="130.423" x2="199.023" y2="78.5735" gradientUnits="userSpaceOnUse">
<stop stop-color="#4CC326"/>
<stop offset="0.525" stop-color="white"/>
</linearGradient>
<linearGradient id="paint2_linear_2_7885" x1="41.3096" y1="141.963" x2="193.499" y2="95.2709" gradientUnits="userSpaceOnUse">
<stop stop-color="#4CC326"/>
<stop offset="0.525" stop-color="white"/>
</linearGradient>
<linearGradient id="paint3_linear_2_7885" x1="111.928" y1="84.422" x2="127.802" y2="123.079" gradientUnits="userSpaceOnUse">
<stop stop-color="#4CC326" stop-opacity="0.52"/>
<stop offset="1" stop-color="white" stop-opacity="0"/>
</linearGradient>
<linearGradient id="paint4_linear_2_7885" x1="86.4607" y1="75.6046" x2="101.919" y2="108.565" gradientUnits="userSpaceOnUse">
<stop stop-color="#4CC326" stop-opacity="0.52"/>
<stop offset="1" stop-color="white" stop-opacity="0"/>
</linearGradient>
<linearGradient id="paint5_linear_2_7885" x1="139.471" y1="74.1776" x2="154.422" y2="106.073" gradientUnits="userSpaceOnUse">
<stop stop-color="#4CC326" stop-opacity="0.52"/>
<stop offset="1" stop-color="white" stop-opacity="0"/>
</linearGradient>
<linearGradient id="paint6_linear_2_7885" x1="112.206" y1="124.365" x2="121.066" y2="154.395" gradientUnits="userSpaceOnUse">
<stop stop-color="#4CC326" stop-opacity="0.52"/>
<stop offset="1" stop-color="white" stop-opacity="0"/>
</linearGradient>
<linearGradient id="paint7_linear_2_7885" x1="75.1167" y1="96.0769" x2="95.4775" y2="116.815" gradientUnits="userSpaceOnUse">
<stop stop-color="#4CC326" stop-opacity="0.52"/>
<stop offset="1" stop-color="white" stop-opacity="0"/>
</linearGradient>
<linearGradient id="paint8_linear_2_7885" x1="162.367" y1="95.6357" x2="179.895" y2="108.017" gradientUnits="userSpaceOnUse">
<stop stop-color="#4CC326" stop-opacity="0.52"/>
<stop offset="1" stop-color="white" stop-opacity="0"/>
</linearGradient>
<linearGradient id="paint9_linear_2_7885" x1="86.756" y1="130.944" x2="93.3315" y2="154.473" gradientUnits="userSpaceOnUse">
<stop stop-color="#4CC326" stop-opacity="0.52"/>
<stop offset="1" stop-color="white" stop-opacity="0"/>
</linearGradient>
<linearGradient id="paint10_linear_2_7885" x1="139.899" y1="128.617" x2="148.07" y2="153.38" gradientUnits="userSpaceOnUse">
<stop stop-color="#4CC326" stop-opacity="0.52"/>
<stop offset="1" stop-color="white" stop-opacity="0"/>
</linearGradient>
<linearGradient id="paint11_linear_2_7885" x1="90.3157" y1="59.1158" x2="93.8447" y2="77.7384" gradientUnits="userSpaceOnUse">
<stop stop-color="#4CC326" stop-opacity="0.52"/>
<stop offset="1" stop-color="white" stop-opacity="0"/>
</linearGradient>
<linearGradient id="paint12_linear_2_7885" x1="126.17" y1="58.0921" x2="127.925" y2="70.871" gradientUnits="userSpaceOnUse">
<stop stop-color="#4CC326" stop-opacity="0.52"/>
<stop offset="1" stop-color="white" stop-opacity="0"/>
</linearGradient>
<clipPath id="clip0_2_7885">
<rect width="100.406" height="99.2019" fill="white" transform="translate(71.0303 54.8975)"/>
</clipPath>
</defs>
</svg>
