<svg width="276" height="59" viewBox="0 0 276 59" fill="none" xmlns="http://www.w3.org/2000/svg">
<g clip-path="url(#clip0_1007_1510)">
<path fill-rule="evenodd" clip-rule="evenodd" d="M14.9837 9.70465L49.758 0.399652C53.2138 -0.525348 56.7985 1.54165 57.7263 4.99332L67.0445 39.7253C67.9697 43.1783 65.9022 46.762 62.444 47.687L27.6683 56.9917C24.2118 57.915 20.6278 55.8487 19.7004 52.3977L10.3831 17.6663C9.45698 14.2133 11.5278 10.6317 14.9837 9.70465Z" fill="#C9DA2D"/>
<path fill-rule="evenodd" clip-rule="evenodd" d="M14.9837 9.70465L49.758 0.399652C53.2138 -0.525348 56.7985 1.54165 57.7263 4.99332L67.0445 39.7253C67.9697 43.1783 65.9022 46.762 62.444 47.687L27.6683 56.9917C24.2118 57.915 20.6278 55.8487 19.7004 52.3977L10.3831 17.6663C9.45698 14.2133 11.5278 10.6317 14.9837 9.70465Z" fill="#434343"/>
<path fill-rule="evenodd" clip-rule="evenodd" d="M29.0197 56.6303L27.6684 56.9917C24.2119 57.915 20.6279 55.8486 19.7005 52.3976L14.604 33.3983H29.0197V56.6303Z" fill="#434343"/>
<path fill-rule="evenodd" clip-rule="evenodd" d="M51.2713 0.181998C54.2042 0.107665 56.9348 2.04467 57.7261 4.99333L67.0444 39.7253C67.9695 43.1783 65.902 46.762 62.4438 47.687L51.271 50.6733V0.181998H51.2713Z" fill="#231F20"/>
<path d="M35.4527 28.7677H13.3613L15.5987 37.1084H26.4134V57.1957C26.596 57.185 26.7799 57.1657 26.9628 57.1364C26.9834 57.133 27.0028 57.133 27.0232 57.1294C27.2388 57.0957 27.455 57.049 27.6683 56.9917L35.4527 54.9087V28.7677Z" fill="#727272"/>
<path d="M56.1499 28.7697V2.19934C54.5593 0.541011 52.1301 -0.235322 49.7585 0.399678L46.8901 1.16768V28.7697H38.6938V37.1103H46.8901V51.849L56.1499 49.369V37.1107H66.3409L64.1049 28.77L56.1499 28.7697Z" fill="#737373"/>
<path d="M30.3724 12.9603C31.9036 12.9603 33.2278 13.4903 34.3088 14.5877C35.4051 15.6683 35.9381 16.9717 35.9381 18.4863C35.9381 20.0167 35.4051 21.336 34.3088 22.4207C33.2278 23.512 31.9036 24.048 30.3724 24.048C28.8555 24.048 27.5476 23.5123 26.4677 22.4207C25.3877 21.336 24.8394 20.0167 24.8394 18.4863C24.8394 16.94 25.3723 15.6347 26.453 14.556C27.5156 13.4903 28.8228 12.9603 30.3724 12.9603Z" fill="#737373"/>
<path d="M81.4171 44.7543V21.1666H77.6318V17.056H86.3554V44.754H81.4171V44.7543ZM84.1203 6.61731C84.9657 6.61731 85.6862 6.91598 86.2816 7.51164C86.8783 8.10664 87.177 8.81764 87.177 9.64598C87.177 10.491 86.878 11.212 86.2816 11.8063C85.6862 12.4036 84.9657 12.6996 84.1203 12.6996C83.2907 12.6996 82.5781 12.4036 81.9821 11.8063C81.3847 11.212 81.0877 10.491 81.0877 9.64598C81.0877 8.79998 81.3814 8.08298 81.9691 7.49664C82.5554 6.91098 83.2723 6.61731 84.1203 6.61731Z" fill="white" fill-opacity="0.4" stroke="#727272" stroke-width="2.9589"/>
<path d="M95.9331 20.4266H92.7256V16.5636H95.9331V10.7983L100.871 8.91895V16.5639H108.442V20.4266H100.871V34.1996C100.871 36.5293 101.26 38.1863 102.041 39.1696C102.822 40.1533 104.078 40.6446 105.812 40.6446C107.064 40.6446 108.358 40.3169 109.697 39.6589L110.417 43.9806C108.386 44.4956 106.156 44.7543 103.73 44.7543C101.545 44.7543 99.6977 43.9403 98.1909 42.3116C96.685 40.6843 95.9328 38.6279 95.9328 36.1456L95.9331 20.4266Z" fill="white" fill-opacity="0.4" stroke="#727272" stroke-width="2.9589"/>
<path d="M157.85 44.7544H156.533L148.428 25.933L140.321 44.7544H139.003L129.129 16.4807H134.395L140.278 34.6454L147.644 16.4807H148.962L156.574 34.6454L162.95 16.4807H167.807L157.85 44.7544Z" fill="white" fill-opacity="0.4" stroke="#727272" stroke-width="2.9589"/>
<path d="M172.781 30.3477C172.781 26.0793 173.933 22.6327 176.238 20.0057C178.545 17.3827 181.579 16.0707 185.344 16.0707C189.314 16.0707 192.397 17.3303 194.59 19.8543C196.784 22.376 197.881 25.8747 197.881 30.3477C197.881 34.8067 196.759 38.322 194.512 40.8953C192.267 43.4697 189.211 44.7543 185.343 44.7543C181.387 44.7543 178.306 43.4557 176.095 40.8567C173.887 38.2573 172.781 34.7543 172.781 30.3477ZM177.966 30.3477C177.966 37.267 180.425 40.7277 185.344 40.7277C187.641 40.7277 189.438 39.8 190.741 37.9447C192.045 36.0903 192.696 33.5587 192.696 30.3477C192.696 23.515 190.245 20.097 185.344 20.097C183.1 20.097 181.308 21.0083 179.972 22.829C178.633 24.6483 177.966 27.156 177.966 30.3477Z" fill="white" fill-opacity="0.4" stroke="#727272" stroke-width="2.9589"/>
<path d="M219.063 21.7836C217.994 21.0426 216.919 20.6723 215.838 20.6723C214.099 20.6723 212.582 21.4776 211.283 23.0829C209.985 24.6886 209.335 26.6229 209.335 28.8873V44.7539H204.396V17.0559H209.335V21.4933C211.124 18.2059 213.779 16.5636 217.308 16.5636C218.187 16.5636 219.452 16.7169 221.102 17.0243L219.063 21.7836Z" fill="white" fill-opacity="0.4" stroke="#727272" stroke-width="2.9589"/>
<path d="M227.138 36.4093V5.22034H232.075V35.6147C232.075 37.0977 232.499 38.2663 233.348 39.1183C234.197 39.9723 235.31 40.4 236.684 40.4V44.7543C230.319 44.7543 227.138 41.9737 227.138 36.4093Z" fill="white" fill-opacity="0.4" stroke="#727272" stroke-width="2.9589"/>
<path d="M260.597 44.2617V42.2207C258.891 43.91 256.412 44.7543 253.156 44.7543C249.694 44.7543 246.887 43.515 244.734 41.034C242.582 38.5537 241.505 35.2447 241.505 31.1097C241.505 26.9583 242.743 23.4153 245.225 20.4757C247.704 17.539 250.658 16.071 254.087 16.071C256.944 16.071 259.115 16.7417 260.597 18.0847V5.22034H265.534V44.262L260.597 44.2617ZM260.597 22.9743C259.357 21.1123 257.665 20.179 255.514 20.179C252.881 20.179 250.752 21.1637 249.126 23.1297C247.5 25.0957 246.689 27.5977 246.689 30.6317C246.689 37.3083 249.715 40.6443 255.771 40.6443C256.546 40.6443 257.473 40.4007 258.559 39.9063C259.641 39.416 260.32 38.894 260.596 38.3417V22.9743H260.597Z" fill="white" fill-opacity="0.4" stroke="#727272" stroke-width="2.9589"/>
<path d="M120.837 27.3433C122.37 27.3433 123.695 27.8743 124.778 28.9706C125.871 30.0499 126.406 31.3546 126.406 32.8689C126.406 34.4013 125.871 35.7206 124.778 36.8013C123.695 37.8986 122.371 38.4286 120.837 38.4286C119.324 38.4286 118.016 37.8986 116.933 36.8013C115.853 35.7206 115.304 34.4013 115.304 32.8689C115.304 31.3246 115.838 30.0183 116.917 28.9386C117.985 27.8743 119.29 27.3433 120.837 27.3433Z" fill="#434343"/>
<path d="M83.8653 58.1504L82.6505 54.5744L82.4199 53.8584H82.3965L82.4129 54.6321V58.1504H81.396V53.1434H83.1151L84.118 56.0554L84.3392 56.9438H84.3596L84.5832 56.0554L85.5844 53.1434H87.3031V58.1504H86.2856V54.6321L86.3009 53.8584H86.2782L86.0496 54.5744L84.8321 58.1504H83.8653Z" fill="white" fill-opacity="0.4"/>
<path d="M90.7552 53.1437V55.719L90.7335 56.935H90.7552L91.1116 56.2057L92.8674 53.1437H94.0862V58.1507H93.0693V55.5703L93.0903 54.36H93.0693L92.7255 55.1197L90.9561 58.1507H89.7393V53.1437H90.7552Z" fill="white" fill-opacity="0.4"/>
<path d="M98.0017 53.1437C99.8195 53.1437 99.928 54.3967 99.928 54.7093C99.928 55.3673 99.4691 56.2697 98.1876 56.2697H97.5365V58.1507H96.5186V53.1437H98.0017ZM98.0017 55.484C98.6174 55.484 98.853 55.062 98.853 54.6817C98.853 54.2667 98.5891 53.93 98.0017 53.93H97.5365V55.484H98.0017Z" fill="white" fill-opacity="0.4"/>
<path d="M106.266 53.1437V55.719L106.244 56.935H106.266L106.625 56.2057L108.379 53.1437H109.596V58.1507H108.578V55.5703L108.599 54.36H108.578L108.234 55.1197L106.465 58.1507H105.248V53.1437H106.266Z" fill="white" fill-opacity="0.4"/>
<path d="M113.046 53.1437V55.1603H115.081V53.1437H116.098V58.1507H115.081V55.9857H113.046V58.1507H112.03V53.1437H113.046Z" fill="white" fill-opacity="0.4"/>
<path d="M121.971 53.502H122.27C123.417 53.502 124.497 54.2467 124.497 55.6477C124.497 57.0513 123.417 57.793 122.27 57.793H121.971V58.4383H120.952V57.793H120.653C119.506 57.793 118.427 57.0513 118.427 55.6477C118.427 54.247 119.507 53.502 120.653 53.502H120.952V52.859H121.971V53.502ZM120.952 57.0067V54.29H120.738C120.059 54.29 119.498 54.7097 119.498 55.6477C119.498 56.585 120.059 57.0067 120.738 57.0067H120.952ZM121.971 54.2897V57.0063H122.186C122.865 57.0063 123.423 56.5843 123.423 55.6473C123.423 54.7093 122.865 54.2897 122.186 54.2897H121.971Z" fill="white" fill-opacity="0.4"/>
<path d="M131.559 55.6474C131.559 57.4647 130.342 58.208 129.102 58.208C127.863 58.208 126.647 57.465 126.647 55.6474C126.647 53.832 127.863 53.0857 129.102 53.0857C130.341 53.086 131.559 53.832 131.559 55.6474ZM127.719 55.6474C127.719 57.343 128.721 57.4917 129.102 57.4917C129.483 57.4917 130.485 57.343 130.485 55.6474C130.485 53.9527 129.483 53.801 129.102 53.801C128.721 53.801 127.719 53.9527 127.719 55.6474Z" fill="white" fill-opacity="0.4"/>
<path d="M135.299 53.1437C137.114 53.1437 137.223 54.3967 137.223 54.7093C137.223 55.3673 136.763 56.2697 135.485 56.2697H134.831V58.1507H133.813V53.1437H135.299ZM135.299 55.484C135.912 55.484 136.149 55.062 136.149 54.6817C136.149 54.2667 135.883 53.93 135.299 53.93H134.832V55.484H135.299Z" fill="white" fill-opacity="0.4"/>
<path d="M141.913 58.1504L140.696 54.5744L140.469 53.8584H140.447L140.461 54.6321V58.1504H139.443V53.1434H141.163L142.165 56.0554L142.388 56.9438H142.408L142.63 56.0554L143.632 53.1434H145.352V58.1504H144.336V54.6321L144.347 53.8584H144.326L144.098 54.5744L142.878 58.1504H141.913Z" fill="white" fill-opacity="0.4"/>
<path d="M150.549 53.1437L152.541 58.1507H151.394L150.973 57.0283H148.902L148.481 58.1507H147.391L149.389 53.1437H150.549ZM150.67 56.1973L149.933 54.153H149.92L149.226 56.1973H150.67Z" fill="white" fill-opacity="0.4"/>
<path d="M155.598 53.1438V57.2631H157.63V53.1438H158.648V57.2631H159.229V59.1788H158.306V58.1504H154.581V53.1434H155.598V53.1438Z" fill="white" fill-opacity="0.4"/>
<path d="M162.322 53.1437V55.719L162.3 56.935H162.322L162.681 56.2057L164.433 53.1437H165.652V58.1507H164.636V55.5703L164.657 54.36H164.636L164.291 55.1197L162.523 58.1507H161.306V53.1437H162.322Z" fill="white" fill-opacity="0.4"/>
<path d="M172.821 55.6474C172.821 57.4647 171.604 58.208 170.363 58.208C169.126 58.208 167.908 57.465 167.908 55.6474C167.908 53.832 169.126 53.0857 170.363 53.0857C171.604 53.086 172.821 53.832 172.821 55.6474ZM168.983 55.6474C168.983 57.343 169.983 57.4917 170.363 57.4917C170.745 57.4917 171.747 57.343 171.747 55.6474C171.747 53.9527 170.744 53.801 170.363 53.801C169.983 53.801 168.983 53.9527 168.983 55.6474Z" fill="white" fill-opacity="0.4"/>
<path d="M176.094 53.1437V55.1603H178.127V53.1437H179.145V58.1507H178.127V55.9857H176.094V58.1507H175.076V53.1437H176.094Z" fill="white" fill-opacity="0.4"/>
<path d="M182.595 53.1437V55.1603H184.628V53.1437H185.647V58.1507H184.628V55.9857H182.595V58.1507H181.577V53.1437H182.595Z" fill="white" fill-opacity="0.4"/>
<path d="M189.097 55.0177H189.801C191.525 55.0177 191.646 56.219 191.646 56.534C191.646 57.3073 191.21 58.1507 189.769 58.1507H188.08V53.1437H189.097L189.097 55.0177ZM189.097 57.3633H189.769C190.252 57.3633 190.61 57.07 190.61 56.5847C190.61 56.2633 190.452 55.8047 189.692 55.8047H189.097L189.097 57.3633ZM193.381 53.1437V58.1507H192.364V53.1437H193.381Z" fill="white" fill-opacity="0.4"/>
<path d="M196.81 53.1437L197.612 54.5383L197.841 54.9623H197.863L198.091 54.5383L198.914 53.1437H200.023L198.5 55.5327L200.173 58.1507H198.973L198.013 56.564L197.798 56.1773H197.778L197.561 56.564L196.565 58.1507H195.457L197.133 55.5327L195.606 53.1437H196.81Z" fill="white" fill-opacity="0.4"/>
<path d="M208.871 53.1437V54.0313H207.424V58.1503H206.406V54.0313H204.961V53.1437H208.871Z" fill="white" fill-opacity="0.4"/>
<path d="M213.904 53.1437V54.0313H211.927V55.1603H213.724V55.9857H211.927V57.2633H213.904V58.1507H210.909V53.1437H213.904Z" fill="white" fill-opacity="0.4"/>
<path d="M217.189 53.1437L217.991 54.5383L218.22 54.9623H218.241L218.472 54.5383L219.295 53.1437H220.406L218.881 55.5327L220.555 58.1507H219.352L218.393 56.564L218.179 56.1773H218.157L217.942 56.564L216.946 58.1507H215.837L217.515 55.5327L215.987 53.1437H217.189Z" fill="white" fill-opacity="0.4"/>
<path d="M223.649 53.1437V55.1603H225.683V53.1437H226.7V58.1507H225.683V55.9857H223.649V58.1507H222.633V53.1437H223.649Z" fill="white" fill-opacity="0.4"/>
<path d="M233.867 55.6474C233.867 57.4647 232.649 58.208 231.411 58.208C230.172 58.208 228.955 57.465 228.955 55.6474C228.955 53.832 230.172 53.0857 231.411 53.0857C232.649 53.086 233.867 53.832 233.867 55.6474ZM230.029 55.6474C230.029 57.343 231.034 57.4917 231.411 57.4917C231.789 57.4917 232.794 57.343 232.794 55.6474C232.794 53.9527 231.789 53.801 231.411 53.801C231.034 53.801 230.029 53.9527 230.029 55.6474Z" fill="white" fill-opacity="0.4"/>
<path d="M239.984 53.1438V58.1508H238.966V54.0318H237.643V55.0338C237.643 56.7138 237.669 58.2084 236.179 58.2084C236.014 58.2084 235.828 58.1794 235.693 58.1508L235.737 57.3554C235.8 57.3721 235.93 57.3928 236.009 57.3928C236.797 57.3928 236.689 55.9628 236.689 54.7748V53.1434H239.984V53.1438Z" fill="white" fill-opacity="0.4"/>
<path d="M247.15 55.6474C247.15 57.4647 245.934 58.208 244.696 58.208C243.455 58.208 242.239 57.465 242.239 55.6474C242.239 53.832 243.455 53.0857 244.696 53.0857C245.934 53.086 247.15 53.832 247.15 55.6474ZM243.312 55.6474C243.312 57.343 244.318 57.4917 244.696 57.4917C245.075 57.4917 246.079 57.343 246.079 55.6474C246.079 53.9527 245.075 53.801 244.696 53.801C244.317 53.801 243.312 53.9527 243.312 55.6474Z" fill="white" fill-opacity="0.4"/>
<path d="M252.489 53.1438V54.0314H250.423V58.1504H249.407V53.1434H252.489V53.1438Z" fill="white" fill-opacity="0.4"/>
<path d="M255.508 53.1437V55.719L255.486 56.935H255.508L255.865 56.2057L257.619 53.1437H258.837V58.1507H257.822V55.5703L257.843 54.36H257.822L257.477 55.1197L255.708 58.1507H254.491V53.1437H255.508Z" fill="white" fill-opacity="0.4"/>
<path d="M262.29 53.1437V55.719L262.27 56.935H262.29L262.648 56.2057L264.401 53.1437H265.619V58.1507H264.601V55.5704L264.625 54.36H264.601L264.26 55.1197L262.489 58.1507H261.272V53.1437H262.29ZM264.717 51.957C264.425 52.678 263.815 52.7937 263.393 52.7937C262.971 52.7937 262.36 52.678 262.069 51.957L262.59 51.6787C262.769 52.1214 263.219 52.142 263.393 52.142C263.564 52.142 264.015 52.1214 264.194 51.6787L264.717 51.957Z" fill="white" fill-opacity="0.4"/>
</g>
<defs>
<clipPath id="clip0_1007_1510">
<rect width="276" height="59" fill="white"/>
</clipPath>
</defs>
</svg>
