<svg width="527" height="745" viewBox="0 0 527 745" fill="none" xmlns="http://www.w3.org/2000/svg">
<path d="M-0.000701904 7.10608e-05L526.998 -6.10352e-05L526.998 559.417C526.998 561.672 525.169 563.5 522.914 563.5C511.638 563.5 502.498 572.641 502.498 583.917V585.702C502.498 596.978 511.638 606.119 522.914 606.119C525.169 606.119 526.998 607.947 526.998 610.202L526.998 744.119L-0.00241089 744.119L-0.00247192 610.119C-0.00247192 607.91 1.78836 606.119 3.99753 606.119C15.0432 606.119 23.9975 597.165 23.9975 586.119V583.5C23.9975 572.454 15.0432 563.5 3.99753 563.5C1.78842 563.5 -0.00247192 561.709 -0.00247192 559.5L-0.000701904 7.10608e-05Z" fill="white"/>
</svg>
