<svg width="933" height="884" viewBox="0 0 933 884" fill="none" xmlns="http://www.w3.org/2000/svg">
<g filter="url(#filter0_d_898_8)">
<path fill-rule="evenodd" clip-rule="evenodd" d="M791.502 263.131L508.991 112.51L102.362 365.398L81.2728 494.239L267.76 649.861L267.777 649.876L267.79 649.886L267.804 649.894L267.823 649.906L584.47 835.609L790.988 617.254L791.502 263.131ZM81.4886 494.159L102.544 365.52L102.544 365.52L81.4886 494.159ZM103.223 365.972L509.027 113.596L790.559 263.695L790.046 616.878L584.3 834.417L268.334 649.113L82.2897 493.861L103.223 365.972Z" fill="#4CC326"/>
</g>
<g filter="url(#filter1_d_898_8)">
<path fill-rule="evenodd" clip-rule="evenodd" d="M827.471 453.642L589.988 182.435L294.96 142.027L159.418 277.81L243.561 589.603L386.119 673.936L648.675 735.295L827.471 453.642ZM386.474 673.052L244.372 588.989L160.471 278.091L295.298 143.024L589.51 183.32L826.296 453.731L648.235 734.225L386.474 673.052ZM589.887 182.623L589.887 182.623L827.222 453.661L589.887 182.623ZM160.247 278.031L160.247 278.031L244.201 589.12L160.247 278.031Z" fill="#4CC326"/>
</g>
<g filter="url(#filter2_d_898_8)">
<path fill-rule="evenodd" clip-rule="evenodd" d="M756.472 286.19L492.886 179.467L290.675 226.492L131.018 430.553L226.868 696.961L583.149 739.521L752.485 537.718L756.472 286.19ZM132.084 430.724L291.214 227.337L492.809 180.456L755.516 286.822L751.545 537.367L582.753 738.522L227.56 696.091L132.084 430.724ZM492.87 179.677L756.27 286.323L492.87 179.677L492.87 179.677Z" fill="#4CC326"/>
</g>
<path d="M159.499 280.969C156.887 279.957 155.347 276.957 156.46 274.085C157.473 271.474 160.473 269.934 163.346 271.048C165.958 272.061 167.498 275.061 166.385 277.933C165.373 280.543 162.111 281.982 159.499 280.969Z" fill="#4CC326"/>
<path d="M162.943 272.088C165.293 273 166.152 275.435 165.342 277.523C164.431 279.873 161.995 280.731 159.906 279.921C157.555 279.009 156.697 276.574 157.507 274.485C158.156 272.034 160.592 271.177 162.943 272.088ZM163.651 270.261C160.517 269.045 156.893 270.644 155.678 273.777C154.464 276.91 156.063 280.533 159.197 281.748C162.331 282.963 165.955 281.365 167.17 278.232C168.385 275.099 166.785 271.476 163.651 270.261Z" fill="#141414"/>
<path d="M182.297 369.388C179.685 368.376 178.144 365.376 179.258 362.504C180.27 359.893 183.271 358.354 186.143 359.467C188.755 360.48 190.296 363.48 189.182 366.352C188.17 368.963 184.909 370.401 182.297 369.388Z" fill="#4CC326"/>
<path d="M185.838 360.253C188.189 361.164 189.047 363.599 188.237 365.688C187.427 367.776 184.891 368.895 182.801 368.085C180.712 367.275 179.592 364.738 180.402 362.65C181.212 360.561 183.749 359.442 185.838 360.253ZM186.547 358.425C183.413 357.21 179.789 358.808 178.574 361.941C177.359 365.074 178.959 368.697 182.093 369.913C185.227 371.128 188.851 369.53 190.065 366.397C191.28 363.264 189.681 359.64 186.547 358.425Z" fill="#141414"/>
<path d="M170.457 327.862C167.845 326.849 166.305 323.849 167.418 320.977C168.43 318.366 171.431 316.827 174.304 317.941C176.915 318.953 178.456 321.953 177.343 324.825C176.069 327.335 173.069 328.874 170.457 327.862Z" fill="#4CC326"/>
<path d="M174 318.726C176.351 319.637 177.209 322.072 176.399 324.161C175.589 326.25 173.053 327.368 170.963 326.558C168.613 325.647 167.754 323.212 168.564 321.123C169.374 319.034 171.65 317.814 174 318.726ZM174.607 317.159C171.473 315.944 167.849 317.542 166.635 320.675C165.42 323.808 167.019 327.432 170.153 328.647C173.288 329.862 176.912 328.264 178.126 325.131C179.341 321.998 177.742 318.374 174.607 317.159Z" fill="#141414"/>
<path d="M100.401 372.179C97.7893 371.167 96.2486 368.167 97.3621 365.295C98.3743 362.684 101.375 361.144 104.248 362.258C106.859 363.271 108.4 366.271 107.287 369.143C106.173 372.015 103.274 373.293 100.401 372.179Z" fill="#4CC326"/>
<path d="M103.843 363.304C106.193 364.215 107.051 366.65 106.242 368.739C105.432 370.827 102.895 371.946 100.806 371.136C98.4551 370.225 97.5967 367.789 98.4065 365.701C99.2163 363.612 101.753 362.493 103.843 363.304ZM104.551 361.476C101.417 360.261 97.793 361.859 96.5783 364.992C95.3636 368.125 96.963 371.748 100.097 372.963C103.231 374.179 106.855 372.58 108.07 369.447C109.285 366.315 107.946 362.792 104.551 361.476Z" fill="#141414"/>
<path d="M129.697 436.098C127.085 435.086 125.544 432.086 126.658 429.214C127.67 426.603 130.67 425.063 133.543 426.177C136.155 427.19 137.696 430.19 136.582 433.062C135.57 435.673 132.57 437.212 129.697 436.098Z" fill="#4CC326"/>
<path d="M133.238 426.959C135.588 427.871 136.447 430.306 135.637 432.394C134.726 434.744 132.29 435.602 130.201 434.792C127.851 433.88 126.992 431.445 127.802 429.356C128.612 427.268 131.149 426.149 133.238 426.959ZM133.845 425.393C130.711 424.178 127.087 425.776 125.872 428.909C124.658 432.042 126.257 435.665 129.391 436.88C132.525 438.095 136.149 436.497 137.364 433.364C138.579 430.231 136.979 426.608 133.845 425.393Z" fill="#141414"/>
<path d="M228.248 700.933C225.636 699.921 224.095 696.921 225.209 694.049C226.221 691.438 229.222 689.898 232.095 691.012C234.706 692.025 236.247 695.025 235.133 697.897C234.121 700.508 231.121 702.047 228.248 700.933Z" fill="#4CC326"/>
<path d="M231.79 691.794C234.14 692.706 234.999 695.141 234.189 697.229C233.278 699.579 230.842 700.437 228.753 699.627C226.402 698.715 225.544 696.28 226.354 694.192C227.163 692.103 229.7 690.984 231.79 691.794ZM232.397 690.228C229.263 689.013 225.639 690.611 224.424 693.744C223.209 696.877 224.809 700.5 227.943 701.715C231.077 702.93 234.701 701.332 235.916 698.199C237.392 695.168 235.792 691.544 232.397 690.228Z" fill="#141414"/>
<path d="M242.027 593.476C239.415 592.464 237.874 589.464 238.988 586.592C240 583.981 243 582.441 245.873 583.555C248.485 584.568 250.026 587.568 248.912 590.44C247.799 593.312 244.899 594.59 242.027 593.476Z" fill="#4CC326"/>
<path d="M245.468 584.597C247.819 585.509 248.677 587.944 247.868 590.033C246.957 592.382 244.521 593.24 242.432 592.43C240.342 591.62 239.223 589.083 240.032 586.995C240.842 584.906 243.379 583.787 245.468 584.597ZM246.177 582.77C243.043 581.555 239.419 583.153 238.204 586.286C236.989 589.419 238.589 593.042 241.723 594.257C244.857 595.473 248.481 593.874 249.696 590.741C251.172 587.71 249.572 584.086 246.177 582.77Z" fill="#141414"/>
<path d="M385.938 678.702C383.326 677.689 381.785 674.689 382.899 671.817C383.911 669.207 386.911 667.667 389.784 668.781C392.396 669.794 393.937 672.794 392.823 675.665C391.449 678.436 388.549 679.715 385.938 678.702Z" fill="#4CC326"/>
<path d="M389.378 669.824C391.729 670.735 392.587 673.17 391.777 675.259C390.866 677.609 388.431 678.466 386.341 677.656C383.991 676.745 383.132 674.31 383.942 672.221C384.491 670.031 387.028 668.913 389.378 669.824ZM390.087 667.996C386.953 666.781 383.329 668.379 382.114 671.512C380.899 674.645 382.499 678.269 385.633 679.484C388.767 680.699 392.391 679.101 393.606 675.968C394.82 672.835 393.221 669.211 390.087 667.996Z" fill="#141414"/>
<path d="M181.235 585.218C178.624 584.205 177.083 581.205 178.196 578.333C179.209 575.723 182.209 574.183 185.082 575.297C187.694 576.309 189.234 579.309 188.121 582.181C187.109 584.792 184.108 586.332 181.235 585.218Z" fill="#4CC326"/>
<path d="M184.676 576.34C187.027 577.252 187.885 579.687 187.075 581.776C186.265 583.864 183.729 584.983 181.639 584.173C179.289 583.262 178.43 580.826 179.24 578.738C180.05 576.649 182.587 575.53 184.676 576.34ZM185.385 574.513C182.25 573.298 178.626 574.896 177.412 578.029C176.197 581.162 177.796 584.785 180.931 586C184.065 587.216 187.689 585.617 188.903 582.484C190.118 579.352 188.78 575.829 185.385 574.513Z" fill="#141414"/>
<path d="M379.243 719.934C376.632 718.921 375.091 715.921 376.205 713.049C377.217 710.439 380.217 708.899 383.09 710.013C385.963 711.127 387.243 714.026 386.129 716.897C385.117 719.508 381.855 720.947 379.243 719.934Z" fill="#4CC326"/>
<path d="M382.79 710.794C385.14 711.706 385.999 714.141 385.189 716.229C384.379 718.318 381.842 719.437 379.753 718.627C377.663 717.817 376.544 715.28 377.354 713.192C378.163 711.103 380.439 709.883 382.79 710.794ZM383.397 709.228C380.263 708.013 376.639 709.611 375.424 712.744C374.21 715.877 375.809 719.5 378.943 720.715C382.077 721.93 385.701 720.332 386.916 717.199C388.131 714.066 386.531 710.443 383.397 709.228Z" fill="#141414"/>
<path d="M577.703 744.346C575.091 743.333 573.551 740.333 574.664 737.461C575.676 734.851 578.677 733.311 581.55 734.425C584.161 735.437 585.702 738.438 584.589 741.309C583.315 743.819 580.315 745.359 577.703 744.346Z" fill="#4CC326"/>
<path d="M581.243 735.211C583.593 736.122 584.452 738.557 583.642 740.646C582.731 742.996 580.295 743.853 578.206 743.043C575.855 742.132 574.997 739.697 575.807 737.608C576.355 735.418 578.892 734.299 581.243 735.211ZM581.951 733.383C578.817 732.168 575.193 733.766 573.979 736.899C572.764 740.032 574.363 743.656 577.497 744.871C580.631 746.086 584.255 744.488 585.47 741.355C586.685 738.222 585.085 734.598 581.951 733.383Z" fill="#141414"/>
<path d="M593.227 727.539C590.616 726.527 589.075 723.527 590.188 720.655C591.201 718.044 594.201 716.504 597.074 717.618C599.686 718.631 601.226 721.631 600.113 724.503C599.101 727.114 596.1 728.653 593.227 727.539Z" fill="#4CC326"/>
<path d="M596.669 718.663C599.02 719.574 599.878 722.009 599.068 724.098C598.259 726.187 595.722 727.305 593.632 726.495C591.282 725.584 590.424 723.149 591.233 721.06C592.043 718.971 594.58 717.853 596.669 718.663ZM597.378 716.835C594.244 715.62 590.62 717.218 589.405 720.351C588.19 723.484 589.79 727.108 592.924 728.323C596.058 729.538 599.682 727.94 600.897 724.807C602.111 721.674 600.512 718.05 597.378 716.835Z" fill="#141414"/>
<path d="M645.788 739.206C643.176 738.194 641.636 735.194 642.749 732.322C643.761 729.711 646.762 728.171 649.635 729.285C652.246 730.298 653.787 733.298 652.674 736.17C651.661 738.781 648.4 740.219 645.788 739.206Z" fill="#4CC326"/>
<path d="M649.331 730.07C651.681 730.982 652.54 733.417 651.73 735.506C650.92 737.594 648.383 738.713 646.294 737.903C643.944 736.992 643.085 734.556 643.895 732.468C644.705 730.379 646.98 729.159 649.331 730.07ZM650.039 728.243C646.905 727.028 643.281 728.626 642.067 731.759C640.852 734.892 642.451 738.515 645.585 739.73C648.72 740.946 652.344 739.347 653.558 736.214C654.773 733.082 653.174 729.458 650.039 728.243Z" fill="#141414"/>
<path d="M789.248 621.933C786.636 620.92 785.095 617.92 786.209 615.048C787.221 612.437 790.222 610.898 793.095 612.012C795.706 613.024 797.247 616.024 796.134 618.896C795.02 621.768 791.86 622.945 789.248 621.933Z" fill="#4CC326"/>
<path d="M792.688 613.055C795.039 613.967 795.897 616.402 795.088 618.491C794.177 620.84 791.741 621.698 789.652 620.888C787.301 619.976 786.443 617.541 787.252 615.453C787.801 613.263 790.338 612.144 792.688 613.055ZM793.397 611.228C790.263 610.013 786.639 611.611 785.424 614.744C784.209 617.877 785.809 621.5 788.943 622.715C792.077 623.93 795.701 622.332 796.916 619.199C798.131 616.066 796.531 612.443 793.397 611.228Z" fill="#141414"/>
<path d="M789.837 513.356C787.226 512.343 785.685 509.343 786.798 506.471C787.811 503.86 790.811 502.321 793.684 503.434C796.296 504.447 797.837 507.447 796.723 510.319C795.711 512.93 792.449 514.368 789.837 513.356Z" fill="#4CC326"/>
<path d="M793.378 504.217C795.728 505.128 796.587 507.564 795.777 509.652C794.967 511.741 792.43 512.86 790.341 512.049C788.252 511.239 787.132 508.703 787.942 506.614C788.752 504.526 791.027 503.306 793.378 504.217ZM793.985 502.651C790.851 501.435 787.227 503.034 786.012 506.167C784.798 509.3 786.397 512.923 789.531 514.138C792.665 515.353 796.289 513.755 797.504 510.622C798.719 507.489 797.119 503.866 793.985 502.651Z" fill="#141414"/>
<path d="M750.248 541.933C747.637 540.92 746.096 537.92 747.209 535.048C748.222 532.437 751.222 530.898 754.095 532.012C756.707 533.024 758.247 536.024 757.134 538.896C756.02 541.768 752.86 542.945 750.248 541.933Z" fill="#4CC326"/>
<path d="M753.688 533.055C756.039 533.967 756.897 536.402 756.088 538.49C755.177 540.84 752.741 541.698 750.652 540.888C748.301 539.976 747.443 537.541 748.252 535.453C748.801 533.263 751.338 532.144 753.688 533.055ZM754.397 531.228C751.263 530.013 747.639 531.611 746.424 534.744C745.21 537.877 746.809 541.5 749.943 542.715C753.077 543.93 756.701 542.332 757.916 539.199C759.131 536.066 757.531 532.443 754.397 531.228Z" fill="#141414"/>
<path d="M824.875 457.862C822.264 456.85 820.723 453.85 821.836 450.978C822.849 448.367 825.849 446.827 828.722 447.941C831.334 448.954 832.874 451.954 831.761 454.826C830.749 457.437 827.487 458.875 824.875 457.862Z" fill="#4CC326"/>
<path d="M828.417 448.724C830.768 449.635 831.626 452.07 830.816 454.159C830.007 456.248 827.47 457.366 825.38 456.556C823.03 455.645 822.171 453.21 822.981 451.121C823.791 449.033 826.067 447.813 828.417 448.724ZM829.025 447.157C825.891 445.942 822.267 447.54 821.052 450.673C819.837 453.806 821.437 457.43 824.571 458.645C827.705 459.86 831.329 458.262 832.543 455.129C833.758 451.996 832.159 448.373 829.025 447.157Z" fill="#141414"/>
<path d="M790.486 269.145C787.874 268.132 786.333 265.132 787.447 262.26C788.459 259.649 791.46 258.11 794.333 259.224C796.944 260.236 798.485 263.236 797.372 266.108C796.258 268.98 793.359 270.259 790.486 269.145Z" fill="#4CC326"/>
<path d="M793.931 260.267C796.281 261.178 797.14 263.613 796.33 265.702C795.419 268.052 792.983 268.909 790.894 268.099C788.543 267.188 787.685 264.753 788.495 262.664C789.305 260.575 791.841 259.457 793.931 260.267ZM794.639 258.439C791.505 257.224 787.881 258.822 786.667 261.955C785.452 265.088 787.051 268.711 790.185 269.927C793.319 271.142 796.943 269.544 798.158 266.411C799.634 263.379 798.035 259.756 794.639 258.439Z" fill="#141414"/>
<path d="M587.412 186.191C584.8 185.178 583.259 182.178 584.373 179.306C585.385 176.696 588.386 175.156 591.259 176.27C593.87 177.282 595.411 180.282 594.298 183.154C593.285 185.765 590.285 187.305 587.412 186.191Z" fill="#4CC326"/>
<path d="M590.953 177.055C593.303 177.966 594.162 180.402 593.352 182.49C592.441 184.84 590.005 185.698 587.916 184.887C585.565 183.976 584.707 181.541 585.517 179.452C586.327 177.364 588.863 176.245 590.953 177.055ZM591.661 175.228C588.527 174.012 584.903 175.611 583.689 178.744C582.474 181.876 584.073 185.5 587.207 186.715C590.341 187.93 593.965 186.332 595.18 183.199C596.395 180.066 594.795 176.443 591.661 175.228Z" fill="#141414"/>
<path d="M638.246 245.933C635.634 244.921 634.094 241.921 635.207 239.049C636.22 236.438 639.22 234.898 642.093 236.012C644.705 237.025 646.245 240.025 645.132 242.897C644.12 245.508 641.119 247.047 638.246 245.933Z" fill="#4CC326"/>
<path d="M641.688 237.055C644.039 237.967 644.897 240.402 644.088 242.49C643.177 244.84 640.741 245.698 638.652 244.888C636.301 243.976 635.443 241.541 636.252 239.453C637.163 237.103 639.599 236.245 641.688 237.055ZM642.397 235.228C639.263 234.013 635.639 235.611 634.424 238.744C633.209 241.877 634.809 245.5 637.943 246.715C641.077 247.93 644.701 246.332 645.916 243.199C647.392 240.168 645.792 236.544 642.397 235.228Z" fill="#141414"/>
<path d="M488.846 187.022C486.234 186.009 484.693 183.009 485.807 180.137C486.819 177.527 489.819 175.987 492.692 177.101C495.565 178.215 496.845 181.114 495.731 183.985C494.719 186.596 491.457 188.035 488.846 187.022Z" fill="#4CC326"/>
<path d="M492.385 177.888C494.736 178.8 495.594 181.235 494.784 183.323C493.975 185.412 491.438 186.531 489.348 185.721C487.259 184.911 485.777 182.534 486.587 180.445C487.397 178.357 490.035 176.977 492.385 177.888ZM493.094 176.061C489.96 174.846 486.336 176.444 485.121 179.577C483.906 182.71 485.506 186.333 488.64 187.548C491.774 188.763 495.398 187.165 496.613 184.032C497.827 180.899 496.228 177.276 493.094 176.061Z" fill="#141414"/>
<path d="M508.957 117.335C506.345 116.323 504.805 113.323 505.918 110.451C506.93 107.84 509.931 106.3 512.804 107.414C515.415 108.427 516.956 111.427 515.843 114.299C514.468 117.069 511.569 118.348 508.957 117.335Z" fill="#4CC326"/>
<path d="M512.399 108.457C514.749 109.368 515.608 111.804 514.798 113.892C513.887 116.242 511.451 117.1 509.362 116.289C507.011 115.378 506.153 112.943 506.963 110.854C507.511 108.664 510.048 107.546 512.399 108.457ZM513.107 106.629C509.712 105.313 506.088 106.911 504.873 110.044C503.658 113.177 505.258 116.801 508.392 118.016C511.526 119.231 515.15 117.633 516.365 114.5C517.841 111.468 516.241 107.845 513.107 106.629Z" fill="#141414"/>
<path d="M582.248 838.93C579.637 837.917 578.096 834.917 579.209 832.045C580.222 829.434 583.222 827.895 586.095 829.009C588.707 830.021 590.248 833.021 589.134 835.893C588.122 838.504 584.86 839.942 582.248 838.93Z" fill="#4CC326"/>
<path d="M585.688 830.055C588.039 830.967 588.897 833.402 588.088 835.49C587.177 837.84 584.741 838.698 582.652 837.888C580.301 836.976 579.443 834.541 580.252 832.453C580.801 830.263 583.338 829.144 585.688 830.055ZM586.397 828.228C583.263 827.013 579.639 828.611 578.424 831.744C577.209 834.877 578.809 838.5 581.943 839.715C585.077 840.93 588.701 839.332 589.916 836.199C591.13 833.066 589.531 829.443 586.397 828.228Z" fill="#141414"/>
<path d="M79.4143 500.685C76.8026 499.673 75.2619 496.673 76.3754 493.801C77.3877 491.19 80.3881 489.65 83.261 490.764C85.8727 491.777 87.4134 494.777 86.2999 497.649C85.2877 500.26 82.2872 501.799 79.4143 500.685Z" fill="#4CC326"/>
<path d="M82.9564 491.55C85.3069 492.461 86.1654 494.896 85.3556 496.985C84.5457 499.073 82.009 500.192 79.9196 499.382C77.569 498.471 76.7106 496.035 77.5204 493.947C78.3302 491.858 80.867 490.739 82.9564 491.55ZM83.665 489.722C80.5309 488.507 76.9069 490.105 75.6922 493.238C74.4775 496.371 76.0769 499.994 79.211 501.21C82.3451 502.425 85.969 500.827 87.1838 497.694C88.3985 494.561 87.0602 491.038 83.665 489.722Z" fill="#141414"/>
<defs>
<filter id="filter0_d_898_8" x="76.451" y="107.688" width="719.873" height="732.743" filterUnits="userSpaceOnUse" color-interpolation-filters="sRGB">
<feFlood flood-opacity="0" result="BackgroundImageFix"/>
<feColorMatrix in="SourceAlpha" type="matrix" values="0 0 0 0 0 0 0 0 0 0 0 0 0 0 0 0 0 0 127 0" result="hardAlpha"/>
<feOffset/>
<feGaussianBlur stdDeviation="2.41091"/>
<feComposite in2="hardAlpha" operator="out"/>
<feColorMatrix type="matrix" values="0 0 0 0 0.298039 0 0 0 0 0.764706 0 0 0 0 0.14902 0 0 0 1 0"/>
<feBlend mode="normal" in2="BackgroundImageFix" result="effect1_dropShadow_898_8"/>
<feBlend mode="normal" in="SourceGraphic" in2="effect1_dropShadow_898_8" result="shape"/>
</filter>
<filter id="filter1_d_898_8" x="154.596" y="137.205" width="677.697" height="602.912" filterUnits="userSpaceOnUse" color-interpolation-filters="sRGB">
<feFlood flood-opacity="0" result="BackgroundImageFix"/>
<feColorMatrix in="SourceAlpha" type="matrix" values="0 0 0 0 0 0 0 0 0 0 0 0 0 0 0 0 0 0 127 0" result="hardAlpha"/>
<feOffset/>
<feGaussianBlur stdDeviation="2.41091"/>
<feComposite in2="hardAlpha" operator="out"/>
<feColorMatrix type="matrix" values="0 0 0 0 0.298039 0 0 0 0 0.764706 0 0 0 0 0.14902 0 0 0 1 0"/>
<feBlend mode="normal" in2="BackgroundImageFix" result="effect1_dropShadow_898_8"/>
<feBlend mode="normal" in="SourceGraphic" in2="effect1_dropShadow_898_8" result="shape"/>
</filter>
<filter id="filter2_d_898_8" x="126.196" y="174.646" width="635.098" height="569.697" filterUnits="userSpaceOnUse" color-interpolation-filters="sRGB">
<feFlood flood-opacity="0" result="BackgroundImageFix"/>
<feColorMatrix in="SourceAlpha" type="matrix" values="0 0 0 0 0 0 0 0 0 0 0 0 0 0 0 0 0 0 127 0" result="hardAlpha"/>
<feOffset/>
<feGaussianBlur stdDeviation="2.41091"/>
<feComposite in2="hardAlpha" operator="out"/>
<feColorMatrix type="matrix" values="0 0 0 0 0.298039 0 0 0 0 0.764706 0 0 0 0 0.14902 0 0 0 1 0"/>
<feBlend mode="normal" in2="BackgroundImageFix" result="effect1_dropShadow_898_8"/>
<feBlend mode="normal" in="SourceGraphic" in2="effect1_dropShadow_898_8" result="shape"/>
</filter>
</defs>
</svg>
