<svg width="159" height="116" viewBox="0 0 159 116" fill="none" xmlns="http://www.w3.org/2000/svg">
<g clip-path="url(#clip0_1007_1415)">
<path d="M113.343 16.8519C113.329 16.8576 113.316 16.8635 113.302 16.8694M113.302 16.8694C112.424 17.2501 111.259 17.9956 113.343 18.067C115.459 18.1395 115.239 17.0574 114.865 16.5073L113.302 16.8694ZM38.1121 24.2334C37.955 24.4995 37.7642 25.1258 38.2571 25.503C38.7499 25.8803 38.2329 25.9746 37.9128 25.9746L37.3148 26.1378C37.2182 26.1862 37.0141 26.1705 36.9706 25.7207C36.9162 25.1584 36.9162 24.6687 37.1155 24.578C37.3148 24.4873 37.2605 24.0883 37.1155 23.8889C36.9706 23.6894 36.6988 23.6168 36.7351 23.3085C36.7713 23.0002 37.3148 22.7281 37.3148 22.6918C37.3148 22.6556 37.8947 22.6737 37.7497 22.2203C37.6338 21.8575 38.39 21.9119 38.7826 21.9845C38.9939 21.9664 39.4312 21.8176 39.4892 21.3679C39.5472 20.9181 39.6823 20.2736 39.7428 20.0076C39.761 19.8262 39.6958 19.4853 39.2899 19.5723C38.7826 19.6811 38.3113 18.1577 37.9128 17.3052C37.5939 16.6233 37.2484 17.3597 37.1155 17.8131C36.9827 17.9098 36.6227 18.0742 36.2459 17.9582C35.869 17.8421 34.9051 18.5506 34.4702 18.9194C34.3313 18.9376 34.1368 19.1443 34.4702 19.8262C34.8036 20.5082 33.8723 20.2313 33.3649 20.0076C33.2019 19.929 32.8214 19.9314 32.6039 20.5698C32.3865 21.2083 32.2597 21.9361 32.2234 22.2203C31.7282 22.4863 30.3789 22.8841 28.9439 22.3472C27.1501 21.6762 27.0051 21.386 26.1898 21.6037C25.3744 21.8213 26.081 23.8707 26.1354 23.9251C26.1898 23.9795 26.2622 24.3423 26.0267 24.4873C25.7911 24.6324 25.6824 23.4899 25.6099 23.3992C25.5375 23.3085 24.9395 22.5286 24.704 22.5649C24.4684 22.6011 24.4503 22.3835 23.798 22.8732C23.2762 23.2649 22.6384 23.1453 22.3847 23.0364C22.0042 23.1453 21.2541 23.4753 21.2976 23.9251C21.3411 24.3749 20.6876 24.2214 20.3554 24.0884C20.138 24.0884 19.743 24.1935 19.9025 24.6143C20.0619 25.0351 19.3891 25.3458 19.0327 25.4486C18.616 25.8053 17.768 26.5948 17.71 26.8995C17.6521 27.2042 17.9033 27.5101 18.0362 27.625C18.1026 27.6794 18.1956 27.8173 18.0362 27.9333C17.8369 28.0784 17.5469 28.3142 18.0362 28.7858C18.5254 29.2573 18.5616 29.1122 18.5073 29.7107C18.5677 29.9102 18.5472 30.2947 17.9818 30.2367C17.4165 30.1786 16.8524 30.5994 16.641 30.817C16.5746 30.8533 16.5214 30.9549 16.8403 31.071C17.1592 31.187 16.7195 31.3732 16.4598 31.4518C16.2665 31.5667 15.9561 31.9197 16.2605 32.4131C16.4357 32.534 16.67 32.7649 16.2062 32.7214C15.6264 32.667 15.6264 32.9753 15.7532 33.3018C15.88 33.6282 16.0431 34.136 15.4633 34.4625C14.9994 34.7237 14.7144 33.9547 14.6298 33.5375C14.5453 33.3441 14.2892 33.0732 13.9413 33.5375C13.5934 34.0018 13.2648 34.2388 13.144 34.2993L12.6186 34.8434C12.4193 34.9461 12.1547 35.1952 12.6911 35.3693C13.2274 35.5435 13.4944 35.8409 13.5608 35.9679C13.6272 36.0888 13.8579 36.3161 14.2493 36.258C14.515 36.4696 14.8871 37.0198 14.2493 37.5276V38.1624L13.4521 38.2349C13.2165 38.1865 12.7853 38.224 12.9447 38.7609C13.1042 39.2977 13.3856 39.5649 13.5064 39.6316C13.597 39.6616 13.7238 39.78 13.5064 40.0124C13.289 40.2444 12.8602 40.6288 12.6729 40.7924L12.0931 40.8466C11.9965 40.883 11.8721 40.999 12.1475 41.1732C12.4229 41.347 12.685 41.5359 12.7817 41.6083C12.6729 41.9832 12.7345 42.7944 13.8507 43.0411C14.0983 43.1258 14.445 43.3859 13.8507 43.7486C13.6514 43.8392 13.289 44.1366 13.4339 44.601C13.5789 45.0653 13.1803 44.7942 12.9629 44.601C12.8058 44.504 12.383 44.3686 11.9482 44.601C11.6884 44.3167 11.0821 43.9481 10.7342 44.7459C10.3863 45.544 9.52625 45.272 9.1397 45.036C9.04308 44.9636 8.90777 44.7169 9.1397 44.3108C9.37164 43.9046 8.71693 43.2949 8.36056 43.0411C8.17937 42.9805 7.82423 42.954 7.85323 43.3313C7.67809 43.416 7.42203 43.6579 7.79892 43.9481C8.17577 44.2383 7.6419 44.226 7.32781 44.1837C7.28553 43.8753 7.04153 43.2371 6.40375 43.15C6.44604 42.9928 6.42911 42.5807 6.02326 42.1887C6.01721 41.9468 5.86379 41.583 5.29847 42.0616C5.05083 42.1345 4.55924 42.3158 4.57371 42.4607C4.41064 42.5272 3.99388 42.5114 3.63149 41.9167C3.26911 41.3217 3.11811 41.7172 3.08792 41.9892C3.09396 42.104 3.03356 42.2505 2.74365 41.9167C2.45374 41.583 2.30879 42.1404 2.27256 42.4607C2.26652 42.7149 2.46824 43.3313 3.32346 43.7668L3.43205 44.6734H3.08792C2.85232 44.4679 2.1782 44.0605 1.36647 44.0748C1.24567 44.0871 1.07656 44.1801 1.36647 44.4557C1.72885 44.8005 2.01878 46.1786 1.16719 46.2151C0.485906 46.244 0.883319 46.9645 1.16719 47.3212C1.64433 47.3034 2.66384 47.4012 2.92476 47.938L3.83071 48.1011C4.12665 48.6938 4.57723 49.9223 4.01191 50.0961C3.87903 50.2715 3.75823 50.7311 4.33806 51.1662V52.0733C4.52526 52.2969 4.77654 52.7768 4.28368 52.9074L4.42863 54.6122C4.08437 54.8299 3.64952 55.2797 4.66421 55.3379C4.79706 55.6039 5.10992 56.1649 5.29835 56.2809C5.21379 56.5529 5.16791 57.1733 5.66073 57.4777C5.697 57.7137 5.86007 58.207 6.22245 58.2941L6.69351 59.2554L6.76601 59.9082C7.09216 60.1077 7.61038 60.5864 7.07405 60.9059L6.96532 61.4134L8.52356 62.4471C8.44505 62.6289 8.47281 63.0568 9.21208 63.3177C9.35099 63.3724 9.54547 63.5173 9.21208 63.6626C8.79536 63.8439 7.87126 64.2065 8.72286 64.8594L8.97655 66.6006C8.90405 66.9272 8.79172 67.6271 8.92216 67.8156C9.05265 68.0044 9.84626 67.9791 10.2268 67.9427C10.2811 67.8944 10.4225 67.812 10.5529 67.8702C10.6833 67.928 11.0542 68.2087 11.2233 68.3418C11.3803 68.3901 11.6473 68.3524 11.4588 67.8156C11.2704 67.2788 11.5374 66.7819 11.6944 66.6006C11.6159 66.3527 11.506 65.8171 11.6944 65.6575L11.8394 64.8594C12.0628 64.8475 12.5025 64.6963 12.4735 64.1883C12.9809 63.7833 13.8542 62.7591 13.2889 61.9032C13.1862 61.7278 13.1077 61.4499 13.615 61.7401C14.2492 62.1027 15.7168 61.5041 15.9161 60.9783C16.1457 61.2202 16.7315 61.6819 17.2389 61.5948C17.4865 61.746 18.1231 61.9578 18.6884 61.5948C19.2537 61.2321 18.779 60.8271 18.4709 60.6699C18.8213 60.7665 19.5037 60.7388 19.4313 59.854C19.4192 59.618 19.4675 59.1247 19.7574 59.0376C20.1198 58.9287 19.5219 57.4235 18.8877 57.2964C18.3804 57.1951 18.9904 56.9397 19.3588 56.8249C19.3709 56.4805 19.3443 55.7041 19.1414 55.3557C18.9385 55.0077 19.8299 55.0295 20.301 55.0837C20.5003 55.1261 20.8844 55.0912 20.8264 54.6122C20.754 54.014 21.9317 53.9411 22.0404 53.9776C22.1491 54.014 23.0732 53.9051 23.0007 54.7393C22.9283 55.5734 23.2 55.5374 23.2725 55.5734C23.345 55.6099 23.9611 55.7005 23.6893 54.9388L25.5918 54.8299C25.6159 54.6245 25.8092 54.3691 26.389 54.993C26.9749 54.8664 28.1357 54.8299 28.0922 55.7005C28.1405 55.8153 28.4872 55.9979 29.4874 55.8094C29.584 56.1178 29.8353 56.7996 30.0672 57.0609C30.031 57.4235 30.0636 58.2106 30.4839 58.4572V59.0376C30.0249 59.4426 29.5091 60.1873 31.1181 59.9264C31.2268 60.4945 31.6762 61.4463 32.6039 60.7063C32.9723 60.7123 33.7417 60.8406 33.8722 61.3046C33.7574 61.5164 33.7092 61.9143 34.4339 61.8125C34.6876 61.746 35.1985 61.8161 35.213 62.6289C35.2275 63.4413 35.4969 63.6685 35.6298 63.6808C35.7022 63.9405 36.0067 64.3736 36.6444 64.0252C36.9827 64.6115 37.9055 65.5522 38.8912 64.6238C39.0059 63.971 39.047 62.636 38.2933 62.52C38.0819 62.0603 37.9055 61.3517 38.8912 62.1934C39.2415 62.1268 39.9964 61.7365 40.2139 60.7063C40.522 60.7364 41.1489 60.8695 41.1924 61.1597C41.2466 61.5223 41.9894 61.5405 41.7359 61.0872C41.533 60.7242 41.1802 60.392 41.0291 60.2708C40.969 60.1077 40.9785 59.8104 41.5006 59.9264C42.0222 60.0424 41.8747 59.5756 41.7359 59.3278L43.1855 59.9989C43.4089 60.023 43.8994 60.0571 44.0734 59.9989C44.2471 59.9407 45.5108 60.567 46.1206 60.8877L47.8238 60.8148C47.9448 60.8394 48.2118 60.9419 48.313 61.1597C48.4147 61.3774 49.1646 61.2503 49.5273 61.1597C49.7084 61.4075 50.1831 61.8596 50.6324 61.6854C51.0817 61.5116 50.9405 61.3469 50.8135 61.2867C51.2363 61.2262 52.1579 61.3445 52.4625 62.3022C52.9335 62.1569 53.7815 62.128 53.4046 63.1728C52.9335 64.4785 53.8033 63.7168 52.6978 64.3696C52.7524 64.6056 52.9952 65.0554 53.5315 64.9683C53.6162 64.8352 53.8068 64.8158 53.8938 65.8024C53.9809 66.7894 54.4737 66.0685 54.709 65.5851C55.0535 65.6817 55.5353 66.0384 54.709 66.6912C53.8832 67.3441 55.9957 67.2534 57.1553 67.1267C57.7652 66.8183 58.9637 66.3864 58.8766 67.1267C58.7679 68.0516 59.8552 70.0465 59.9817 70.0101C60.1087 69.9741 60.4168 71.4429 60.4168 71.6606C60.4168 71.8784 60.8155 73.4382 60.7427 73.8373C60.6703 74.236 60.7427 75.3061 61.4131 75.3425C62.0835 75.3786 61.6489 74.5808 62.2105 74.6533C62.7721 74.7257 62.3557 75.6327 62.8085 75.9047C63.2614 76.1767 63.1166 76.63 63.6601 76.358C64.2035 76.086 64.1675 76.7571 64.548 76.5576C64.9285 76.358 64.9285 75.7776 65.3632 76.5576C65.7983 77.3375 66.2871 76.358 66.2512 77.3557C66.2148 78.353 66.7404 78.317 66.9939 78.8245C67.2475 79.3325 67.3562 79.6951 67.8819 79.9493C68.4071 80.2031 67.9361 80.5297 68.7153 80.2395C69.4944 79.9493 68.1172 80.8741 69.6032 80.7292C69.9414 81.4244 70.7664 82.4664 71.3605 81.0737C71.9949 81.0919 73.3828 80.9794 73.861 80.3844C74.1509 80.5297 74.7343 80.6093 74.749 79.768C75.3288 79.8281 76.579 79.7462 76.9413 78.9334C77.3036 78.121 78.0223 78.9334 78.3367 79.4413C78.8379 79.393 79.9382 79.5138 80.3298 80.3844C80.7209 81.255 81.737 81.1342 82.1958 80.9648C82.9509 81.3155 84.6675 81.7918 85.4937 80.8923C85.6025 80.5356 85.6673 79.6915 85.0586 79.1693C84.4064 78.4872 86.14 77.7366 87.0881 77.4464C87.5109 77.3494 88.4906 77.2833 89.0269 77.7908C89.3528 77.543 90.0632 77.381 90.2954 78.716C90.5671 79.3206 91.2699 80.5186 91.9079 80.475C92.5455 80.4315 92.9347 80.6504 93.0494 80.7652C93.1941 80.8258 93.5347 80.867 93.738 80.5475C93.9915 80.1488 94.499 80.7835 94.6255 80.0035C94.7525 79.2236 97.3977 80.1488 98.9925 81.654C100.268 82.8584 104.452 80.9707 106.385 79.8764C106.367 79.127 106.903 77.8526 109.193 78.7521C109.417 78.4258 110.201 77.9832 111.549 78.8245C112.897 79.6662 113.705 77.6396 113.94 76.5211L113.85 75.2879C114.08 75.2155 114.47 74.8199 114.194 73.8191C113.85 72.5676 115.354 73.8915 113.94 70.9353C114.067 70.2643 114.582 68.9875 115.626 69.2484C115.994 68.9039 116.887 68.2475 117.51 68.3782C118.072 68.759 118.434 68.8133 118.652 68.5955C118.869 68.3782 120.663 68.4324 120.989 69.0128C121.25 69.4772 122.294 70.7417 122.783 71.3162C123.187 71.4793 124.004 72.045 124.033 73.0027C124.743 73.3947 125.054 73.8915 125.12 74.0911C125.531 74.1394 126.338 74.1453 126.28 73.7827C126.628 73.6667 127.186 73.8674 127.421 73.9822L127.53 73.6013C128.375 73.7462 129.998 74.1782 129.722 74.7439C130.338 75.5421 130.737 75.9047 131.009 75.7234C131.226 75.5781 131.172 75.953 131.118 76.1585C131.365 76.2009 131.86 76.1731 131.86 75.7234C133.002 75.7234 133.69 74.6897 133.672 73.9822C133.658 73.4165 134.149 73.3836 134.397 73.4382C134.415 73.3717 134.48 73.1405 134.596 72.749C135.104 72.241 134.76 71.8966 135.339 72.749C135.72 72.8761 136.336 73.3111 135.647 74.2182C136.046 75.2154 136.372 75.6688 136.173 76.2313C136.481 76.5758 136.59 79.2782 136.173 79.9129C136.445 80.4568 136.753 81.4181 135.846 80.4208C134.941 79.4231 134.397 79.4413 134.506 80.747C134.289 80.983 134.017 81.8896 134.832 82.162C134.832 82.9415 135.321 83.5948 135.665 84.1023C136.01 84.6103 135.865 85.3356 135.085 85.3538C134.977 85.4626 134.941 86.2608 135.557 86.2062C135.846 86.6416 136.426 87.0585 136.463 86.2062C136.492 85.5244 136.934 84.5679 137.151 84.1752C137.357 84.556 137.981 85.0747 138.836 84.1023C139.905 82.8873 141.101 83.7943 141.283 79.0787C141.283 78.6432 141.355 78.5165 141.554 78.4619C141.714 78.4183 141.572 77.8878 141.482 77.6277C141.56 77.3193 141.757 76.7678 141.917 77.0291C142.076 76.6229 142.031 74.9253 141.989 74.1271C142.43 73.9822 143.033 73.6338 141.917 73.4018C141.989 72.8761 142.424 71.9326 141.554 71.6606C140.859 71.4433 141.554 71.1107 141.989 70.9714C142.273 70.7964 142.605 70.3296 141.663 69.8652C141.917 69.3755 142.533 67.6889 141.663 66.5641C141.409 65.4944 140.431 64.0616 139.525 63.064C139.206 62.2369 139.114 61.6676 139.108 61.4859C139.313 61.2986 139.434 60.6299 138.275 59.4549C137.785 58.9469 137.604 58.711 137.767 58.4936C137.898 58.3194 136.988 58.2517 136.517 58.2395C136.106 57.8828 135.089 57.3328 134.306 57.9857C133.727 57.9857 133.147 57.7862 133.618 58.9652C134.089 60.1438 132.984 60.7063 132.803 59.2007C132.295 58.802 132.096 58.439 131.86 60.2166C131.353 59.6362 131.498 57.7862 130.157 59.5816C129.45 59.7451 128.364 59.9624 129.777 58.6932C129.777 57.2422 130.592 55.7187 130.737 55.7005C130.882 55.6823 130.266 55.0837 130.501 54.7028C130.737 54.322 130.538 52.8532 131.136 50.9667C130.501 50.3139 130.556 48.754 131.299 48.8993C131.299 47.5572 131.552 45.0178 134.053 45.1449C134.524 44.601 134.488 44.4557 134.27 44.2561C134.096 44.0966 135.611 43.4279 136.39 43.1135C136.68 42.9504 137.057 42.4678 136.245 41.8443C135.434 41.2203 137.441 40.75 138.546 40.5928C138.764 40.6471 139.047 40.8755 138.438 41.3545C137.829 41.8332 138.546 41.8803 138.981 41.8443C139.108 41.3363 139.587 40.3751 140.485 40.5928C140.586 40.2591 140.262 40.115 140.086 40.0849C139.966 39.7582 140.021 39.0184 141.21 38.6702C141.21 37.7634 141.427 36.9654 140.685 38.1624C140.09 39.12 139.386 35.8651 139.108 34.1179V33.338C138.685 33.1325 138.141 32.696 139.344 32.5944C139.634 31.3793 140.032 29.4749 141.373 31.615C142.446 33.3271 142.605 30.8533 142.551 29.4024C142.98 28.8039 143.504 27.6685 142.17 27.9152C141.645 26.8088 140.666 25.6118 141.608 25.7388C142.362 25.8403 142.14 26.0229 141.935 26.1015C141.898 26.4401 141.989 27.1099 142.641 27.0809C143.294 27.0519 143.952 28.5439 144.2 29.2936L144.399 32.5944L145.25 36.1492C145.25 36.7719 145.25 38.1479 145.25 38.6702C145.25 39.3231 145.577 41.1368 146.482 42.0256C147.389 42.914 148.131 45 151.321 46.1062C151.882 46.8497 155.506 48.8993 155.923 48.8993C156.339 48.8993 156.52 45.3987 154.509 44.2561C154.292 43.1135 154.31 42.7509 154.745 42.2976C155.093 41.9349 154.383 41.699 153.984 41.6265C153.609 41.0402 153.14 39.6858 154.256 38.9604C155.372 38.2349 153.634 37.5457 152.625 37.2918C152.033 36.8384 151.204 35.8735 152.625 35.6414C151.918 34.6983 151.538 33.8821 150.378 34.1723C149.45 34.4045 149.533 33.3018 149.69 32.7214C149.122 33.3259 147.881 34.1252 147.461 32.4856C146.935 30.4362 146.32 30.2729 146.048 29.9828C145.776 29.6926 146.482 29.2936 146.863 29.4205C147.243 29.5475 147.008 27.6975 146.7 27.7157C146.392 27.7338 148.367 28.2235 148.077 27.5706C147.787 26.9177 146.736 23.8526 150.052 24.0702C149.943 23.5261 148.838 22.9639 149.255 21.5311C148.856 20.2071 149.309 20.4429 148.186 19.4998C148.258 18.8759 148.506 17.8977 148.621 17.4866C148.476 17.5048 148.186 17.5084 148.186 17.3778C148.186 17.2472 148.089 17.1179 148.041 17.0695C147.968 16.4166 148.059 14.9548 149.001 14.3308C150.179 13.551 148.331 11.8643 147.153 12.6623C146.211 13.3007 146.241 12.8195 146.374 12.499C145.963 12.4265 145.153 12.3576 145.196 12.6623C145.25 13.0432 144.852 13.2971 144.562 13.0613C144.163 13.0069 143.13 13.1701 144.635 12.5897C144.743 11.6466 144.888 11.4653 143.891 10.1413C143.094 9.08211 144.018 8.43041 144.58 8.23693C144.194 7.8198 143.761 7.02178 145.123 7.16688C146.486 7.31198 146.803 6.53814 146.791 6.13309C147.201 6.12102 147.983 5.86831 147.823 4.95421C148.113 3.92043 147.533 3.73906 147.044 4.50082C146.653 5.11019 146.603 4.25896 146.628 3.7572C146.416 3.7572 145.979 3.73906 145.921 3.66652C145.848 3.57584 146.301 3.0136 145.595 2.0705C145.196 1.9254 144.362 1.88913 145.287 1.25435C145.287 0.946024 145.504 0.311242 144.308 1.41757C143.112 2.52391 143.312 2.07049 142.75 2.1249C142.188 2.17931 142.08 3.28565 142.08 3.39447C142.08 3.50329 140.539 4.37385 142.424 4.50082C143.076 4.82724 143.439 5.24441 142.243 4.95421C141.286 4.72205 140.527 4.65194 140.268 4.64588C140.026 4.67612 139.547 4.88528 139.561 5.48017C139.271 5.60713 138.22 5.8429 138.112 6.42329C137.586 6.42329 136.282 6.67718 136.227 7.25758C135.684 7.38451 134.325 7.92864 134.252 8.70849C133.618 9.07122 132.458 9.61531 132.658 11.1932C132.603 11.3927 132.784 11.4834 132.15 11.5741C131.643 11.6466 131.419 12.0759 131.371 12.2814C130.912 12.4326 130.27 12.782 131.371 12.9706C131.487 13.1012 131.782 13.4966 131.915 13.6779C133.195 13.7324 135.035 13.9754 132.15 14.5122C131.987 14.748 131.408 15.6911 131.281 14.2402C131.179 13.0794 130.683 13.7565 130.447 14.2402L129.849 16.5617C129.197 16.6402 127.99 17.2762 128.381 19.1914C127.747 19.1914 127.693 19.1552 127.186 19.4454C126.78 19.6775 126.014 18.7562 125.682 18.2665C125.295 18.3451 124.406 18.5494 123.942 18.7381C123.363 18.9738 122.511 20.7331 122.475 20.8238C122.439 20.9145 122.022 21.6943 121.714 21.785C121.406 21.8757 121.134 22.2384 120.953 21.8757C120.772 21.513 120.645 21.8213 120.5 21.8757C120.355 21.9301 118.706 22.0933 118.67 21.5673C118.633 21.0414 116.731 21.5673 117.075 21.9664C116.296 21.9664 115.698 21.9664 115.535 22.4379C115.405 22.8152 114.164 23.3448 113.56 23.5624L112.437 23.7256L112.944 24.9589C112.697 25.0073 112.205 25.1766 112.219 25.4667C112.237 25.8295 113.886 26.3373 113.923 26.6275C112.89 26.7726 112.147 26.7907 113.179 27.8426C112.219 27.752 111.096 27.2623 110.462 28.8583C109.61 28.423 108.414 27.5706 109.719 30.1641C108.741 30.9259 108.704 31.5425 107.653 30.1641C106.812 29.0614 106.469 27.9152 106.403 27.4799C105.775 26.8935 104.421 26.0217 104.029 27.226C103.776 27.5343 103.142 27.2078 103.287 26.8088C103.431 26.4099 100.569 27.3711 102.508 28.3505C102.67 28.5681 102.598 29.1122 101.692 28.9308C100.913 29.3298 99.5723 29.6382 99.2278 28.4956C98.5756 28.5971 97.2289 28.683 96.6368 28.7132C96.6431 28.8462 96.5968 29.094 96.365 29.0215C96.0751 28.9308 96.0387 28.024 95.4593 29.0215C94.9953 29.8195 94.3597 30.2488 94.1003 30.3636C93.3935 30.5329 92.2738 30.5958 93.4481 29.4931C93.6652 28.7676 94.8795 27.2562 95.4593 26.5912C95.7611 26.3675 96.1839 25.7243 95.4593 24.9408C95.3683 24.1609 95.3323 23.0183 93.4299 22.8551C92.8682 22.7462 91.2193 24.3967 92.2338 22.057C91.7267 21.4767 89.8061 20.6424 89.0811 21.9845C88.3565 23.3266 88.8094 22.3472 88.4831 23.5987C87.9396 23.6712 87.1968 23.0546 87.0517 24.8682C86.744 24.8682 86.1277 25.2672 86.1823 23.6894C85.8054 23.3847 85.6025 23.3931 85.5479 23.4354C85.6808 23.5866 85.9066 23.9142 85.7472 24.0158C85.5479 24.1427 84.6963 23.78 84.4428 24.5055C84.1889 25.231 84.1347 24.8682 84.0077 25.3035C83.3555 25.3035 81.616 25.3761 81.1631 26.4099C80.3476 26.1015 80.221 26.2648 79.8765 26.5368C79.5324 26.8088 78.0828 26.3736 79.4782 28.024C79.6772 28.3686 79.7499 28.55 79.2243 28.5318C78.8038 28.5173 77.5754 28.5258 77.0137 28.5318C76.6214 28.2719 75.771 28.0276 75.5099 29.1304C74.9483 29.1304 73.0276 29.0578 75.0207 29.9828L75.7093 32.1954C75.9628 32.1652 76.4232 32.1773 76.2345 32.4675C75.9992 32.8302 75.6729 32.6488 75.5099 32.6851C75.3794 32.7141 75.0088 31.4397 74.8395 30.7989C74.586 30.8291 74.0679 30.8352 74.0244 30.6175C73.9698 30.3455 74.4408 29.9828 73.7704 29.9828C73.1 29.9828 73.0276 29.8921 72.7377 30.2004C72.4478 30.5087 73.1546 30.4362 72.7377 30.7082C72.3208 30.9803 71.6686 30.418 71.6686 31.0528C71.6686 31.6876 72.4478 31.5969 71.8138 32.0322C71.1794 32.4675 71.1252 32.7395 71.0888 32.1954C71.0528 31.6513 71.8138 30.3092 71.8138 30.2004C71.8138 30.0916 72.2485 28.3142 71.9585 28.1691C71.6686 28.024 71.5599 27.1172 71.3245 29.0215C71.0888 30.9259 69.712 30.4362 70.4548 28.8946C70.3278 28.3323 69.0776 27.8064 70.2012 27.099C71.3245 26.3917 69.1503 25.8476 69.2409 26.9358C68.6429 27.099 67.9361 26.9177 68.0812 28.024C67.6885 27.9515 66.9287 28.024 67.0303 28.8946C65.6832 29.3117 63.3737 30.447 64.9103 31.6513C64.0165 32.1168 62.6709 33.1095 64.4393 33.3562C64.234 33.7371 63.9318 34.662 64.3669 35.3149H63.5149L62.5004 32.9934H62.0112C62.2528 33.5134 62.5475 34.5786 61.7936 34.6801C61.0401 34.7817 61.0931 33.4166 61.2138 32.7214L62.0112 32.5219C62.2228 32.0927 62.4387 31.2161 61.6125 31.1435C61.1295 30.6115 60.134 29.6092 60.0181 29.8558L59.7824 28.3505C59.5712 28.0603 59.1302 27.8136 59.0578 29.1485C59.2813 29.5112 59.6341 30.3274 59.2571 30.6901C59.4683 31.0589 59.6376 31.7674 58.6231 31.6513C57.8582 32.0866 56.693 32.6198 58.1516 31.2705C58.3332 31.077 58.4344 30.6901 57.3907 30.6901C57.2218 30.3878 56.7278 29.9465 56.1044 30.5994C56.0562 30.2185 55.6334 29.5801 54.3285 30.0734C53.8816 30.0009 53.2234 29.7506 54.1656 29.3298C54.5943 29.0396 55.0606 28.394 53.4952 28.1328L51.955 27.6069L49.8896 27.7157C49.6297 27.5887 48.9004 27.4944 48.0595 28.1328C47.4674 27.9273 46.4434 27.3529 47.081 26.7C47.8783 25.8839 47.0992 25.6118 48.7117 26.2104C50.0019 26.6892 49.2492 24.572 48.7117 23.4536C48.6093 23.0727 48.3348 22.6447 48.0595 23.9796C47.8119 24.4329 47.1391 25.3434 46.4288 25.3579L46.157 26.428C45.7342 26.9479 44.7798 27.5343 44.3451 25.7207C43.3184 25.3398 41.1414 24.9045 40.6486 26.2104C40.4615 26.6275 39.9675 27.1643 39.4892 25.9746C39.0108 24.7848 39.1932 24.1488 39.3442 23.9796C39.0543 23.641 38.402 23.2178 38.1121 24.2334ZM5.13527 45.6529L4.42863 46.5595C3.9938 46.6442 3.4031 47.0274 4.51925 47.8838C4.80312 47.9804 5.32374 48.3731 5.13527 49.1713C5.31646 49.4674 5.96152 49.933 7.09216 49.425C7.23107 49.3831 7.50528 49.1313 7.49077 48.4638L10.0999 49.6246L8.86782 48.1011L9.32081 47.7749L6.87474 46.4146L5.13527 45.6529ZM10.1362 19.3729C10.3717 20.1648 10.9044 21.8213 11.1509 22.1115C11.4588 22.4742 12.6547 22.2021 12.7091 21.9845C12.7634 21.7669 12.8178 21.3679 12.7091 20.461C12.6004 19.5542 12.238 19.6811 11.8937 19.9351L11.1509 18.466C10.8126 18.599 10.1362 18.9013 10.1362 19.0464C10.1362 19.1914 10.1362 19.3245 10.1362 19.3729ZM39.6341 18.0307C39.4831 17.7224 39.1015 17.084 38.7826 16.9969C38.3839 16.8881 37.9129 15.6367 39.2899 15.7455C40.6668 15.8543 41.2284 13.9319 41.2106 13.8049C41.1924 13.6779 42.1164 13.1882 43.3666 13.8049C44.3669 14.2982 44.9432 14.2765 45.1061 14.2039C45.3719 14.4578 45.8418 15.0853 45.5954 15.5641C45.349 16.0429 45.4079 15.8241 45.4684 15.6548C45.0274 15.7092 44.3376 15.9885 45.1061 16.6705C46.0665 17.5229 45.722 20.5698 45.5954 20.5698C45.4937 20.5698 45.6618 21.3679 45.7583 21.7669C45.7402 22.5891 45.432 24.2334 44.3451 24.2334C42.9861 24.2334 42.6598 24.8682 41.9352 24.2334C41.2106 23.5987 40.9567 22.7462 41.0837 22.1296C41.1849 21.6363 40.7273 21.4162 40.4856 21.3679C40.4315 21.1563 40.3551 20.588 40.4856 20.0076C40.6486 19.2821 39.5977 19.8988 40.2503 18.6837C40.772 17.7115 40.0569 17.8433 39.6341 18.0307ZM51.1758 25.7207L52.1543 24.9589C52.4743 24.9408 53.1147 25.0351 53.1147 25.5574C53.1147 26.2104 53.0423 26.428 52.8066 26.428C52.5712 26.428 51.321 26.2104 51.3752 26.2104C51.4187 26.2104 51.2605 25.8839 51.1758 25.7207ZM56.9924 23.0002C57.6928 23.3629 58.7532 24.2153 57.3907 24.7231C57.1735 25.2793 57.0212 26.3554 58.1516 26.2104C58.4297 26.9539 59.0396 27.995 59.2571 26.2104C59.4747 24.4257 61.039 22.9881 61.7936 22.4923L65.3268 20.8238H68.5159L71.6686 20.2797C72.4055 19.5542 73.1942 18.2992 70.4548 19.0827C69.8085 19.2942 68.5159 19.5143 68.5159 18.7018C67.181 18.333 64.4246 17.9437 64.077 19.3365C63.0621 19.4212 61.0255 19.8807 60.9966 21.0414L59.2571 21.4041C59.2029 21.5976 58.9996 22.0861 58.6231 22.4923C58.1516 23.0002 57.8799 20.6424 56.9924 23.0002ZM67.0845 6.45956C66.9093 6.60465 66.7547 6.94201 67.5374 7.13061C68.5159 7.36638 69.0776 7.25758 68.5159 6.85855C68.0666 6.53937 67.3744 6.45956 67.0845 6.45956ZM67.7185 8.14627C67.8578 7.94677 68.2766 7.59129 68.8422 7.76541C69.5486 7.98304 69.748 7.74727 69.2951 8.14627C68.9328 8.46548 68.2501 8.41228 67.9543 8.34576L67.7185 8.14627ZM72.9371 10.0506C72.502 10.0687 71.7015 10.319 71.9767 11.1751C72.3208 12.2451 72.466 11.5378 72.593 11.3565C72.7195 11.1751 73.4987 10.3408 73.1364 10.0506C72.8465 9.81845 72.8829 9.95389 72.9371 10.0506ZM74.0244 10.5403C73.8128 10.6914 73.3899 11.03 73.3899 11.1751C73.3899 11.3202 74.0062 11.2355 74.3143 11.1751C74.484 11.03 74.6643 10.6999 74.0244 10.5403ZM70.8171 8.81732C70.6842 8.98056 70.5525 9.43034 71.0888 9.92364C71.6251 10.417 71.5057 9.68182 71.3787 9.25258C71.3787 9.05914 71.2664 8.70125 70.8171 8.81732ZM71.7774 8.34576C71.7473 8.69642 71.7703 9.36866 72.1037 9.25258C72.4371 9.1365 72.4601 8.81733 72.4296 8.67223L71.7774 8.34576ZM69.1321 9.41581C69.0234 9.45814 68.8387 9.59358 68.9688 9.79671C69.1321 10.0506 69.8025 9.85111 69.748 9.63348C69.7045 9.45936 69.3192 9.41581 69.1321 9.41581ZM70.9258 10.6491C70.7324 10.5826 70.346 10.4895 70.346 10.6491C70.346 10.8486 70.6901 11.1569 71.0888 11.1025C71.4875 11.0481 71.5962 10.4859 70.9258 10.6491ZM87.6137 20.86C87.9456 20.86 88.6571 20.7621 88.8458 20.3703C89.4193 20.3401 90.5671 20.189 90.5671 19.8262C90.5671 19.3728 91.0563 18.4297 89.2622 18.3028C89.4015 17.6136 89.4398 16.6487 88.4831 18.3028C88.3201 18.9859 87.9179 20.4538 87.6137 20.86ZM85.5479 18.3028C85.9648 18.5023 86.8958 18.9303 87.2874 19.0464C87.7767 19.1914 88.5377 18.7381 87.6137 18.1758C88.3324 17.1843 89.2733 15.5859 87.2874 17.1239C86.9611 17.1904 86.4576 17.1057 87.0517 16.2352C87.6461 15.3646 86.5747 16.1264 85.9648 16.616C85.9284 16.3501 85.9755 15.7673 86.454 15.5641C87.0517 15.3102 87.6315 13.1701 85.9648 14.1858C85.7354 14.0588 85.2327 14.0479 85.0586 15.02C84.4005 15.7213 83.4354 17.0876 84.8415 16.9425L85.5479 18.3028ZM111.513 17.8131C111.863 18.1456 112.448 18.8469 111.984 18.992C111.404 19.1733 109.918 18.6837 110.607 17.9038C111.158 17.2799 111.44 17.5834 111.513 17.8131ZM112.219 21.5673C112.056 22.0268 111.766 23.0546 111.911 23.4899C112.056 23.9251 112.527 23.3206 112.745 22.9639C112.902 22.8611 113.27 22.6665 113.488 22.71C113.759 22.7644 114.167 22.0026 113.302 21.8394C112.437 21.6762 112.654 21.1684 112.219 21.5673ZM109.193 19.1733C108.42 18.5023 107.063 17.7804 107.816 20.2615C108.57 22.7426 109.991 21.2953 110.607 20.2615C111.338 19.9955 112.379 19.4563 110.697 19.4272C110.353 19.2398 109.704 18.7054 109.864 18.067C110.063 17.269 108.287 17.8675 109.574 19.1733H109.193ZM131.879 4.24689C131.927 3.7572 132.187 3.10428 132.839 4.41012C133.491 5.71597 132.748 5.96986 132.295 5.9336C132.543 6.39304 132.712 7.15599 131.408 6.53209L131.317 4.53708L131.879 4.24689ZM137.93 56.1903C137.308 56.0691 136.35 55.7152 137.495 55.265C137.767 55.2167 138.333 55.305 138.42 56.045L140.594 58.3665L143.511 61.105C144.489 61.8549 146.581 63.3253 147.117 63.2093C147.787 63.064 146.247 64.0616 145.396 63.2093C144.714 62.5271 144.677 63.6986 144.743 64.3696C144.925 65.2402 145.602 67.0578 146.863 67.3623C146.996 67.6766 147.446 68.2111 148.186 67.8338C148.765 68.1965 149.751 68.9839 149.055 69.2306C148.36 69.4772 148.186 69.1035 148.186 68.8857L147.026 68.7951L147.588 70.3367C147.274 70.4456 146.591 70.5034 146.374 69.8652C146.102 69.0671 145.232 69.1941 145.703 68.632C146.08 68.1822 145.776 68.4443 145.577 68.632C145.166 67.6343 144.236 65.7917 143.801 66.401L141.21 61.6494C140.443 61.1961 138.811 59.8793 138.42 58.2395C137.858 58.1488 137.014 57.8226 138.13 57.2422L137.93 56.1903ZM155.379 49.7699C155.524 50.0902 155.785 50.8436 155.669 51.2933H156.14C155.995 51.0878 155.792 50.5605 156.14 50.0961C156.056 49.522 155.785 48.6526 155.379 49.7699ZM155.923 52.7261C156.049 52.9921 156.386 53.4696 156.72 53.2519C157.053 53.0345 156.581 52.5206 156.303 52.291L155.923 52.7261ZM156.14 54.0682C156.206 54.3101 156.416 54.7211 156.72 54.4309C157.024 54.1407 156.569 53.9352 156.303 53.8687L156.14 54.0682ZM157.064 58.1488C157.179 58.3788 157.484 58.7367 157.789 58.3301C158.093 57.9239 157.432 58.0399 157.064 58.1488ZM157.173 59.1647C157.07 59.2977 156.999 59.6327 157.535 59.9082C158.072 60.1838 157.928 59.382 157.789 58.9469C157.62 58.808 157.26 58.6567 157.173 59.1647ZM156.575 64.3336C156.412 64.1764 156.183 63.6733 156.575 62.9191C156.545 62.4895 156.6 61.7472 157.064 62.2116C157.143 62.6407 157.227 63.5826 156.937 63.9163C156.885 64.3154 156.74 64.9576 156.575 64.3336ZM155.506 68.632C155.216 68.4023 154.81 67.6925 155.506 66.6912C155.415 66.3468 155.368 65.5087 155.905 64.914C156.308 64.2176 156.072 65.6999 155.905 66.5281C155.947 66.6671 155.926 67.0032 155.506 67.2352L155.633 68.632H155.506ZM154.618 70.2461C154.739 70.6087 154.879 71.2944 154.473 71.1349C154.067 70.9753 154.111 70.1978 154.183 69.8288C154.189 69.339 154.332 68.4471 154.854 68.7951C155.506 69.2306 154.98 69.7563 154.89 69.7563C154.799 69.7563 154.383 69.8652 154.618 70.2461Z" stroke="white" stroke-opacity="0.4" stroke-width="3.70746"/>
<path fill-rule="evenodd" clip-rule="evenodd" d="M138.161 19.7976C139.492 19.7976 140.571 18.7177 140.571 17.3854C140.571 16.0533 139.492 14.9733 138.161 14.9733C136.83 14.9733 135.751 16.0533 135.751 17.3854C135.751 17.856 135.886 18.2952 136.118 18.6663C134.009 21.1588 131.308 25.5544 130.202 31.3331C128.84 31.3599 127.701 32.2985 127.37 33.5643C121.075 33.4465 112.953 34.4161 104.644 37.3396C104.209 36.7958 103.54 36.4475 102.79 36.4475C102.286 36.4475 101.819 36.6046 101.435 36.8725C101.342 36.7939 101.249 36.7158 101.157 36.6384C94.5102 31.0926 87.1277 28.6789 81.7031 28.0874C81.5786 27.0343 80.6835 26.2176 79.5982 26.2176C78.4274 26.2176 77.4782 27.1676 77.4782 28.3396C77.4782 28.9662 77.7495 29.5293 78.181 29.9177C77.0941 33.4359 75.7652 38.5877 74.8246 44.2586C70.0827 45.0464 65.7822 46.2753 61.978 47.7461C52.3226 39.1358 43.6796 35.324 36.3807 34.3773C35.7036 34.2895 35.0383 34.2264 34.3853 34.1864C34.094 33.326 33.413 32.6457 32.5527 32.3559C34.4263 30.2904 36.6308 28.4815 39.2107 27.1253L38.813 26.3672C36.0249 27.8329 33.6683 29.8019 31.6877 32.0389C30.8602 29.2544 29.1893 27.105 27.6393 25.6739C28.0999 25.1576 28.3798 24.4764 28.3798 23.7298C28.3798 22.1171 27.0737 20.8098 25.4627 20.8098C23.8515 20.8098 22.5455 22.1171 22.5455 23.7298C22.5455 25.3424 23.8515 26.6498 25.4627 26.6498C26.017 26.6498 26.5353 26.495 26.9766 26.2262C28.4564 27.5711 30.0819 29.6284 30.8725 32.3013C29.8499 32.5726 29.0476 33.3858 28.7911 34.4153C23.6159 35.1824 19.486 37.4228 16.6017 39.9915C16.2356 39.7045 15.7747 39.5336 15.2738 39.5336C14.083 39.5336 13.1176 40.4999 13.1176 41.6919C13.1176 42.884 14.083 43.85 15.2738 43.85C16.4646 43.85 17.43 42.884 17.43 41.6919C17.43 41.3107 17.3312 40.9524 17.158 40.6416C19.8852 38.209 23.7949 36.0654 28.7095 35.2941C28.7207 35.489 28.7509 35.6788 28.7985 35.8617C27.9028 37.2459 27.1169 38.6748 26.4307 40.1063C24.2962 44.5603 23.1146 49.0672 22.6005 52.4008C21.7998 52.5354 21.1489 53.1118 20.9062 53.8712C17.761 53.1383 14.8347 53.6886 12.3988 54.7354C10.6358 55.4932 9.12146 56.5138 7.95265 57.5083C7.69738 57.4018 7.41727 57.3432 7.12348 57.3432C5.93264 57.3432 4.96729 58.3092 4.96729 59.5013C4.96729 60.6934 5.93264 61.6598 7.12348 61.6598C8.31427 61.6598 9.27963 60.6934 9.27963 59.5013C9.27963 58.9237 9.05303 58.3995 8.68401 58.0119C9.76647 57.1168 11.1448 56.2062 12.7363 55.5221C15.0678 54.52 17.841 54.0101 20.8132 54.7291C20.9138 55.8273 21.8367 56.6876 22.9602 56.6876C24.1511 56.6876 25.1164 55.7212 25.1164 54.5291C25.1164 53.5101 24.4107 52.6561 23.4618 52.4297C23.972 49.1848 25.1277 44.8049 27.202 40.4769C27.7989 39.2313 28.4707 37.9924 29.2238 36.7873C29.7505 37.5468 30.6281 38.0441 31.6218 38.0441C32.5713 38.0441 33.415 37.5899 33.9476 36.8869C36.2758 38.1239 38.9913 40.0549 41.274 42.6869C44.0332 45.8675 46.1528 50.0618 46.209 55.2968C45.3855 55.6005 44.7981 56.3931 44.7981 57.3227C44.7981 58.5143 45.7636 59.4807 46.9545 59.4807C47.9686 59.4807 48.819 58.78 49.0492 57.8357C50.36 58.0099 51.8614 58.4668 53.2674 59.3746C54.969 60.4733 56.5519 62.2449 57.4893 65.0222C56.4759 65.5008 55.7751 66.5334 55.7751 67.7294C55.7751 69.3823 57.1135 70.722 58.7644 70.722C60.4157 70.722 61.7542 69.3823 61.7542 67.7294C61.7542 67.2444 61.6391 66.7863 61.4342 66.3813C64.0763 64.8923 67.5078 63.4334 71.5865 62.3633C71.7668 63.0858 72.2094 63.7046 72.8074 64.112C70.3212 68.7128 68.2712 73.9578 66.807 79.9252L67.638 80.1291C69.0872 74.221 71.117 69.0335 73.5775 64.4873C73.8643 64.5788 74.17 64.6283 74.4872 64.6283C76.1381 64.6283 77.4766 63.2885 77.4766 61.6356C77.4766 61.4848 77.4655 61.3363 77.4442 61.191C82.6473 60.4602 88.5864 60.4222 95.0583 61.5865L95.0576 61.5964L95.0572 61.6063C95.0568 61.6234 95.0564 61.6404 95.0564 61.6574C95.0564 62.4009 95.6441 63.0066 96.3798 63.0348C96.9395 68.1047 97.0253 73.7345 96.4502 79.9391H96.4336C95.673 79.9391 95.0564 80.5559 95.0564 81.3172C95.0564 82.0786 95.673 82.6958 96.4336 82.6958C97.1938 82.6958 97.8104 82.0786 97.8104 81.3172C97.8104 80.8766 97.6035 80.4838 97.282 80.2317C97.8899 73.8267 97.8009 68.0188 97.2132 62.794C97.4473 62.6325 97.6289 62.4009 97.7277 62.1293C103.046 63.3364 108.692 65.3654 114.557 68.4812C114.481 68.714 114.44 68.9622 114.44 69.2204C114.44 70.5324 115.503 71.5962 116.814 71.5962C118.125 71.5962 119.188 70.5324 119.188 69.2204C119.188 67.9079 118.125 66.8445 116.814 66.8445C116.762 66.8445 116.71 66.8461 116.659 66.8493C115.578 59.2792 113.394 53.0778 110.557 48.03C115.908 49.7173 121.492 52.0211 127.275 55.0612C127.274 55.0759 127.273 55.0901 127.273 55.1048C127.273 55.1131 127.272 55.1214 127.272 55.1297V55.1479C127.272 55.9793 127.946 56.6532 128.776 56.6532C129.607 56.6532 130.28 55.9793 130.28 55.1479C130.28 54.3165 129.607 53.6427 128.776 53.6427C128.282 53.6427 127.844 53.8811 127.569 54.2492C121.456 51.0428 115.56 48.6515 109.922 46.9365C108.366 44.3453 106.635 42.0748 104.797 40.0929C105.029 39.7259 105.164 39.2903 105.164 38.8234C105.164 38.5725 105.124 38.3306 105.052 38.1035C113.179 35.2631 121.115 34.313 127.274 34.4188C127.323 36.0282 128.642 37.3176 130.262 37.3176C131.913 37.3176 133.252 35.9779 133.252 34.3251C133.252 32.9465 132.32 31.7856 131.053 31.4384C132.123 25.9063 134.698 21.6965 136.7 19.3039C137.105 19.6137 137.611 19.7976 138.161 19.7976ZM74.6806 45.151C70.2761 45.902 66.2643 47.0374 62.6916 48.3895C65.976 51.3841 69.3759 54.9338 72.8779 59.1133C73.1136 58.9621 73.3723 58.8433 73.6471 58.763C73.5427 54.2948 73.9853 49.5843 74.6806 45.151ZM74.4999 58.6434C74.4034 54.1689 74.861 49.4434 75.5698 45.0053C80.1693 44.2839 85.1841 43.9834 90.5644 44.2871C90.5672 44.3219 90.5712 44.3564 90.5767 44.3904C85.1778 48.0581 80.1214 52.8422 75.9151 59.006C75.4942 58.7768 75.0125 58.6454 74.4999 58.6434ZM75.7157 44.1165C76.6282 38.7055 77.8907 33.7847 78.9404 30.3575C79.1477 30.4251 79.3688 30.4616 79.5982 30.4616C80.2112 30.4616 80.7634 30.2011 81.1506 29.7846C84.191 32.3453 87.9018 36.7872 90.9516 43.2142C90.884 43.2831 90.8239 43.3595 90.7725 43.4411C85.3787 43.1251 80.3437 43.4098 75.7157 44.1165ZM53.7314 58.6553C52.1813 57.6544 50.5273 57.1583 49.0832 56.977C49.0338 56.6702 48.9199 56.3848 48.7557 56.1357C51.8922 53.5996 56.2987 50.9165 61.7989 48.7355C65.1509 51.7614 68.6331 55.3788 72.2304 59.6731C71.8012 60.1668 71.5311 60.803 71.5002 61.5014C67.2563 62.6028 63.6851 64.1215 60.9406 65.6774C60.3956 65.0982 59.6223 64.7368 58.7644 64.7368C58.6094 64.7368 58.4567 64.7486 58.3076 64.7716C57.3121 61.8055 55.6082 59.8671 53.7314 58.6553ZM47.0625 55.1669C47.4632 55.1867 47.8353 55.3162 48.149 55.5256C51.2823 52.98 55.6517 50.2985 61.0861 48.0989C51.6593 39.7781 43.2789 36.1354 36.2707 35.2264C35.6838 35.1503 35.1062 35.0933 34.5382 35.0544C34.5387 35.0775 34.5389 35.1008 34.5389 35.1241C34.5389 35.4799 34.4754 35.8208 34.359 36.1361C36.7697 37.4185 39.5654 39.4109 41.9199 42.1255C44.7653 45.4055 46.9731 49.7506 47.0625 55.1669ZM100.416 38.8234C100.416 38.8807 100.418 38.9374 100.422 38.9937C98.9183 39.6455 97.4168 40.3661 95.9285 41.1602C94.8404 41.7406 93.7595 42.3606 92.6888 43.0218C92.4728 42.8804 92.2145 42.7985 91.9373 42.7985C91.8598 42.7985 91.7838 42.8048 91.7103 42.8171C88.5817 36.2331 84.7574 31.6737 81.5987 29.0435C81.6106 29.0096 81.6217 28.9754 81.6319 28.9408C86.8956 29.5189 94.1075 31.8716 100.609 37.2961C100.683 37.3577 100.757 37.4197 100.83 37.4822C100.569 37.8639 100.416 38.3258 100.416 38.8234ZM76.6005 59.5191C80.7262 53.4654 85.6805 48.7656 90.9698 45.1577C91.2186 45.4035 91.5603 45.5552 91.9373 45.5552C91.9436 45.5552 91.9499 45.5552 91.9563 45.5548C91.9634 45.5548 91.9705 45.5548 91.9772 45.5544L91.9934 45.554C93.7397 49.7387 95.1845 54.6594 96.0305 60.339C95.7723 60.4182 95.546 60.571 95.3767 60.7737C88.6944 59.5524 82.5606 59.594 77.1934 60.362C77.0451 60.0473 76.8438 59.7626 76.6005 59.5191ZM96.3307 41.916C95.323 42.4537 94.3207 43.0257 93.3271 43.6339C98.1873 44.0824 103.32 45.0211 108.693 46.5723C107.312 44.3841 105.803 42.4422 104.214 40.724C103.818 41.0225 103.324 41.1994 102.79 41.1994C101.839 41.1994 101.019 40.64 100.64 39.8324C99.1979 40.4615 97.7586 41.1543 96.3307 41.916ZM114.966 67.729C115.196 67.4443 115.489 67.2139 115.825 67.0595C114.706 59.1497 112.373 52.7705 109.357 47.6606C103.721 45.9685 98.3479 44.9597 93.2785 44.4898C93.2073 44.7966 93.0337 45.0643 92.7956 45.2547C94.5786 49.5356 96.0468 54.5636 96.8979 60.3596C97.3057 60.5057 97.6249 60.8395 97.7515 61.2568C103.192 62.4757 108.968 64.5416 114.966 67.729Z" fill="white" fill-opacity="0.4"/>
<path d="M14.9047 109.817H16.2157V115.048H14.2309L13.9214 112.041H6.05518V99.41H8.96859V109.762H11.9913V99.41H14.9047V109.817ZM26.2865 112.041H23.5005V107.229C23.5005 105.589 23.6219 103.942 23.8647 102.29L20.842 112.041H17.3823V99.41H20.1501V104.295C20.1501 105.279 20.1197 106.136 20.059 106.864C19.9983 107.594 19.9134 108.359 19.8041 109.161L22.8632 99.41H26.2865V112.041ZM40.9923 105.643C40.9923 107.478 40.5189 108.857 39.5724 109.781C38.6375 110.692 37.3507 111.184 35.7119 111.257V112.752H32.8714V111.257C31.2325 111.172 29.9397 110.68 28.9929 109.781C28.0582 108.869 27.5908 107.521 27.5908 105.735C27.5908 103.9 28.0582 102.527 28.9929 101.616C29.9397 100.692 31.2325 100.194 32.8714 100.121V98.7175H35.7119V100.121C37.3507 100.206 38.6375 100.704 39.5724 101.616C40.5189 102.515 40.9923 103.857 40.9923 105.643ZM35.5662 109.453C36.4524 109.368 37.0897 109.034 37.4782 108.45C37.8666 107.855 38.0608 106.919 38.0608 105.643C38.0608 104.392 37.8605 103.481 37.46 102.909C37.0594 102.326 36.4281 101.998 35.5662 101.925V109.453ZM30.5406 105.735C30.5406 106.986 30.7349 107.904 31.1233 108.487C31.5239 109.058 32.1551 109.38 33.017 109.453V101.925C32.1309 102.01 31.4936 102.344 31.1051 102.928C30.7288 103.511 30.5406 104.447 30.5406 105.735ZM45.9003 99.41C47.5149 99.41 48.7528 99.7564 49.6151 100.449C50.4888 101.142 50.9258 102.162 50.9258 103.511C50.9258 104.932 50.501 106.008 49.6515 106.737C48.8138 107.454 47.6545 107.812 46.1736 107.812H45.2086V112.041H42.2951V99.41H45.9003ZM45.9367 105.698C46.6166 105.698 47.1201 105.534 47.448 105.206C47.7759 104.866 47.9396 104.307 47.9396 103.529C47.9396 102.837 47.7759 102.326 47.448 101.998C47.1324 101.658 46.6285 101.488 45.9367 101.488H45.2086V105.698H45.9367ZM56.9338 99.1C58.597 99.1 59.8777 99.6653 60.7759 100.795C61.6742 101.913 62.1235 103.553 62.1235 105.716C62.1235 107.855 61.6682 109.495 60.7577 110.637C59.8595 111.78 58.5847 112.351 56.9338 112.351C55.2829 112.351 54.0022 111.786 53.0917 110.656C52.1935 109.526 51.7442 107.879 51.7442 105.716C51.7442 103.59 52.1935 101.956 53.0917 100.813C54.0022 99.6713 55.2829 99.1 56.9338 99.1ZM56.9338 101.233C56.1934 101.233 55.6472 101.579 55.2952 102.272C54.955 102.964 54.7854 104.113 54.7854 105.716C54.7854 107.345 54.9614 108.505 55.3134 109.198C55.6654 109.878 56.2057 110.218 56.9338 110.218C57.6742 110.218 58.2145 109.878 58.5543 109.198C58.9063 108.505 59.0827 107.345 59.0827 105.716C59.0827 104.113 58.9063 102.964 58.5543 102.272C58.2145 101.579 57.6742 101.233 56.9338 101.233ZM69.8053 105.352C70.6066 105.522 71.2498 105.838 71.7355 106.299C72.233 106.762 72.4822 107.448 72.4822 108.359C72.4822 110.814 70.7886 112.041 67.4017 112.041H63.6692V99.41H66.9647C68.5792 99.41 69.8235 99.6772 70.6976 100.212C71.5717 100.734 72.0088 101.542 72.0088 102.636C72.0088 103.365 71.8023 103.96 71.3894 104.422C70.9768 104.872 70.4488 105.182 69.8053 105.352ZM66.5826 101.469V104.477H67.3835C68.5005 104.477 69.059 103.96 69.059 102.928C69.059 102.43 68.913 102.065 68.6219 101.834C68.3304 101.591 67.8692 101.469 67.238 101.469H66.5826ZM67.4199 109.927C68.0998 109.927 68.6156 109.799 68.9676 109.544C69.3196 109.289 69.4956 108.845 69.4956 108.213C69.4956 107.022 68.8525 106.427 67.5659 106.427H66.5826V109.927H67.4199ZM79.833 112.041L79.2686 109.289H76.0641L75.4996 112.041H72.5494L75.9545 99.41H79.4509L82.8378 112.041H79.833ZM76.5011 107.193H78.8315L77.6663 101.542L76.5011 107.193ZM91.7592 99.41V112.041H88.8458V107.466H87.626L85.7868 112.041H82.6732L85.1132 106.938C84.4574 106.622 83.9599 106.184 83.6201 105.625C83.2922 105.054 83.1285 104.331 83.1285 103.456C83.1285 100.759 84.7367 99.41 87.9538 99.41H91.7592ZM88.8458 105.425V101.469H88.0448C87.4013 101.469 86.9219 101.64 86.6063 101.98C86.2907 102.308 86.1329 102.824 86.1329 103.529C86.1329 104.161 86.2848 104.635 86.5881 104.951C86.8915 105.267 87.3044 105.425 87.8261 105.425H88.8458ZM101.131 99.41C102.746 99.41 103.984 99.7564 104.846 100.449C105.72 101.142 106.157 102.162 106.157 103.511C106.157 104.932 105.732 106.008 104.882 106.737C104.045 107.454 102.886 107.812 101.404 107.812H100.439V112.041H97.5259V99.41H101.131ZM101.168 105.698C101.847 105.698 102.351 105.534 102.679 105.206C103.007 104.866 103.171 104.307 103.171 103.529C103.171 102.837 103.007 102.326 102.679 101.998C102.364 101.658 101.86 101.488 101.168 101.488H100.439V105.698H101.168ZM112.165 99.1C113.828 99.1 115.109 99.6653 116.007 100.795C116.905 101.913 117.354 103.553 117.354 105.716C117.354 107.855 116.899 109.495 115.989 110.637C115.09 111.78 113.816 112.351 112.165 112.351C110.514 112.351 109.233 111.786 108.323 110.656C107.425 109.526 106.975 107.879 106.975 105.716C106.975 103.59 107.425 101.956 108.323 100.813C109.233 99.6713 110.514 99.1 112.165 99.1ZM112.165 101.233C111.425 101.233 110.878 101.579 110.526 102.272C110.186 102.964 110.016 104.113 110.016 105.716C110.016 107.345 110.192 108.505 110.545 109.198C110.897 109.878 111.436 110.218 112.165 110.218C112.905 110.218 113.446 109.878 113.785 109.198C114.137 108.505 114.313 107.345 114.313 105.716C114.313 104.113 114.137 102.964 113.785 102.272C113.446 101.579 112.905 101.233 112.165 101.233ZM123.671 99.1C124.399 99.1 125.049 99.2156 125.619 99.4464C126.19 99.6772 126.73 100.024 127.24 100.485L125.856 102.108C125.528 101.828 125.2 101.621 124.873 101.488C124.557 101.342 124.217 101.269 123.853 101.269C122.275 101.269 121.486 102.745 121.486 105.698C121.486 108.627 122.281 110.091 123.871 110.091C124.284 110.091 124.648 110.012 124.964 109.854C125.291 109.684 125.655 109.441 126.056 109.125L127.367 110.728C126.918 111.202 126.378 111.591 125.746 111.895C125.127 112.199 124.442 112.351 123.689 112.351C122.633 112.351 121.71 112.101 120.921 111.603C120.144 111.105 119.538 110.358 119.1 109.362C118.663 108.365 118.445 107.144 118.445 105.698C118.445 104.289 118.669 103.092 119.119 102.108C119.568 101.111 120.181 100.364 120.957 99.8656C121.746 99.3553 122.651 99.1 123.671 99.1ZM132.864 99.1C133.592 99.1 134.242 99.2156 134.813 99.4464C135.383 99.6772 135.923 100.024 136.433 100.485L135.049 102.108C134.721 101.828 134.394 101.621 134.066 101.488C133.75 101.342 133.41 101.269 133.046 101.269C131.468 101.269 130.679 102.745 130.679 105.698C130.679 108.627 131.474 110.091 133.064 110.091C133.477 110.091 133.841 110.012 134.157 109.854C134.485 109.684 134.849 109.441 135.249 109.125L136.56 110.728C136.111 111.202 135.571 111.591 134.94 111.895C134.321 112.199 133.635 112.351 132.882 112.351C131.826 112.351 130.904 112.101 130.115 111.603C129.338 111.105 128.731 110.358 128.294 109.362C127.857 108.365 127.638 107.144 127.638 105.698C127.638 104.289 127.863 103.092 128.312 102.108C128.761 101.111 129.374 100.364 130.151 99.8656C130.94 99.3553 131.844 99.1 132.864 99.1ZM146.547 112.041H143.76V107.229C143.76 105.589 143.882 103.942 144.125 102.29L141.102 112.041H137.642V99.41H140.41V104.295C140.41 105.279 140.38 106.136 140.319 106.864C140.258 107.594 140.173 108.359 140.064 109.161L143.123 99.41H146.547V112.041ZM156.664 99.41V112.041H153.751V107.466H152.53L150.691 112.041H147.578L150.018 106.938C149.362 106.622 148.864 106.184 148.525 105.625C148.197 105.054 148.033 104.331 148.033 103.456C148.033 100.759 149.641 99.41 152.858 99.41H156.664ZM153.751 105.425V101.469H152.949C152.306 101.469 151.826 101.64 151.511 101.98C151.195 102.308 151.037 102.824 151.037 103.529C151.037 104.161 151.189 104.635 151.493 104.951C151.796 105.267 152.209 105.425 152.731 105.425H153.751Z" fill="white"/>
</g>
<defs>
<clipPath id="clip0_1007_1415">
<rect width="159" height="116" fill="white"/>
</clipPath>
</defs>
</svg>
