<svg xmlns="http://www.w3.org/2000/svg" width="258" height="59" viewBox="0 0 258 59" fill="none">
<path fill-rule="evenodd" clip-rule="evenodd" d="M4.98366 9.70465L39.758 0.399652C43.2138 -0.525348 46.7985 1.54165 47.7263 4.99332L57.0445 39.7253C57.9697 43.1783 55.9022 46.762 52.444 47.687L17.6683 56.9917C14.2118 57.915 10.6278 55.8487 9.70035 52.3977L0.383102 17.6663C-0.543017 14.2133 1.52782 10.6317 4.98366 9.70465Z" fill="#C9DA2D"/>
<path fill-rule="evenodd" clip-rule="evenodd" d="M4.98366 9.70465L39.758 0.399652C43.2138 -0.525348 46.7985 1.54165 47.7263 4.99332L57.0445 39.7253C57.9697 43.1783 55.9022 46.762 52.444 47.687L17.6683 56.9917C14.2118 57.915 10.6278 55.8487 9.70035 52.3977L0.383102 17.6663C-0.543017 14.2133 1.52782 10.6317 4.98366 9.70465Z" fill="#434343"/>
<path fill-rule="evenodd" clip-rule="evenodd" d="M19.0197 56.6303L17.6684 56.9917C14.2119 57.915 10.6279 55.8486 9.70049 52.3976L4.604 33.3983H19.0197V56.6303Z" fill="#434343"/>
<path fill-rule="evenodd" clip-rule="evenodd" d="M41.2713 0.181998C44.2042 0.107665 46.9348 2.04467 47.7261 4.99333L57.0444 39.7253C57.9695 43.1783 55.902 46.762 52.4438 47.687L41.271 50.6733V0.181998H41.2713Z" fill="#231F20"/>
<path d="M25.4527 28.7677H3.36133L5.5987 37.1084H16.4134V57.1957C16.596 57.185 16.7799 57.1657 16.9628 57.1364C16.9834 57.133 17.0028 57.133 17.0232 57.1294C17.2388 57.0957 17.455 57.049 17.6683 56.9917L25.4527 54.9087V28.7677Z" fill="#ffffff"/>
<path d="M46.1499 28.7697V2.19934C44.5593 0.541011 42.1301 -0.235322 39.7585 0.399678L36.8901 1.16768V28.7697H28.6938V37.1103H36.8901V51.849L46.1499 49.369V37.1107H56.3409L54.1049 28.77L46.1499 28.7697Z" fill="#737373"/>
<path d="M20.3724 12.9603C21.9036 12.9603 23.2278 13.4903 24.3088 14.5877C25.4051 15.6683 25.9381 16.9717 25.9381 18.4863C25.9381 20.0167 25.4051 21.336 24.3088 22.4207C23.2278 23.512 21.9036 24.048 20.3724 24.048C18.8555 24.048 17.5476 23.5123 16.4677 22.4207C15.3877 21.336 14.8394 20.0167 14.8394 18.4863C14.8394 16.94 15.3723 15.6347 16.453 14.556C17.5156 13.4903 18.8228 12.9603 20.3724 12.9603Z" fill="#737373"/>
<path d="M71.4171 44.7543V21.1666H67.6318V17.056H76.3554V44.754H71.4171V44.7543ZM74.1203 6.61731C74.9657 6.61731 75.6862 6.91598 76.2816 7.51164C76.8783 8.10664 77.177 8.81764 77.177 9.64598C77.177 10.491 76.878 11.212 76.2816 11.8063C75.6862 12.4036 74.9657 12.6996 74.1203 12.6996C73.2907 12.6996 72.5781 12.4036 71.9821 11.8063C71.3847 11.212 71.0877 10.491 71.0877 9.64598C71.0877 8.79998 71.3814 8.08298 71.9691 7.49664C72.5554 6.91098 73.2723 6.61731 74.1203 6.61731Z" fill="white" stroke="#ffffff" stroke-width="2.9589"/>
<path d="M85.9331 20.4266H82.7256V16.5636H85.9331V10.7983L90.8711 8.91895V16.5639H98.4422V20.4266H90.8711V34.1996C90.8711 36.5293 91.2596 38.1863 92.0408 39.1696C92.8218 40.1533 94.078 40.6446 95.8121 40.6446C97.0639 40.6446 98.3581 40.3169 99.6971 39.6589L100.417 43.9806C98.3855 44.4956 96.1561 44.7543 93.7299 44.7543C91.5449 44.7543 89.6977 43.9403 88.1909 42.3116C86.685 40.6843 85.9328 38.6279 85.9328 36.1456L85.9331 20.4266Z" fill="white" stroke="#ffffff" stroke-width="2.9589"/>
<path d="M147.85 44.7544H146.533L138.428 25.933L130.321 44.7544H129.003L119.129 16.4807H124.395L130.278 34.6454L137.644 16.4807H138.962L146.574 34.6454L152.95 16.4807H157.807L147.85 44.7544Z" fill="white" stroke="#ffffff" stroke-width="2.9589"/>
<path d="M162.781 30.3477C162.781 26.0793 163.933 22.6327 166.238 20.0057C168.545 17.3827 171.579 16.0707 175.344 16.0707C179.314 16.0707 182.397 17.3303 184.59 19.8543C186.784 22.376 187.881 25.8747 187.881 30.3477C187.881 34.8067 186.759 38.322 184.512 40.8953C182.267 43.4697 179.211 44.7543 175.343 44.7543C171.387 44.7543 168.306 43.4557 166.095 40.8567C163.887 38.2573 162.781 34.7543 162.781 30.3477ZM167.966 30.3477C167.966 37.267 170.425 40.7277 175.344 40.7277C177.641 40.7277 179.438 39.8 180.741 37.9447C182.045 36.0903 182.696 33.5587 182.696 30.3477C182.696 23.515 180.245 20.097 175.344 20.097C173.1 20.097 171.308 21.0083 169.972 22.829C168.633 24.6483 167.966 27.156 167.966 30.3477Z" fill="white" stroke="#ffffff" stroke-width="2.9589"/>
<path d="M209.063 21.7836C207.994 21.0426 206.919 20.6723 205.838 20.6723C204.099 20.6723 202.582 21.4776 201.283 23.0829C199.985 24.6886 199.335 26.6229 199.335 28.8873V44.7539H194.396V17.0559H199.335V21.4933C201.124 18.2059 203.779 16.5636 207.308 16.5636C208.187 16.5636 209.452 16.7169 211.102 17.0243L209.063 21.7836Z" fill="white" stroke="#ffffff" stroke-width="2.9589"/>
<path d="M217.138 36.4093V5.22034H222.075V35.6147C222.075 37.0977 222.499 38.2663 223.348 39.1183C224.197 39.9723 225.31 40.4 226.684 40.4V44.7543C220.319 44.7543 217.138 41.9737 217.138 36.4093Z" fill="white" stroke="#ffffff" stroke-width="2.9589"/>
<path d="M250.597 44.2617V42.2207C248.891 43.91 246.412 44.7543 243.156 44.7543C239.694 44.7543 236.887 43.515 234.734 41.034C232.582 38.5537 231.505 35.2447 231.505 31.1097C231.505 26.9583 232.743 23.4153 235.225 20.4757C237.704 17.539 240.658 16.071 244.087 16.071C246.944 16.071 249.115 16.7417 250.597 18.0847V5.22034H255.534V44.262L250.597 44.2617ZM250.597 22.9743C249.357 21.1123 247.665 20.179 245.514 20.179C242.881 20.179 240.752 21.1637 239.126 23.1297C237.5 25.0957 236.689 27.5977 236.689 30.6317C236.689 37.3083 239.715 40.6443 245.771 40.6443C246.546 40.6443 247.473 40.4007 248.559 39.9063C249.641 39.416 250.32 38.894 250.596 38.3417V22.9743H250.597Z" fill="white" stroke="#ffffff" stroke-width="2.9589"/>
<path d="M110.837 27.3433C112.37 27.3433 113.695 27.8743 114.778 28.9706C115.871 30.0499 116.406 31.3546 116.406 32.8689C116.406 34.4013 115.871 35.7206 114.778 36.8013C113.695 37.8986 112.371 38.4286 110.837 38.4286C109.324 38.4286 108.016 37.8986 106.933 36.8013C105.853 35.7206 105.304 34.4013 105.304 32.8689C105.304 31.3246 105.838 30.0183 106.917 28.9386C107.985 27.8743 109.29 27.3433 110.837 27.3433Z" fill="#434343"/>
<path d="M73.8653 58.1504L72.6505 54.5744L72.4199 53.8584H72.3965L72.4129 54.6321V58.1504H71.396V53.1434H73.1151L74.118 56.0554L74.3392 56.9438H74.3596L74.5832 56.0554L75.5844 53.1434H77.3031V58.1504H76.2856V54.6321L76.3009 53.8584H76.2782L76.0496 54.5744L74.8321 58.1504H73.8653Z" fill="white"/>
<path d="M80.7552 53.1437V55.719L80.7335 56.935H80.7552L81.1116 56.2057L82.8674 53.1437H84.0862V58.1507H83.0693V55.5703L83.0903 54.36H83.0693L82.7255 55.1197L80.9561 58.1507H79.7393V53.1437H80.7552Z" fill="white"/>
<path d="M88.0017 53.1437C89.8195 53.1437 89.928 54.3967 89.928 54.7093C89.928 55.3673 89.4691 56.2697 88.1876 56.2697H87.5365V58.1507H86.5186V53.1437H88.0017ZM88.0017 55.484C88.6174 55.484 88.853 55.062 88.853 54.6817C88.853 54.2667 88.5891 53.93 88.0017 53.93H87.5365V55.484H88.0017Z" fill="white"/>
<path d="M96.2656 53.1437V55.719L96.2442 56.935H96.2656L96.6247 56.2057L98.3788 53.1437H99.5956V58.1507H98.5781V55.5703L98.5994 54.36H98.5781L98.2343 55.1197L96.4652 58.1507H95.248V53.1437H96.2656Z" fill="white"/>
<path d="M103.046 53.1437V55.1603H105.081V53.1437H106.098V58.1507H105.081V55.9857H103.046V58.1507H102.03V53.1437H103.046Z" fill="white"/>
<path d="M111.971 53.502H112.27C113.417 53.502 114.497 54.2467 114.497 55.6477C114.497 57.0513 113.417 57.793 112.27 57.793H111.971V58.4383H110.952V57.793H110.653C109.506 57.793 108.427 57.0513 108.427 55.6477C108.427 54.247 109.507 53.502 110.653 53.502H110.952V52.859H111.971V53.502ZM110.952 57.0067V54.29H110.738C110.059 54.29 109.498 54.7097 109.498 55.6477C109.498 56.585 110.059 57.0067 110.738 57.0067H110.952ZM111.971 54.2897V57.0063H112.186C112.865 57.0063 113.423 56.5843 113.423 55.6473C113.423 54.7093 112.865 54.2897 112.186 54.2897H111.971Z" fill="white"/>
<path d="M121.559 55.6474C121.559 57.4647 120.342 58.208 119.102 58.208C117.863 58.208 116.647 57.465 116.647 55.6474C116.647 53.832 117.863 53.0857 119.102 53.0857C120.341 53.086 121.559 53.832 121.559 55.6474ZM117.719 55.6474C117.719 57.343 118.721 57.4917 119.102 57.4917C119.483 57.4917 120.485 57.343 120.485 55.6474C120.485 53.9527 119.483 53.801 119.102 53.801C118.721 53.801 117.719 53.9527 117.719 55.6474Z" fill="white"/>
<path d="M125.299 53.1437C127.114 53.1437 127.223 54.3967 127.223 54.7093C127.223 55.3673 126.763 56.2697 125.485 56.2697H124.831V58.1507H123.813V53.1437H125.299ZM125.299 55.484C125.912 55.484 126.149 55.062 126.149 54.6817C126.149 54.2667 125.883 53.93 125.299 53.93H124.832V55.484H125.299Z" fill="white"/>
<path d="M131.913 58.1504L130.696 54.5744L130.469 53.8584H130.447L130.461 54.6321V58.1504H129.443V53.1434H131.163L132.165 56.0554L132.388 56.9438H132.408L132.63 56.0554L133.632 53.1434H135.352V58.1504H134.336V54.6321L134.347 53.8584H134.326L134.098 54.5744L132.878 58.1504H131.913Z" fill="white"/>
<path d="M140.549 53.1437L142.541 58.1507H141.394L140.973 57.0283H138.902L138.481 58.1507H137.391L139.389 53.1437H140.549ZM140.67 56.1973L139.933 54.153H139.92L139.226 56.1973H140.67Z" fill="white"/>
<path d="M145.598 53.1438V57.2631H147.63V53.1438H148.648V57.2631H149.229V59.1788H148.306V58.1504H144.581V53.1434H145.598V53.1438Z" fill="white"/>
<path d="M152.322 53.1437V55.719L152.3 56.935H152.322L152.681 56.2057L154.433 53.1437H155.652V58.1507H154.636V55.5703L154.657 54.36H154.636L154.291 55.1197L152.523 58.1507H151.306V53.1437H152.322Z" fill="white"/>
<path d="M162.821 55.6474C162.821 57.4647 161.604 58.208 160.363 58.208C159.126 58.208 157.908 57.465 157.908 55.6474C157.908 53.832 159.126 53.0857 160.363 53.0857C161.604 53.086 162.821 53.832 162.821 55.6474ZM158.983 55.6474C158.983 57.343 159.983 57.4917 160.363 57.4917C160.745 57.4917 161.747 57.343 161.747 55.6474C161.747 53.9527 160.744 53.801 160.363 53.801C159.983 53.801 158.983 53.9527 158.983 55.6474Z" fill="white"/>
<path d="M166.094 53.1437V55.1603H168.127V53.1437H169.145V58.1507H168.127V55.9857H166.094V58.1507H165.076V53.1437H166.094Z" fill="white"/>
<path d="M172.595 53.1437V55.1603H174.628V53.1437H175.647V58.1507H174.628V55.9857H172.595V58.1507H171.577V53.1437H172.595Z" fill="white"/>
<path d="M179.097 55.0177H179.801C181.525 55.0177 181.646 56.219 181.646 56.534C181.646 57.3073 181.21 58.1507 179.769 58.1507H178.08V53.1437H179.097L179.097 55.0177ZM179.097 57.3633H179.769C180.252 57.3633 180.61 57.07 180.61 56.5847C180.61 56.2633 180.452 55.8047 179.692 55.8047H179.097L179.097 57.3633ZM183.381 53.1437V58.1507H182.364V53.1437H183.381Z" fill="white"/>
<path d="M186.81 53.1437L187.612 54.5383L187.841 54.9623H187.863L188.091 54.5383L188.914 53.1437H190.023L188.5 55.5327L190.173 58.1507H188.973L188.013 56.564L187.798 56.1773H187.778L187.561 56.564L186.565 58.1507H185.457L187.133 55.5327L185.606 53.1437H186.81Z" fill="white"/>
<path d="M198.871 53.1437V54.0313H197.424V58.1503H196.406V54.0313H194.961V53.1437H198.871Z" fill="white"/>
<path d="M203.904 53.1437V54.0313H201.927V55.1603H203.724V55.9857H201.927V57.2633H203.904V58.1507H200.909V53.1437H203.904Z" fill="white"/>
<path d="M207.189 53.1437L207.991 54.5383L208.22 54.9623H208.241L208.472 54.5383L209.295 53.1437H210.406L208.881 55.5327L210.555 58.1507H209.352L208.393 56.564L208.179 56.1773H208.157L207.942 56.564L206.946 58.1507H205.837L207.515 55.5327L205.987 53.1437H207.189Z" fill="white"/>
<path d="M213.649 53.1437V55.1603H215.683V53.1437H216.7V58.1507H215.683V55.9857H213.649V58.1507H212.633V53.1437H213.649Z" fill="white"/>
<path d="M223.867 55.6474C223.867 57.4647 222.649 58.208 221.411 58.208C220.172 58.208 218.955 57.465 218.955 55.6474C218.955 53.832 220.172 53.0857 221.411 53.0857C222.649 53.086 223.867 53.832 223.867 55.6474ZM220.029 55.6474C220.029 57.343 221.034 57.4917 221.411 57.4917C221.789 57.4917 222.794 57.343 222.794 55.6474C222.794 53.9527 221.789 53.801 221.411 53.801C221.034 53.801 220.029 53.9527 220.029 55.6474Z" fill="white"/>
<path d="M229.984 53.1438V58.1508H228.966V54.0318H227.643V55.0338C227.643 56.7138 227.669 58.2084 226.179 58.2084C226.014 58.2084 225.828 58.1794 225.693 58.1508L225.737 57.3554C225.8 57.3721 225.93 57.3928 226.009 57.3928C226.797 57.3928 226.689 55.9628 226.689 54.7748V53.1434H229.984V53.1438Z" fill="white"/>
<path d="M237.15 55.6474C237.15 57.4647 235.934 58.208 234.696 58.208C233.455 58.208 232.239 57.465 232.239 55.6474C232.239 53.832 233.455 53.0857 234.696 53.0857C235.934 53.086 237.15 53.832 237.15 55.6474ZM233.312 55.6474C233.312 57.343 234.318 57.4917 234.696 57.4917C235.075 57.4917 236.079 57.343 236.079 55.6474C236.079 53.9527 235.075 53.801 234.696 53.801C234.317 53.801 233.312 53.9527 233.312 55.6474Z" fill="white"/>
<path d="M242.489 53.1438V54.0314H240.423V58.1504H239.407V53.1434H242.489V53.1438Z" fill="white"/>
<path d="M245.508 53.1437V55.719L245.486 56.935H245.508L245.865 56.2057L247.619 53.1437H248.837V58.1507H247.822V55.5703L247.843 54.36H247.822L247.477 55.1197L245.708 58.1507H244.491V53.1437H245.508Z" fill="white"/>
<path d="M252.29 53.1437V55.719L252.27 56.935H252.29L252.648 56.2057L254.401 53.1437H255.619V58.1507H254.601V55.5704L254.625 54.36H254.601L254.26 55.1197L252.489 58.1507H251.272V53.1437H252.29ZM254.717 51.957C254.425 52.678 253.815 52.7937 253.393 52.7937C252.971 52.7937 252.36 52.678 252.069 51.957L252.59 51.6787C252.769 52.1214 253.219 52.142 253.393 52.142C253.564 52.142 254.015 52.1214 254.194 51.6787L254.717 51.957Z" fill="white"/>
</svg>