<svg width="40" height="40" viewBox="0 0 40 40" fill="none" xmlns="http://www.w3.org/2000/svg">
   <path fill-rule="evenodd" clip-rule="evenodd" d="M11.8313 2.08338C11.9114 2.08341 11.9927 2.08345 12.0751 2.08345H27.9252C28.0075 2.08345 28.0888 2.08341 28.169 2.08338C29.8635 2.08265 31.0297 2.08213 32.012 2.4239C33.8668 3.06933 35.307 4.56208 35.9245 6.44263C36.2512 7.43783 36.2508 8.62088 36.2502 10.3776C36.2502 10.4562 36.2502 10.5359 36.2502 10.6169V33.9571C36.2502 36.3991 33.3718 37.853 31.4762 36.1183C31.3437 35.9971 31.1567 35.9971 31.0242 36.1183L30.219 36.8551C28.672 38.2706 26.3282 38.2706 24.7813 36.8551C24.1897 36.3136 23.3107 36.3136 22.719 36.8551C21.172 38.2706 18.8282 38.2706 17.2813 36.8551C16.6897 36.3136 15.8106 36.3136 15.219 36.8551C13.672 38.2706 11.3282 38.2706 9.78125 36.8551L8.9761 36.1183C8.84364 35.9971 8.65659 35.9971 8.52414 36.1183C6.62842 37.853 3.75012 36.3991 3.75012 33.9571V10.6169C3.75012 10.5359 3.75009 10.4562 3.75005 10.3776C3.74942 8.6209 3.74899 7.43783 4.07575 6.44263C4.69319 4.56208 6.13337 3.06933 7.9883 2.4239C8.9705 2.08213 10.1367 2.08265 11.8313 2.08338ZM12.0751 4.58345C10.04 4.58345 9.339 4.60093 8.80989 4.78503C7.71092 5.16743 6.83199 6.06211 6.451 7.22248C6.26585 7.78636 6.25012 8.52991 6.25012 10.6169V33.9571C6.25012 34.1555 6.34999 34.2768 6.47529 34.3348C6.54057 34.365 6.6044 34.3728 6.6576 34.3656C6.7045 34.3593 6.76519 34.3391 6.83642 34.274C7.92422 33.2785 9.57602 33.2785 10.6638 34.274L11.469 35.0108C12.0606 35.5521 12.9396 35.5521 13.5313 35.0108C15.0782 33.5951 17.422 33.5951 18.969 35.0108C19.5607 35.5521 20.4397 35.5521 21.0313 35.0108C22.5782 33.5951 24.922 33.5951 26.469 35.0108C27.0607 35.5521 27.9397 35.5521 28.5313 35.0108L29.3365 34.274C30.4242 33.2785 32.076 33.2785 33.1638 34.274C33.235 34.3391 33.2957 34.3593 33.3427 34.3656C33.3958 34.3728 33.4597 34.365 33.525 34.3348C33.6502 34.2768 33.7502 34.1556 33.7502 33.9571V10.6169C33.7502 8.52993 33.7343 7.78636 33.5492 7.22248C33.1682 6.06211 32.2893 5.16743 31.1903 4.78503C30.6612 4.60093 29.9602 4.58345 27.9252 4.58345H12.0751ZM10.4168 12.5001C10.4168 11.8098 10.9764 11.2501 11.6668 11.2501H12.5001C13.1905 11.2501 13.7501 11.8098 13.7501 12.5001C13.7501 13.1905 13.1905 13.7501 12.5001 13.7501H11.6668C10.9764 13.7501 10.4168 13.1905 10.4168 12.5001ZM16.2501 12.5001C16.2501 11.8098 16.8098 11.2501 17.5002 11.2501H28.3335C29.0238 11.2501 29.5835 11.8098 29.5835 12.5001C29.5835 13.1905 29.0238 13.7501 28.3335 13.7501H17.5002C16.8098 13.7501 16.2501 13.1905 16.2501 12.5001ZM10.4168 18.3335C10.4168 17.6431 10.9764 17.0835 11.6668 17.0835H12.5001C13.1905 17.0835 13.7501 17.6431 13.7501 18.3335C13.7501 19.0238 13.1905 19.5835 12.5001 19.5835H11.6668C10.9764 19.5835 10.4168 19.0238 10.4168 18.3335ZM16.2501 18.3335C16.2501 17.6431 16.8098 17.0835 17.5002 17.0835H28.3335C29.0238 17.0835 29.5835 17.6431 29.5835 18.3335C29.5835 19.0238 29.0238 19.5835 28.3335 19.5835H17.5002C16.8098 19.5835 16.2501 19.0238 16.2501 18.3335ZM10.4168 24.1668C10.4168 23.4765 10.9764 22.9168 11.6668 22.9168H12.5001C13.1905 22.9168 13.7501 23.4765 13.7501 24.1668C13.7501 24.8571 13.1905 25.4168 12.5001 25.4168H11.6668C10.9764 25.4168 10.4168 24.8571 10.4168 24.1668ZM16.2501 24.1668C16.2501 23.4765 16.8098 22.9168 17.5002 22.9168H28.3335C29.0238 22.9168 29.5835 23.4765 29.5835 24.1668C29.5835 24.8571 29.0238 25.4168 28.3335 25.4168H17.5002C16.8098 25.4168 16.2501 24.8571 16.2501 24.1668Z" fill="white" fill-opacity="0.1"/>
</svg>
